<svg xmlns="http://www.w3.org/2000/svg" xmlns:xlink="http://www.w3.org/1999/xlink" width="150" height="150" viewBox="0 0 150 150">
  <defs>
    <linearGradient id="linear-gradient" x1="0.5" y1="-0.115" x2="0.5" y2="1.004" gradientUnits="objectBoundingBox">
      <stop offset="0" stop-color="#f40808"/>
      <stop offset="1" stop-color="#f98008"/>
    </linearGradient>
    <linearGradient id="linear-gradient-2" x1="0.5" y1="-0.115" x2="0.5" y2="1.004" xlink:href="#linear-gradient"/>
    <linearGradient id="linear-gradient-5" x1="0.499" y1="-0.115" x2="0.499" y2="1.004" xlink:href="#linear-gradient"/>
    <linearGradient id="linear-gradient-6" x1="0.996" y1="0.8" x2="0.368" y2="0.454" gradientUnits="objectBoundingBox">
      <stop offset="0" stop-color="#14336d"/>
      <stop offset="0.966" stop-color="#0e2253"/>
    </linearGradient>
    <linearGradient id="linear-gradient-7" x1="-33.837" y1="-4.211" x2="-34.629" y2="-3.454" gradientUnits="objectBoundingBox">
      <stop offset="0" stop-color="#3162df"/>
      <stop offset="0.965" stop-color="#173db8"/>
    </linearGradient>
    <linearGradient id="linear-gradient-8" x1="0.846" y1="0.348" x2="-0.081" y2="0.925" xlink:href="#linear-gradient-7"/>
    <linearGradient id="linear-gradient-9" x1="-24.478" y1="-7.056" x2="-25.375" y2="-6.404" xlink:href="#linear-gradient-7"/>
  </defs>
  <g id="api-not-found" transform="translate(-113 -205)">
    <rect id="Rectangle_8793" data-name="Rectangle 8793" width="150" height="150" transform="translate(113 205)" fill="#8c8c8c" opacity="0"/>
    <g id="Group_8116" data-name="Group 8116" transform="translate(156 -13)">
      <g id="Group_8115" data-name="Group 8115" transform="translate(-34 230)">
        <g id="Group_8104" data-name="Group 8104" transform="translate(103.629 16.93)">
          <path id="Path_24423" data-name="Path 24423" d="M2577.506,641.272h-19.851a4.7,4.7,0,0,1-4.7-4.7h0a4.7,4.7,0,0,1,4.7-4.7h19.851a4.7,4.7,0,0,1,4.7,4.7h0a4.7,4.7,0,0,1-4.7,4.7Z" transform="translate(-2552.954 -624.795)" fill="#d8e2f4"/>
          <circle id="Ellipse_687" data-name="Ellipse 687" cx="7.123" cy="7.123" r="7.123" transform="matrix(0.234, -0.972, 0.972, 0.234, 4.323, 13.851)" fill="#d8e2f4"/>
        </g>
        <g id="Group_8105" data-name="Group 8105" transform="translate(0 0)">
          <path id="Path_24424" data-name="Path 24424" d="M2243.419,593.046h-29.132a6.9,6.9,0,0,1-6.9-6.9h0a6.9,6.9,0,0,1,6.9-6.9h29.132a6.9,6.9,0,0,1,6.9,6.9h0a6.9,6.9,0,0,1-6.9,6.9Z" transform="translate(-2207.387 -571.022)" fill="#fff"/>
          <circle id="Ellipse_688" data-name="Ellipse 688" cx="10.454" cy="10.454" r="10.454" transform="translate(8.503)" fill="#fff"/>
        </g>
        <path id="Path_24498" data-name="Path 24498" d="M2468.938,790.832h0a1.237,1.237,0,0,1-1.237-1.237v-2.444a1.237,1.237,0,0,1,1.237-1.237h0a1.237,1.237,0,0,1,1.237,1.237V789.6A1.237,1.237,0,0,1,2468.938,790.832Z" transform="translate(-2389.638 -728.087)" fill="url(#linear-gradient)"/>
        <path id="Path_24499" data-name="Path 24499" d="M2575.594,805.262h0a.774.774,0,0,1-.774-.774v-1.955a.774.774,0,0,1,.774-.774h0a.774.774,0,0,1,.774.774v1.955A.774.774,0,0,1,2575.594,805.262Z" transform="translate(-2464.634 -739.18)" fill="url(#linear-gradient-2)"/>
        <g id="Group_8119" data-name="Group 8119" transform="translate(19.595 19.827)">
          <g id="Group_8118" data-name="Group 8118" transform="translate(49 38)">
            <g id="Group_8117" data-name="Group 8117" transform="translate(9.325 1.765)">
              <path id="Path_24521" data-name="Path 24521" d="M2475.572,811.326h0a7.87,7.87,0,0,1-7.87-7.87V800.07a1.323,1.323,0,0,1,1.323-1.323h0a1.323,1.323,0,0,1,1.323,1.323v1.077a.93.93,0,0,0,.93.93h0a.93.93,0,0,0,.93-.93v-4.582a1.114,1.114,0,0,1,1.115-1.114h0a1.114,1.114,0,0,1,1.114,1.114v1.063a1.11,1.11,0,0,0,1.11,1.11h0a1.11,1.11,0,0,0,1.109-1.11v-4.777a1.1,1.1,0,0,1,1.1-1.1h0a1.1,1.1,0,0,1,1.1,1.1v4.221a.968.968,0,0,0,.968.967h0a.967.967,0,0,0,.967-.967v-1.724a1.322,1.322,0,0,1,1.321-1.322h0a1.322,1.322,0,0,1,1.322,1.322v8.108A7.871,7.871,0,0,1,2475.572,811.326Z" transform="translate(-2467.701 -791.747)" fill="url(#linear-gradient)"/>
            </g>
            <path id="Path_24522" data-name="Path 24522" d="M2468.949,790.877h0a1.248,1.248,0,0,1-1.248-1.248v-2.466a1.248,1.248,0,0,1,1.248-1.249h0a1.249,1.249,0,0,1,1.249,1.249v2.466A1.249,1.249,0,0,1,2468.949,790.877Z" transform="translate(-2458.376 -785.914)" fill="url(#linear-gradient)"/>
            <path id="Path_24523" data-name="Path 24523" d="M2461.964,794.544a5.939,5.939,0,0,0-5.939-5.939c-.068,0-.135,0-.2,0a1.895,1.895,0,0,0-2.159-.512,3.538,3.538,0,0,0-5.6,1.18,1.9,1.9,0,0,0-1.7,1.365,3.642,3.642,0,0,0-3.505,2.988l-5.974.491.006,1.662,6.226-.025a3.629,3.629,0,0,0,.505.824,1.9,1.9,0,0,0,1.129,3.073,5.939,5.939,0,0,0,11.637,2.287,1.9,1.9,0,0,0,2.631-2.272A5.934,5.934,0,0,0,2461.964,794.544Z" transform="translate(-2436.886 -786.803)" fill="#d0daed" opacity="0.43"/>
          </g>
        </g>
        <g id="Group_8108" data-name="Group 8108" transform="translate(82.126 72.054)">
          <g id="Group_8106" data-name="Group 8106">
            <path id="Path_24425" data-name="Path 24425" d="M2511.317,887.811h-25.426a1.641,1.641,0,0,1-1.641-1.641V838a1.641,1.641,0,0,1,1.641-1.641h25.426a1.641,1.641,0,0,1,1.641,1.641V886.17a1.641,1.641,0,0,1-1.641,1.641Z" transform="translate(-2483.351 -835.456)" fill="#6a3185"/>
            <path id="Path_24426" data-name="Path 24426" d="M2509.217,886.61h-25.426a2.541,2.541,0,0,1-2.541-2.541V835.9a2.541,2.541,0,0,1,2.541-2.541h25.426a2.522,2.522,0,0,1,1.527.509,2.556,2.556,0,0,1,1.014,2.031V884.07a2.541,2.541,0,0,1-2.541,2.541Zm-25.426-51.455a.742.742,0,0,0-.742.742V884.07a.742.742,0,0,0,.742.742h25.426a.742.742,0,0,0,.742-.742V835.9a.742.742,0,0,0-.742-.742Z" transform="translate(-2481.25 -833.356)" fill="#522568"/>
          </g>
          <g id="Group_8107" data-name="Group 8107" transform="translate(4.725 4.029)">
            <path id="Path_24427" data-name="Path 24427" d="M2517.479,985.7h-19.888a.586.586,0,0,1-.585-.585v-3.886a.585.585,0,0,1,.585-.585h19.888a.585.585,0,0,1,.585.585v3.886a.586.586,0,0,1-.585.585Z" transform="translate(-2497.006 -940.506)" fill="#a56ac2"/>
            <path id="Path_24428" data-name="Path 24428" d="M2530.743,986.756h-7.5a.339.339,0,0,1-.338-.339v-2.8a.339.339,0,0,1,.338-.338h7.5a.339.339,0,0,1,.339.338v2.8a.34.34,0,0,1-.339.339Z" transform="translate(-2515.137 -942.351)" fill="#611188"/>
            <path id="Path_24429" data-name="Path 24429" d="M2553.436,987.206a.786.786,0,1,1-.786-.786A.786.786,0,0,1,2553.436,987.206Z" transform="translate(-2535.413 -944.549)" fill="#50c6a1"/>
            <path id="Path_24430" data-name="Path 24430" d="M2560.686,987.206a.786.786,0,1,1-.786-.786A.786.786,0,0,1,2560.686,987.206Z" transform="translate(-2540.489 -944.549)" fill="#fff"/>
            <path id="Path_24431" data-name="Path 24431" d="M2501.278,983.864a.583.583,0,1,1-.583-.583A.583.583,0,0,1,2501.278,983.864Z" transform="translate(-2499.18 -942.351)" fill="#fff"/>
            <path id="Path_24432" data-name="Path 24432" d="M2515.293,983.864a.583.583,0,1,1-.583-.583A.583.583,0,0,1,2515.293,983.864Z" transform="translate(-2508.993 -942.351)" fill="#50c6a1"/>
            <path id="Path_24433" data-name="Path 24433" d="M2508.286,983.864a.583.583,0,1,1-.583-.583A.583.583,0,0,1,2508.286,983.864Z" transform="translate(-2504.087 -942.351)" fill="#fff"/>
            <path id="Path_24434" data-name="Path 24434" d="M2501.278,991.563a.583.583,0,1,1-.583-.583A.583.583,0,0,1,2501.278,991.563Z" transform="translate(-2499.18 -947.741)" fill="#fff"/>
            <path id="Path_24435" data-name="Path 24435" d="M2515.293,991.563a.583.583,0,1,1-.583-.583A.583.583,0,0,1,2515.293,991.563Z" transform="translate(-2508.993 -947.741)" fill="#fff"/>
            <path id="Path_24436" data-name="Path 24436" d="M2508.286,991.563a.583.583,0,1,1-.583-.583A.583.583,0,0,1,2508.286,991.563Z" transform="translate(-2504.087 -947.741)" fill="#50c6a1"/>
            <path id="Path_24437" data-name="Path 24437" d="M2517.479,963.393h-19.888a.585.585,0,0,1-.585-.585v-3.886a.585.585,0,0,1,.585-.585h19.888a.586.586,0,0,1,.585.585v3.886a.586.586,0,0,1-.585.585Z" transform="translate(-2497.006 -924.887)" fill="#a56ac2"/>
            <path id="Path_24438" data-name="Path 24438" d="M2530.743,964.447h-7.5a.339.339,0,0,1-.338-.339v-2.8a.339.339,0,0,1,.338-.339h7.5a.339.339,0,0,1,.339.339v2.8a.34.34,0,0,1-.339.339Z" transform="translate(-2515.137 -926.732)" fill="#611188"/>
            <path id="Path_24439" data-name="Path 24439" d="M2553.436,964.9a.786.786,0,1,1-.786-.786A.786.786,0,0,1,2553.436,964.9Z" transform="translate(-2535.413 -928.93)" fill="#50c6a1"/>
            <path id="Path_24440" data-name="Path 24440" d="M2560.686,964.9a.786.786,0,1,1-.786-.786A.786.786,0,0,1,2560.686,964.9Z" transform="translate(-2540.489 -928.93)" fill="#fff"/>
            <path id="Path_24441" data-name="Path 24441" d="M2501.278,961.555a.583.583,0,1,1-.583-.583A.583.583,0,0,1,2501.278,961.555Z" transform="translate(-2499.18 -926.732)" fill="#fff"/>
            <path id="Path_24442" data-name="Path 24442" d="M2515.293,961.555a.583.583,0,1,1-.583-.583A.583.583,0,0,1,2515.293,961.555Z" transform="translate(-2508.993 -926.732)" fill="#50c6a1"/>
            <path id="Path_24443" data-name="Path 24443" d="M2508.286,961.555a.583.583,0,1,1-.583-.583A.583.583,0,0,1,2508.286,961.555Z" transform="translate(-2504.087 -926.732)" fill="#fff"/>
            <path id="Path_24444" data-name="Path 24444" d="M2501.278,969.254a.583.583,0,1,1-.583-.583A.583.583,0,0,1,2501.278,969.254Z" transform="translate(-2499.18 -932.122)" fill="#fff"/>
            <path id="Path_24445" data-name="Path 24445" d="M2515.293,969.254a.583.583,0,1,1-.583-.583A.583.583,0,0,1,2515.293,969.254Z" transform="translate(-2508.993 -932.122)" fill="#fff"/>
            <path id="Path_24446" data-name="Path 24446" d="M2508.286,969.254a.583.583,0,1,1-.583-.583A.583.583,0,0,1,2508.286,969.254Z" transform="translate(-2504.087 -932.122)" fill="#50c6a1"/>
            <path id="Path_24447" data-name="Path 24447" d="M2517.479,941.084h-19.888a.585.585,0,0,1-.585-.585v-3.886a.586.586,0,0,1,.585-.585h19.888a.585.585,0,0,1,.585.585V940.5a.585.585,0,0,1-.585.585Z" transform="translate(-2497.006 -909.268)" fill="#a56ac2"/>
            <path id="Path_24448" data-name="Path 24448" d="M2530.743,942.138h-7.5a.339.339,0,0,1-.338-.339V939a.339.339,0,0,1,.338-.339h7.5a.339.339,0,0,1,.339.339v2.8a.34.34,0,0,1-.339.339Z" transform="translate(-2515.137 -911.113)" fill="#611188"/>
            <path id="Path_24449" data-name="Path 24449" d="M2553.436,942.589a.786.786,0,1,1-.786-.786A.786.786,0,0,1,2553.436,942.589Z" transform="translate(-2535.413 -913.311)" fill="#50c6a1"/>
            <path id="Path_24450" data-name="Path 24450" d="M2560.686,942.589a.786.786,0,1,1-.786-.786A.786.786,0,0,1,2560.686,942.589Z" transform="translate(-2540.489 -913.311)" fill="#fff"/>
            <path id="Path_24451" data-name="Path 24451" d="M2501.278,939.246a.583.583,0,1,1-.583-.583A.583.583,0,0,1,2501.278,939.246Z" transform="translate(-2499.18 -911.113)" fill="#fff"/>
            <path id="Path_24452" data-name="Path 24452" d="M2515.293,939.246a.583.583,0,1,1-.583-.583A.583.583,0,0,1,2515.293,939.246Z" transform="translate(-2508.993 -911.113)" fill="#50c6a1"/>
            <path id="Path_24453" data-name="Path 24453" d="M2508.286,939.246a.583.583,0,1,1-.583-.583A.583.583,0,0,1,2508.286,939.246Z" transform="translate(-2504.087 -911.113)" fill="#fff"/>
            <path id="Path_24454" data-name="Path 24454" d="M2501.278,946.946a.583.583,0,1,1-.583-.583A.583.583,0,0,1,2501.278,946.946Z" transform="translate(-2499.18 -916.504)" fill="#fff"/>
            <path id="Path_24455" data-name="Path 24455" d="M2515.293,946.946a.583.583,0,1,1-.583-.583A.583.583,0,0,1,2515.293,946.946Z" transform="translate(-2508.993 -916.504)" fill="#fff"/>
            <path id="Path_24456" data-name="Path 24456" d="M2508.286,946.946a.583.583,0,1,1-.583-.583A.583.583,0,0,1,2508.286,946.946Z" transform="translate(-2504.087 -916.504)" fill="#50c6a1"/>
            <path id="Path_24457" data-name="Path 24457" d="M2517.479,918.775h-19.888a.585.585,0,0,1-.585-.585V914.3a.585.585,0,0,1,.585-.585h19.888a.585.585,0,0,1,.585.585v3.886a.585.585,0,0,1-.585.585Z" transform="translate(-2497.006 -893.65)" fill="#a56ac2"/>
            <path id="Path_24458" data-name="Path 24458" d="M2530.743,919.83h-7.5a.338.338,0,0,1-.338-.338v-2.8a.338.338,0,0,1,.338-.338h7.5a.339.339,0,0,1,.339.338v2.8a.339.339,0,0,1-.339.338Z" transform="translate(-2515.137 -895.495)" fill="#611188"/>
            <path id="Path_24459" data-name="Path 24459" d="M2553.436,920.28a.786.786,0,1,1-.786-.786A.786.786,0,0,1,2553.436,920.28Z" transform="translate(-2535.413 -897.692)" fill="#50c6a1"/>
            <path id="Path_24460" data-name="Path 24460" d="M2560.686,920.28a.786.786,0,1,1-.786-.786A.786.786,0,0,1,2560.686,920.28Z" transform="translate(-2540.489 -897.692)" fill="#fff"/>
            <path id="Path_24461" data-name="Path 24461" d="M2501.278,916.938a.583.583,0,1,1-.583-.583A.583.583,0,0,1,2501.278,916.938Z" transform="translate(-2499.18 -895.495)" fill="#fff"/>
            <path id="Path_24462" data-name="Path 24462" d="M2515.293,916.938a.583.583,0,1,1-.583-.583A.583.583,0,0,1,2515.293,916.938Z" transform="translate(-2508.993 -895.495)" fill="#50c6a1"/>
            <path id="Path_24463" data-name="Path 24463" d="M2508.286,916.938a.583.583,0,1,1-.583-.583A.583.583,0,0,1,2508.286,916.938Z" transform="translate(-2504.087 -895.495)" fill="#fff"/>
            <path id="Path_24464" data-name="Path 24464" d="M2501.278,924.637a.583.583,0,1,1-.583-.583A.583.583,0,0,1,2501.278,924.637Z" transform="translate(-2499.18 -900.885)" fill="#fff"/>
            <path id="Path_24465" data-name="Path 24465" d="M2515.293,924.637a.583.583,0,1,1-.583-.583A.583.583,0,0,1,2515.293,924.637Z" transform="translate(-2508.993 -900.885)" fill="#fff"/>
            <path id="Path_24466" data-name="Path 24466" d="M2508.286,924.637a.583.583,0,1,1-.583-.583A.583.583,0,0,1,2508.286,924.637Z" transform="translate(-2504.087 -900.885)" fill="#50c6a1"/>
            <path id="Path_24467" data-name="Path 24467" d="M2517.479,896.466h-19.888a.585.585,0,0,1-.585-.585V892a.585.585,0,0,1,.585-.585h19.888a.585.585,0,0,1,.585.585v3.886a.586.586,0,0,1-.585.585Z" transform="translate(-2497.006 -878.031)" fill="#a56ac2"/>
            <path id="Path_24468" data-name="Path 24468" d="M2530.743,897.521h-7.5a.338.338,0,0,1-.338-.338v-2.8a.338.338,0,0,1,.338-.338h7.5a.339.339,0,0,1,.339.338v2.8a.339.339,0,0,1-.339.338Z" transform="translate(-2515.137 -879.876)" fill="#611188"/>
            <path id="Path_24469" data-name="Path 24469" d="M2553.436,897.971a.786.786,0,1,1-.786-.786A.786.786,0,0,1,2553.436,897.971Z" transform="translate(-2535.413 -882.073)" fill="#50c6a1"/>
            <path id="Path_24470" data-name="Path 24470" d="M2560.686,897.971a.786.786,0,1,1-.786-.786A.786.786,0,0,1,2560.686,897.971Z" transform="translate(-2540.489 -882.073)" fill="#fff"/>
            <path id="Path_24471" data-name="Path 24471" d="M2501.278,894.629a.583.583,0,1,1-.583-.583A.583.583,0,0,1,2501.278,894.629Z" transform="translate(-2499.18 -879.876)" fill="#fff"/>
            <path id="Path_24472" data-name="Path 24472" d="M2515.293,894.629a.583.583,0,1,1-.583-.583A.583.583,0,0,1,2515.293,894.629Z" transform="translate(-2508.993 -879.876)" fill="#50c6a1"/>
            <path id="Path_24473" data-name="Path 24473" d="M2508.286,894.629a.583.583,0,1,1-.583-.583A.583.583,0,0,1,2508.286,894.629Z" transform="translate(-2504.087 -879.876)" fill="#fff"/>
            <path id="Path_24474" data-name="Path 24474" d="M2501.278,902.328a.583.583,0,1,1-.583-.583A.583.583,0,0,1,2501.278,902.328Z" transform="translate(-2499.18 -885.266)" fill="#fff"/>
            <path id="Path_24475" data-name="Path 24475" d="M2515.293,902.328a.583.583,0,1,1-.583-.583A.583.583,0,0,1,2515.293,902.328Z" transform="translate(-2508.993 -885.266)" fill="#fff"/>
            <path id="Path_24476" data-name="Path 24476" d="M2508.286,902.328a.583.583,0,1,1-.583-.583A.583.583,0,0,1,2508.286,902.328Z" transform="translate(-2504.087 -885.266)" fill="#50c6a1"/>
            <path id="Path_24477" data-name="Path 24477" d="M2517.479,874.158h-19.888a.586.586,0,0,1-.585-.585v-3.886a.585.585,0,0,1,.585-.585h19.888a.585.585,0,0,1,.585.585v3.886a.586.586,0,0,1-.585.585Z" transform="translate(-2497.006 -862.412)" fill="#a56ac2"/>
            <path id="Path_24478" data-name="Path 24478" d="M2530.743,875.212h-7.5a.338.338,0,0,1-.338-.338v-2.8a.339.339,0,0,1,.338-.338h7.5a.339.339,0,0,1,.339.338v2.8a.339.339,0,0,1-.339.338Z" transform="translate(-2515.137 -864.257)" fill="#611188"/>
            <path id="Path_24479" data-name="Path 24479" d="M2553.436,875.662a.786.786,0,1,1-.786-.786A.786.786,0,0,1,2553.436,875.662Z" transform="translate(-2535.413 -866.455)" fill="#50c6a1"/>
            <path id="Path_24480" data-name="Path 24480" d="M2560.686,875.662a.786.786,0,1,1-.786-.786A.786.786,0,0,1,2560.686,875.662Z" transform="translate(-2540.489 -866.455)" fill="#fff"/>
            <path id="Path_24481" data-name="Path 24481" d="M2501.278,872.32a.583.583,0,1,1-.583-.583A.583.583,0,0,1,2501.278,872.32Z" transform="translate(-2499.18 -864.257)" fill="#fff"/>
            <path id="Path_24482" data-name="Path 24482" d="M2515.293,872.32a.583.583,0,1,1-.583-.583A.583.583,0,0,1,2515.293,872.32Z" transform="translate(-2508.993 -864.257)" fill="#50c6a1"/>
            <path id="Path_24483" data-name="Path 24483" d="M2508.286,872.32a.583.583,0,1,1-.583-.583A.583.583,0,0,1,2508.286,872.32Z" transform="translate(-2504.087 -864.257)" fill="#fff"/>
            <path id="Path_24484" data-name="Path 24484" d="M2501.278,880.019a.583.583,0,1,1-.583-.583A.583.583,0,0,1,2501.278,880.019Z" transform="translate(-2499.18 -869.647)" fill="#fff"/>
            <path id="Path_24485" data-name="Path 24485" d="M2515.293,880.019a.583.583,0,1,1-.583-.583A.583.583,0,0,1,2515.293,880.019Z" transform="translate(-2508.993 -869.647)" fill="#fff"/>
            <path id="Path_24486" data-name="Path 24486" d="M2508.286,880.019a.583.583,0,1,1-.583-.583A.583.583,0,0,1,2508.286,880.019Z" transform="translate(-2504.087 -869.647)" fill="#50c6a1"/>
            <path id="Path_24487" data-name="Path 24487" d="M2517.479,851.849h-19.888a.585.585,0,0,1-.585-.585v-3.886a.585.585,0,0,1,.585-.585h19.888a.585.585,0,0,1,.585.585v3.886a.586.586,0,0,1-.585.585Z" transform="translate(-2497.006 -846.793)" fill="#a56ac2"/>
            <path id="Path_24488" data-name="Path 24488" d="M2530.743,852.9h-7.5a.339.339,0,0,1-.338-.339v-2.8a.339.339,0,0,1,.338-.339h7.5a.339.339,0,0,1,.339.339v2.8a.34.34,0,0,1-.339.339Z" transform="translate(-2515.137 -848.638)" fill="#611188"/>
            <path id="Path_24489" data-name="Path 24489" d="M2553.436,853.354a.786.786,0,1,1-.786-.786A.786.786,0,0,1,2553.436,853.354Z" transform="translate(-2535.413 -850.836)" fill="#50c6a1"/>
            <path id="Path_24490" data-name="Path 24490" d="M2560.686,853.354a.786.786,0,1,1-.786-.786A.786.786,0,0,1,2560.686,853.354Z" transform="translate(-2540.489 -850.836)" fill="#fff"/>
            <path id="Path_24491" data-name="Path 24491" d="M2501.278,850.011a.583.583,0,1,1-.583-.583A.583.583,0,0,1,2501.278,850.011Z" transform="translate(-2499.18 -848.638)" fill="#fff"/>
            <path id="Path_24492" data-name="Path 24492" d="M2515.293,850.011a.583.583,0,1,1-.583-.583A.583.583,0,0,1,2515.293,850.011Z" transform="translate(-2508.993 -848.638)" fill="#50c6a1"/>
            <path id="Path_24493" data-name="Path 24493" d="M2508.286,850.011a.583.583,0,1,1-.583-.583A.583.583,0,0,1,2508.286,850.011Z" transform="translate(-2504.087 -848.638)" fill="#fff"/>
            <path id="Path_24494" data-name="Path 24494" d="M2501.278,857.71a.583.583,0,1,1-.583-.583A.583.583,0,0,1,2501.278,857.71Z" transform="translate(-2499.18 -854.028)" fill="#fff"/>
            <path id="Path_24495" data-name="Path 24495" d="M2515.293,857.71a.583.583,0,1,1-.583-.583A.583.583,0,0,1,2515.293,857.71Z" transform="translate(-2508.993 -854.028)" fill="#fff"/>
            <path id="Path_24496" data-name="Path 24496" d="M2508.286,857.71a.583.583,0,1,1-.583-.583A.583.583,0,0,1,2508.286,857.71Z" transform="translate(-2504.087 -854.028)" fill="#50c6a1"/>
          </g>
        </g>
        <g id="Group_8109" data-name="Group 8109" transform="translate(104.19 65.31)">
          <path id="Path_24497" data-name="Path 24497" d="M2560.059,823.883h0a5.232,5.232,0,0,0,5.232-5.232V816.4a.879.879,0,0,0-.88-.88h0a.88.88,0,0,0-.879.88v.716a.618.618,0,0,1-.618.618h0a.618.618,0,0,1-.618-.618v-3.046a.741.741,0,0,0-.741-.741h0a.741.741,0,0,0-.74.741v.707a.738.738,0,0,1-.738.738h0a.738.738,0,0,1-.738-.738V811.6a.734.734,0,0,0-.734-.734h0a.734.734,0,0,0-.734.734v2.806a.643.643,0,0,1-.643.643h0a.643.643,0,0,1-.643-.643v-1.146a.878.878,0,0,0-.878-.879h0a.879.879,0,0,0-.879.879v5.39A5.232,5.232,0,0,0,2560.059,823.883Z" transform="translate(-2554.827 -810.868)" fill="url(#linear-gradient-5)"/>
        </g>
        <g id="Group_8114" data-name="Group 8114" transform="translate(20.863 36.574)">
          <g id="Group_8112" data-name="Group 8112" transform="translate(0 8.249)">
            <path id="Path_24501" data-name="Path 24501" d="M2345.881,989.977l-.558,3.028h9.96l1.163-3.028Z" transform="translate(-2324.822 -915.779)" fill="#ffaa9d"/>
            <path id="Path_24502" data-name="Path 24502" d="M2353.568,1000.075h-10.224l-.471,3.155h13.786Z" transform="translate(-2323.106 -922.848)" fill="#0b2252"/>
            <path id="Path_24503" data-name="Path 24503" d="M2328,873.005s1.777-14.816,1.842-15.973.109-5.013-1.842-6.62-6.559-7.571-7.156-13a108.462,108.462,0,0,1,0-14.513h12.439s9.566,15.04,9.566,23.715c0,10.992-2.033,25.423-2.608,26.387Z" transform="translate(-2307.496 -798.807)" fill="url(#linear-gradient-6)"/>
            <path id="Path_24504" data-name="Path 24504" d="M2288.372,822.9l-8.877,50.1h11.65l14.94-46.066Z" transform="translate(-2278.734 -798.807)" fill="#14336d"/>
            <path id="Path_24505" data-name="Path 24505" d="M2287.664,1000.075h-9.96l-.745,3.155h12.634Z" transform="translate(-2276.959 -922.848)" fill="#0b2252"/>
            <path id="Path_24506" data-name="Path 24506" d="M2280,989.977l-.557,3.028h9.96l1.163-3.028Z" transform="translate(-2278.698 -915.779)" fill="#ffaa9d"/>
            <path id="Path_24507" data-name="Path 24507" d="M2403.753,812.495a32.507,32.507,0,0,0,5.242-.382c1.39-.374,1.995-.56,1.894-.883s-3.1-.731-3.218-1.046.346-.628.21-.982-2.621.281-2.909-.059S2403.5,811.959,2403.753,812.495Z" transform="translate(-2365.706 -789.136)" fill="#ffaa9d"/>
            <path id="Path_24508" data-name="Path 24508" d="M2330.076,745.827c.621,1.322,1.119,13.9,2.135,14.606s14.617,2.881,15.046,3.045.732,3.5.528,3.776-15.688,4.487-22.56-.287-2.253-18.856-1.934-19.542C2325.646,742.377,2329.455,744.5,2330.076,745.827Z" transform="translate(-2308.128 -743.728)" fill="url(#linear-gradient-7)"/>
            <path id="Path_24509" data-name="Path 24509" d="M2308.8,745.86s-4.318,22.789-3.674,24.032c2.172,4.2,21.508,3.265,20.718,1.035-2.16-6.092-1.774-22.614-3.9-25.438-1.967-2.615-4.655-2.938-6.931-2.938C2310.149,742.55,2309.186,743.628,2308.8,745.86Z" transform="translate(-2296.636 -742.55)" fill="url(#linear-gradient-8)"/>
            <path id="Path_24510" data-name="Path 24510" d="M2366.064,820.233a.9.9,0,0,1-.647-1.525c2.385-2.467,4.511-2.7,7.377-2.279a13.588,13.588,0,0,1,3.7,1.19c1.079.482,1.664.723,2.1.483.565-.308.574-1.207.522-2.652-.058-1.59-.123-3.392,1.149-4.679.968-.979,2.521-1.425,4.745-1.371a.9.9,0,1,1-.045,1.8c-1.676-.043-2.828.24-3.42.838-.725.733-.679,2-.63,3.348.058,1.61.125,3.434-1.459,4.3-1.243.677-2.436.144-3.7-.42a11.9,11.9,0,0,0-3.228-1.053c-2.5-.37-3.929-.205-5.819,1.75A.9.9,0,0,1,2366.064,820.233Z" transform="translate(-2338.714 -789.35)" fill="#0b2252"/>
            <path id="Path_24511" data-name="Path 24511" d="M2363.782,832.412a32.566,32.566,0,0,0,5.229.535c1.434-.127,2.062-.205,2.019-.54s-2.923-1.259-2.987-1.589.449-.559.378-.931-2.63-.179-2.854-.564S2363.629,831.841,2363.782,832.412Z" transform="translate(-2337.739 -803.277)" fill="#ffaa9d"/>
            <path id="Path_24512" data-name="Path 24512" d="M2305.688,746.841c.118,1.456-3.834,13.41-3.13,14.425s12.674,7.831,13.019,8.135-.544,3.536-.832,3.721-16.265-1.308-21.022-8.191,4.512-18.447,5.051-18.976C2302.752,742.056,2305.571,745.385,2305.688,746.841Z" transform="translate(-2287.748 -743.654)" fill="url(#linear-gradient-9)"/>
            <g id="Group_8111" data-name="Group 8111" transform="translate(28.819 27.268)">
              <g id="Group_8110" data-name="Group 8110">
                <path id="Path_24513" data-name="Path 24513" d="M2378.95,865.621l-4.424-1.157a1.959,1.959,0,0,1-1.4-2.391l2.927-11.189a4.245,4.245,0,0,1,5.182-3.033h0a4.246,4.246,0,0,1,3.033,5.182l-2.927,11.189A1.958,1.958,0,0,1,2378.95,865.621Z" transform="translate(-2373.062 -843.444)" fill="#ed3232"/>
                <path id="Path_24514" data-name="Path 24514" d="M2392.232,841.346s.967-.463,1.137-1.111l.505-1.932,2.912.761-.505,1.932a2.337,2.337,0,0,0,.449,1.526Z" transform="translate(-2386.483 -836.857)" fill="#ed3232"/>
                <path id="Path_24515" data-name="Path 24515" d="M2400.187,835.7a1.773,1.773,0,1,1-1.266-2.164A1.773,1.773,0,0,1,2400.187,835.7Z" transform="translate(-2389.611 -833.48)" fill="#d0daed"/>
                <path id="Path_24516" data-name="Path 24516" d="M2401.323,837.431a.942.942,0,1,1-.673-1.15A.943.943,0,0,1,2401.323,837.431Z" transform="translate(-2391.55 -835.419)" fill="#ed3232"/>
              </g>
              <rect id="Rectangle_8797" data-name="Rectangle 8797" width="8.491" height="4.593" transform="matrix(0.967, 0.253, -0.253, 0.967, 2.34, 9.929)" fill="#d0daed"/>
            </g>
            <path id="Path_24517" data-name="Path 24517" d="M2435.8,810.625l-4.285-.233a.262.262,0,0,1-.248-.262v-2.035a.262.262,0,0,1,.248-.261l4.285-.234a.415.415,0,0,1,.438.414v2.2A.415.415,0,0,1,2435.8,810.625Z" transform="translate(-2384.996 -788.092)" fill="#0b2252"/>
          </g>
          <g id="Group_8113" data-name="Group 8113" transform="translate(16.815)">
            <path id="Path_24518" data-name="Path 24518" d="M2342.32,721.874l.047,3.152-.47-.015s-.377,2.608-2.219,2.2c-.529-.118-1.2-.566-1.4-.477-.231.106-.331.82-.383,1.026-.2.79-2.964-.008-2.516-.817.425-.768,1.06-1.817.925-2.108a3.192,3.192,0,0,1,1.938-4.382C2340.266,719.777,2342.3,720.8,2342.32,721.874Z" transform="translate(-2334.641 -718.677)" fill="#ffaa9d"/>
            <path id="Path_24519" data-name="Path 24519" d="M2335.379,737.673c.425-.768,1.06-1.817.925-2.108,0,0,1.066,1.64,2.051,1.888l0,0a.184.184,0,0,0-.082.009c-.231.106-.331.82-.383,1.026C2337.695,739.281,2334.931,738.483,2335.379,737.673Z" transform="translate(-2334.641 -729.41)" fill="#ff9f91"/>
            <path id="Path_24520" data-name="Path 24520" d="M2336.449,719.785c-1.187-.2-.45,2.442-1.758,2.354s-2.22-2.947-1.26-5.151,2.785-2.082,4.524-1.781,3.873,1.087,3.872,2.4c0,3.166-3.749.51-4,1.462-.191.736-.486,2.865.277,2.915s1.541-.581,2.144-.419c.347.093,1.3,4.245-1.194,4.384-2.47.137-3.095-2.043-2.574-3.823C2336.978,720.433,2337.027,719.883,2336.449,719.785Z" transform="translate(-2333.033 -715.041)" fill="#14336a"/>
          </g>
        </g>
      </g>
    </g>
  </g>
</svg>
