<svg xmlns="http://www.w3.org/2000/svg" width="150" height="150" viewBox="0 0 150 150">
  <g id="page-not-found" transform="translate(-113 -209)">
    <rect id="Rectangle_8793" data-name="Rectangle 8793" width="150" height="150" transform="translate(113 209)" fill="#8c8c8c" opacity="0"/>
    <g id="Group_8089" data-name="Group 8089" transform="translate(-1625.539 -429.56)">
      <g id="Group_8081" data-name="Group 8081" transform="translate(1747.539 660.56)">
        <path id="Path_24374" data-name="Path 24374" d="M2910.028,1604.535a.209.209,0,0,0-.287-.074l-.695.41-.411-.695a.209.209,0,0,0-.36.213l.411.695-.695.41a.209.209,0,0,0,.054.383.208.208,0,0,0,.159-.023l.695-.411.411.695a.21.21,0,0,0,.221.1.206.206,0,0,0,.066-.025.21.21,0,0,0,.074-.287l-.411-.695.695-.411A.209.209,0,0,0,2910.028,1604.535Z" transform="translate(-2806.674 -1521.774)" fill="#dedede"/>
        <path id="Path_24375" data-name="Path 24375" d="M2943.069,1643a.912.912,0,1,1,.912-.912A.913.913,0,0,1,2943.069,1643Zm0-1.337a.425.425,0,1,0,.425.425A.425.425,0,0,0,2943.069,1641.665Z" transform="translate(-2837.954 -1555.641)" fill="#dedede"/>
        <path id="Path_24376" data-name="Path 24376" d="M1886.835,1796.481a.912.912,0,1,1,.912-.912A.913.913,0,0,1,1886.835,1796.481Zm0-1.336a.425.425,0,1,0,.425.424A.425.425,0,0,0,1886.835,1795.145Z" transform="translate(-1873.852 -1695.733)" fill="#dedede"/>
        <path id="Path_24377" data-name="Path 24377" d="M3044.878,671.945a.912.912,0,1,1,.912-.912A.913.913,0,0,1,3044.878,671.945Zm0-1.337a.425.425,0,1,0,.425.425A.425.425,0,0,0,3044.878,670.608Z" transform="translate(-2930.882 -669.287)" fill="#dedede"/>
        <path id="Path_24378" data-name="Path 24378" d="M3227.3,955.659a.209.209,0,0,0-.1.28l.354.725-.726.353a.209.209,0,0,0,.184.376l.725-.354.353.725a.21.21,0,0,0,.28.1.209.209,0,0,0,.1-.28l-.354-.725.726-.354a.209.209,0,0,0,.116-.212.207.207,0,0,0-.02-.068.21.21,0,0,0-.28-.1l-.726.353-.354-.725A.21.21,0,0,0,3227.3,955.659Z" transform="translate(-3097.686 -929.899)" fill="#dedede"/>
        <path id="Path_24379" data-name="Path 24379" d="M3072.8,1135.81a.912.912,0,1,1,.912-.912A.913.913,0,0,1,3072.8,1135.81Zm0-1.337a.425.425,0,1,0,.425.425A.425.425,0,0,0,3072.8,1134.473Z" transform="translate(-2956.368 -1092.69)" fill="#dedede"/>
        <path id="Path_24380" data-name="Path 24380" d="M1747.651,1300.1a.209.209,0,0,0-.01.3l.552.589-.589.552a.209.209,0,0,0,.286.305l.589-.552.552.589a.209.209,0,1,0,.305-.286l-.552-.589.589-.552a.21.21,0,0,0,.048-.237.214.214,0,0,0-.039-.059.21.21,0,0,0-.3-.01l-.589.552-.552-.589A.21.21,0,0,0,1747.651,1300.1Z" transform="translate(-1747.539 -1244.26)" fill="#dedede"/>
        <path id="Path_24381" data-name="Path 24381" d="M1842.323,1396.58a.912.912,0,1,1,.912-.912A.913.913,0,0,1,1842.323,1396.58Zm0-1.336a.425.425,0,1,0,.425.425A.425.425,0,0,0,1842.323,1395.243Z" transform="translate(-1833.223 -1330.714)" fill="#dedede"/>
        <g id="Group_8080" data-name="Group 8080" transform="translate(1.301 0)">
          <g id="Group_8078" data-name="Group 8078" transform="translate(0 49.994)">
            <path id="Path_24382" data-name="Path 24382" d="M1785.958,1278.249a.186.186,0,0,1-.01-.371c.612-.034,1.232-.1,1.842-.182a.186.186,0,1,1,.052.368c-.62.088-1.25.15-1.873.185Zm-2.611-.008h-.012c-.624-.039-1.253-.105-1.871-.2a.186.186,0,1,1,.055-.367c.607.09,1.226.156,1.839.194a.186.186,0,0,1-.011.371Zm7.028-.69a.186.186,0,0,1-.047-.365c.595-.156,1.19-.339,1.768-.544a.186.186,0,0,1,.124.35c-.588.208-1.193.395-1.8.553A.187.187,0,0,1,1790.375,1277.551Zm-11.44-.043a.188.188,0,0,1-.049-.007c-.6-.165-1.206-.357-1.792-.572a.186.186,0,1,1,.128-.349c.577.211,1.17.4,1.762.563a.186.186,0,0,1-.049.365Zm15.628-1.523a.186.186,0,0,1-.082-.352c.55-.273,1.1-.572,1.621-.891a.186.186,0,1,1,.192.318c-.534.324-1.089.628-1.649.906A.184.184,0,0,1,1794.563,1275.985Zm-19.8-.086a.187.187,0,0,1-.084-.02c-.557-.282-1.109-.592-1.641-.921a.186.186,0,0,1,.2-.316c.523.323,1.066.628,1.614.905a.186.186,0,0,1-.084.351Zm23.583-2.295a.186.186,0,0,1-.114-.332c.484-.378.957-.782,1.408-1.2a.186.186,0,0,1,.253.272c-.458.425-.94.836-1.432,1.22A.185.185,0,0,1,1798.345,1273.6Zm-27.347-.118a.185.185,0,0,1-.115-.04c-.49-.389-.969-.8-1.423-1.23a.186.186,0,0,1,.254-.271c.447.421.918.828,1.4,1.21a.186.186,0,0,1-.115.331Zm30.572-2.978a.186.186,0,0,1-.141-.306c.4-.468.781-.959,1.138-1.459a.186.186,0,0,1,.3.216c-.363.508-.753,1.007-1.157,1.483A.186.186,0,0,1,1801.57,1270.508Zm-33.776-.14a.185.185,0,0,1-.142-.066c-.4-.479-.788-.981-1.147-1.491a.186.186,0,1,1,.3-.214c.353.5.732,1,1.128,1.466a.186.186,0,0,1-.142.3Zm36.315-3.541a.186.186,0,0,1-.162-.275c.3-.538.573-1.1.823-1.657a.186.186,0,0,1,.339.151c-.254.571-.536,1.137-.837,1.685A.186.186,0,0,1,1804.11,1266.828Zm-38.826-.159a.186.186,0,0,1-.164-.1c-.3-.55-.572-1.12-.821-1.693a.186.186,0,1,1,.341-.148c.244.564.516,1.124.807,1.664a.186.186,0,0,1-.163.274Zm40.576-3.956a.186.186,0,0,1-.177-.241c.182-.587.341-1.189.473-1.789a.186.186,0,1,1,.363.08c-.134.61-.3,1.222-.481,1.819A.186.186,0,0,1,1805.86,1262.713Zm-42.285-.176a.186.186,0,0,1-.178-.133c-.178-.6-.334-1.21-.463-1.823a.186.186,0,0,1,.363-.076c.127.6.28,1.206.455,1.793a.186.186,0,0,1-.125.231A.189.189,0,0,1,1763.575,1262.537Zm43.169-4.209h-.018a.186.186,0,0,1-.167-.2c.059-.611.093-1.232.1-1.847a.186.186,0,1,1,.371,0c-.007.625-.042,1.257-.1,1.879A.186.186,0,0,1,1806.745,1258.328Zm-44.016-.182a.186.186,0,0,1-.185-.169c-.056-.623-.087-1.255-.09-1.879a.186.186,0,0,1,.185-.187h0a.186.186,0,0,1,.186.185c0,.614.033,1.236.089,1.848a.186.186,0,0,1-.168.2Zm43.993-4.289a.186.186,0,0,1-.184-.166c-.065-.609-.157-1.225-.273-1.83l0-.024a.186.186,0,0,1,.365-.071l0,.024c.118.615.212,1.241.278,1.861a.186.186,0,0,1-.165.2Zm-43.941-.184h-.021a.186.186,0,0,1-.163-.205c.071-.621.169-1.246.292-1.859a.186.186,0,1,1,.364.073c-.121.6-.218,1.217-.287,1.828A.185.185,0,0,1,1762.78,1253.673Zm43.017-4.216a.186.186,0,0,1-.177-.129c-.186-.586-.4-1.171-.635-1.738a.186.186,0,1,1,.343-.142c.239.576.456,1.171.645,1.767a.186.186,0,0,1-.121.233A.188.188,0,0,1,1805.8,1249.457Zm-42.062-.153a.184.184,0,0,1-.058-.009.186.186,0,0,1-.119-.234c.195-.593.418-1.186.662-1.761a.186.186,0,1,1,.342.145c-.24.566-.459,1.148-.651,1.732A.186.186,0,0,1,1763.736,1249.3Zm40.281-3.948a.185.185,0,0,1-.162-.095c-.3-.536-.628-1.065-.973-1.573a.186.186,0,1,1,.307-.208c.351.517.684,1.055.99,1.6a.186.186,0,0,1-.162.277Zm-38.464-.138a.186.186,0,0,1-.161-.278c.31-.542.647-1.078,1-1.593a.186.186,0,1,1,.306.211c-.349.506-.68,1.033-.985,1.566A.186.186,0,0,1,1765.553,1245.218Zm35.891-3.517a.185.185,0,0,1-.14-.064c-.4-.464-.83-.916-1.271-1.344a.186.186,0,1,1,.259-.266c.448.436.883.9,1.293,1.367a.186.186,0,0,1-.14.307Zm-33.292-.122a.186.186,0,0,1-.139-.308c.413-.469.85-.927,1.3-1.36a.186.186,0,1,1,.257.268c-.443.426-.873.875-1.279,1.337A.185.185,0,0,1,1768.152,1241.579Zm30.034-2.94a.186.186,0,0,1-.113-.038c-.488-.374-1-.731-1.515-1.062a.186.186,0,1,1,.2-.312c.526.337,1.044.7,1.54,1.08a.186.186,0,0,1-.113.333Zm-26.759-.1a.186.186,0,0,1-.112-.333c.5-.377,1.019-.737,1.548-1.07a.186.186,0,1,1,.2.314c-.52.328-1.031.681-1.522,1.052A.185.185,0,0,1,1771.427,1238.536Zm22.954-2.245a.186.186,0,0,1-.081-.019c-.553-.269-1.124-.517-1.7-.737a.186.186,0,1,1,.133-.346c.583.224,1.163.477,1.726.75a.186.186,0,0,1-.081.353Zm-19.131-.073a.186.186,0,0,1-.08-.353c.564-.268,1.147-.515,1.732-.734a.186.186,0,1,1,.13.348c-.576.215-1.149.458-1.7.721A.184.184,0,0,1,1775.25,1236.218Zm14.931-1.463a.184.184,0,0,1-.046-.006c-.6-.151-1.2-.279-1.811-.38a.186.186,0,1,1,.061-.366c.616.1,1.236.232,1.842.386a.186.186,0,0,1-.046.365Zm-10.719-.034a.186.186,0,0,1-.044-.366c.369-.09.746-.173,1.121-.245.239-.046.483-.089.723-.127a.186.186,0,1,1,.058.367c-.237.038-.476.08-.711.125-.369.071-.74.152-1.1.241A.191.191,0,0,1,1779.462,1234.72Zm6.294-.622h-.009c-.325-.015-.655-.022-.98-.022-.288,0-.581.006-.87.017a.186.186,0,0,1-.015-.371c.294-.012.591-.018.885-.018.331,0,.666.008,1,.022a.186.186,0,0,1-.008.371Z" transform="translate(-1762.454 -1233.705)" fill="#dedede"/>
          </g>
          <g id="Group_8079" data-name="Group 8079" transform="translate(48.897)">
            <path id="Path_24383" data-name="Path 24383" d="M2364.355,738.235l-.32.019a.186.186,0,0,1-.023-.371h0c.607-.034,1.221-.083,1.827-.146a.186.186,0,0,1,.038.369C2365.374,738.159,2364.861,738.2,2364.355,738.235Zm-2.9.079h-.014c-.614-.006-1.236-.027-1.849-.063a.186.186,0,1,1,.021-.371c.607.035,1.223.056,1.831.062a.186.186,0,0,1,.01.371Zm6.966-.557a.186.186,0,0,1-.043-.368c.6-.1,1.205-.22,1.8-.35a.186.186,0,0,1,.08.363c-.6.131-1.209.25-1.816.354Zm-11.372.26a.177.177,0,0,1-.035,0c-.61-.076-1.225-.169-1.83-.274a.186.186,0,1,1,.064-.366c.6.1,1.208.2,1.812.271a.186.186,0,0,1-.011.369Zm15.676-1.248a.186.186,0,0,1-.063-.364c.584-.17,1.172-.356,1.747-.553a.186.186,0,1,1,.12.351c-.581.2-1.174.387-1.764.558A.182.182,0,0,1,2372.73,736.769Zm-20.023.446a.186.186,0,0,1-.056-.005c-.6-.146-1.2-.309-1.789-.483a.186.186,0,0,1,.105-.356c.585.173,1.181.334,1.772.479a.186.186,0,0,1-.032.366Zm24.187-1.919a.186.186,0,0,1-.084-.356c.561-.236,1.124-.488,1.672-.749a.186.186,0,1,1,.16.335c-.554.264-1.122.519-1.688.757A.184.184,0,0,1,2376.893,735.3Zm-28.415.623a.184.184,0,0,1-.076-.011c-.576-.214-1.155-.444-1.721-.685a.186.186,0,0,1,.146-.342c.56.239,1.134.467,1.7.678a.186.186,0,0,1-.053.359Zm32.38-2.562a.186.186,0,0,1-.1-.347c.529-.3,1.057-.612,1.572-.934a.186.186,0,0,1,.2.314c-.519.326-1.053.643-1.587.943A.186.186,0,0,1,2380.858,733.357Zm-36.43.791a.186.186,0,0,1-.1-.02c-.548-.278-1.1-.573-1.631-.876a.186.186,0,0,1,.184-.323c.529.3,1.072.593,1.615.868a.186.186,0,0,1-.072.351Zm40.144-3.17a.186.186,0,0,1-.121-.335c.492-.356.981-.729,1.456-1.109a.186.186,0,0,1,.232.29c-.479.383-.973.76-1.47,1.119A.184.184,0,0,1,2384.572,730.978Zm-43.965.951a.184.184,0,0,1-.114-.03c-.513-.338-1.025-.693-1.52-1.055a.186.186,0,1,1,.219-.3c.491.358,1,.71,1.506,1.045a.186.186,0,0,1-.09.34Zm47.385-3.74a.186.186,0,0,1-.137-.322c.448-.41.893-.837,1.321-1.268a.186.186,0,1,1,.263.262c-.433.435-.881.866-1.334,1.28A.186.186,0,0,1,2387.991,728.189Zm-50.928,1.1a.185.185,0,0,1-.131-.043c-.471-.394-.938-.8-1.39-1.22a.186.186,0,0,1,.251-.273c.447.412.911.818,1.377,1.208a.186.186,0,0,1-.107.328Zm54.01-4.264a.186.186,0,0,1-.152-.307c.4-.459.792-.933,1.17-1.41a.186.186,0,1,1,.291.23c-.38.482-.778.961-1.18,1.424A.186.186,0,0,1,2391.074,725.028Zm-57.231,1.243a.185.185,0,0,1-.147-.057c-.423-.445-.841-.905-1.242-1.369a.186.186,0,1,1,.281-.243c.4.459.811.916,1.23,1.356a.186.186,0,0,1-.122.313Zm59.936-4.734a.184.184,0,0,1-.117-.032.186.186,0,0,1-.048-.258c.345-.5.682-1.018,1-1.534a.186.186,0,1,1,.315.2c-.323.522-.664,1.043-1.012,1.549A.185.185,0,0,1,2393.779,721.536Zm-62.792,1.369a.186.186,0,0,1-.16-.073c-.369-.489-.731-.994-1.077-1.5a.186.186,0,1,1,.307-.209c.342.5.7,1,1.067,1.486a.186.186,0,0,1-.136.3Zm65.084-5.145a.186.186,0,0,1-.176-.273c.286-.538.563-1.089.822-1.639a.186.186,0,0,1,.336.159c-.262.555-.541,1.112-.83,1.655A.185.185,0,0,1,2396.072,717.76Zm-67.536,1.478a.186.186,0,0,1-.172-.091c-.311-.528-.613-1.07-.9-1.613a.186.186,0,1,1,.329-.173c.282.537.582,1.074.889,1.6a.186.186,0,0,1-.148.279Zm69.385-5.493a.185.185,0,0,1-.185-.253c.223-.567.435-1.147.63-1.723a.186.186,0,1,1,.352.119c-.2.582-.411,1.167-.636,1.74A.186.186,0,0,1,2397.921,713.745Zm-71.4,1.568a.185.185,0,0,1-.182-.11c-.249-.561-.487-1.136-.708-1.709a.186.186,0,1,1,.346-.134c.219.567.456,1.137.7,1.693a.186.186,0,0,1-.095.245A.183.183,0,0,1,2326.519,715.313Zm72.781-5.769a.188.188,0,0,1-.06-.006.185.185,0,0,1-.132-.227c.156-.589.3-1.19.428-1.785a.186.186,0,0,1,.363.078c-.129.6-.275,1.208-.433,1.8A.186.186,0,0,1,2399.3,709.544Zm-74.334,1.635a.186.186,0,0,1-.189-.13c-.182-.586-.354-1.184-.508-1.779a.186.186,0,1,1,.359-.094c.153.589.323,1.181.5,1.762a.186.186,0,0,1-.122.232A.182.182,0,0,1,2324.965,711.179Zm75.221-5.965a.178.178,0,0,1-.039,0,.186.186,0,0,1-.157-.211c.088-.6.162-1.213.22-1.819a.186.186,0,1,1,.369.036c-.059.611-.134,1.229-.222,1.836A.186.186,0,0,1,2400.187,705.213Zm-76.292,1.681a.186.186,0,0,1-.194-.151c-.115-.6-.217-1.216-.3-1.825a.186.186,0,0,1,.368-.052c.085.6.187,1.211.3,1.808a.185.185,0,0,1-.148.217Zm76.676-6.081h-.018a.186.186,0,0,1-.18-.191c.018-.608.021-1.224.01-1.832a.186.186,0,1,1,.371-.007c.011.614.008,1.236-.011,1.85A.185.185,0,0,1,2400.571,700.814Zm-77.257,1.7a.186.186,0,0,1-.2-.171q-.016-.217-.031-.434c-.03-.469-.052-.945-.066-1.414a.185.185,0,1,1,.371-.01c.013.465.035.936.065,1.4q.014.215.03.43a.186.186,0,0,1-.171.2Zm77.135-6.117a.185.185,0,0,1-.2-.17c-.051-.6-.117-1.218-.2-1.822l-.008-.059a.186.186,0,0,1,.368-.049l.008.06c.08.61.147,1.229.2,1.839a.186.186,0,0,1-.169.2Zm-77.218,1.7h-.02a.185.185,0,0,1-.178-.193c.023-.614.062-1.235.115-1.846a.186.186,0,1,1,.37.032c-.052.606-.09,1.221-.114,1.829A.185.185,0,0,1,2323.23,698.1Zm76.588-6.133a.186.186,0,0,1-.194-.149c-.12-.6-.256-1.2-.4-1.787a.186.186,0,1,1,.36-.09c.149.6.286,1.2.407,1.8a.186.186,0,0,1-.146.219Zm-76.167,1.737a.191.191,0,0,1-.041,0,.185.185,0,0,1-.155-.212c.094-.608.2-1.222.327-1.825a.186.186,0,1,1,.364.074c-.122.6-.231,1.206-.324,1.808A.186.186,0,0,1,2323.652,693.7Zm75.052-6.01a.186.186,0,0,1-.188-.128c-.187-.579-.39-1.161-.6-1.73a.186.186,0,0,1,.347-.131c.216.574.422,1.162.61,1.746a.186.186,0,0,1-.165.242Zm-74.127,1.684a.183.183,0,0,1-.061-.006.186.186,0,0,1-.13-.228c.163-.593.343-1.19.534-1.774a.186.186,0,1,1,.353.115c-.189.579-.367,1.17-.529,1.758A.186.186,0,0,1,2324.578,689.377Zm72.531-5.8a.186.186,0,0,1-.181-.108c-.252-.554-.521-1.108-.8-1.649a.186.186,0,1,1,.33-.17c.281.546.552,1.106.807,1.665a.186.186,0,0,1-.157.262Zm-71.116,1.612a.186.186,0,0,1-.184-.255c.23-.57.477-1.142.733-1.7a.186.186,0,1,1,.337.155c-.254.553-.5,1.12-.726,1.684A.186.186,0,0,1,2325.993,685.188Zm69.059-5.517a.186.186,0,0,1-.171-.089c-.313-.52-.643-1.039-.981-1.544a.186.186,0,1,1,.308-.207c.341.509.674,1.034.99,1.559a.186.186,0,0,1-.147.281Zm-67.175,1.519a.186.186,0,0,1-.175-.274c.293-.54.6-1.08.922-1.605a.186.186,0,1,1,.317.192c-.315.521-.623,1.056-.913,1.59A.185.185,0,0,1,2327.877,681.189Zm64.686-5.161a.186.186,0,0,1-.159-.072c-.371-.481-.759-.96-1.152-1.423a.186.186,0,1,1,.283-.24c.4.467.788.95,1.163,1.436a.186.186,0,0,1-.135.3Zm-62.36,1.4a.184.184,0,0,1-.118-.033.186.186,0,0,1-.046-.258c.352-.5.722-1,1.1-1.49a.186.186,0,0,1,.294.227c-.372.481-.738.978-1.087,1.476A.185.185,0,0,1,2330.2,677.432Zm59.471-4.74a.186.186,0,0,1-.146-.056c-.423-.436-.863-.868-1.306-1.283a.186.186,0,1,1,.254-.271c.448.419.892.855,1.319,1.3a.186.186,0,0,1-.121.315Zm-56.735,1.272a.186.186,0,0,1-.151-.308c.407-.46.83-.916,1.258-1.355a.186.186,0,1,1,.266.259c-.424.435-.843.887-1.246,1.342A.186.186,0,0,1,2332.938,673.965Zm53.484-4.26a.185.185,0,0,1-.13-.042c-.47-.385-.956-.765-1.444-1.128a.186.186,0,1,1,.222-.3c.493.366.983.749,1.458,1.138a.186.186,0,0,1-.106.329Zm-50.374,1.126a.186.186,0,0,1-.136-.323c.456-.41.928-.815,1.4-1.2a.186.186,0,1,1,.235.288c-.47.384-.938.785-1.39,1.191A.185.185,0,0,1,2336.049,670.83Zm46.8-3.728a.186.186,0,0,1-.113-.029c-.511-.33-1.037-.652-1.563-.957a.186.186,0,0,1,.186-.321c.531.308,1.063.633,1.578.966a.186.186,0,0,1-.089.341Zm-43.359.969a.186.186,0,0,1-.12-.336c.5-.355,1.014-.7,1.53-1.034a.186.186,0,0,1,.2.312c-.511.328-1.021.673-1.516,1.024A.184.184,0,0,1,2339.493,668.071Zm39.516-3.149a.184.184,0,0,1-.094-.019c-.546-.27-1.105-.53-1.663-.773a.186.186,0,1,1,.148-.34c.563.246,1.128.509,1.679.781a.186.186,0,0,1-.071.352Zm-35.781.8a.186.186,0,0,1-.1-.348c.538-.3,1.09-.584,1.641-.854a.186.186,0,1,1,.164.333c-.546.268-1.093.552-1.625.846A.185.185,0,0,1,2343.228,665.725Zm31.713-2.532a.184.184,0,0,1-.074-.011c-.573-.206-1.16-.4-1.742-.579a.186.186,0,0,1,.109-.355c.588.18,1.179.376,1.759.584a.186.186,0,0,1-.051.36Zm-27.729.627a.186.186,0,0,1-.082-.357c.568-.232,1.149-.454,1.728-.66a.186.186,0,0,1,.124.35c-.574.2-1.15.423-1.712.653A.186.186,0,0,1,2347.212,663.819Zm23.488-1.88a.186.186,0,0,1-.054,0c-.594-.139-1.2-.265-1.8-.375a.186.186,0,1,1,.067-.365c.6.111,1.216.239,1.815.379a.186.186,0,0,1-.03.366Zm-19.312.444a.186.186,0,0,1-.062-.364c.591-.166,1.193-.32,1.792-.458a.186.186,0,1,1,.083.362c-.593.137-1.19.289-1.775.453A.2.2,0,0,1,2351.388,662.384Zm14.957-1.2a.187.187,0,0,1-.033,0c-.6-.069-1.218-.125-1.825-.166a.186.186,0,0,1,.025-.37c.613.041,1.233.1,1.843.167a.186.186,0,0,1-.009.37Zm-10.644.251a.186.186,0,0,1-.042-.369c.378-.061.762-.117,1.143-.168.229-.03.461-.059.69-.085a.186.186,0,1,1,.042.369c-.227.026-.457.054-.683.084-.377.05-.758.106-1.133.166Zm6.235-.5h-.012c-.607,0-1.223.015-1.832.044a.186.186,0,0,1-.021-.371h0c.614-.029,1.236-.044,1.849-.044a.186.186,0,0,1,.012.371Z" transform="translate(-2323.02 -660.56)" fill="#dedede"/>
          </g>
        </g>
      </g>
      <g id="Group_8084" data-name="Group 8084" transform="translate(1781.787 665.892)">
        <g id="Group_8082" data-name="Group 8082" transform="translate(0 0)">
          <path id="Path_24384" data-name="Path 24384" d="M2201.136,739.439V803.3h-.168l-4.835-4.7-4.835,4.7h-.5l-4.835-4.7-4.836,4.7h-.5l-4.827-4.7-4.826,4.7h-.494l-4.832-4.7-4.832,4.7h-.51l-4.832-4.7-4.832,4.7h-.5l-4.823-4.692-4.823,4.692h-.319V721.69h43.214Z" transform="translate(-2140.174 -721.69)" fill="#f2f2f2"/>
          <path id="Path_24385" data-name="Path 24385" d="M2653.342,739.439h-17.749V721.69Z" transform="translate(-2592.379 -721.69)" fill="#dedede"/>
        </g>
        <g id="Group_8083" data-name="Group 8083" transform="translate(7.52 33.535)">
          <path id="Path_24386" data-name="Path 24386" d="M2235.273,1123.582v-2.388h-6.446a2.649,2.649,0,0,1-1.83-.552,1.925,1.925,0,0,1-.61-1.5,1.459,1.459,0,0,1,.09-.494,2.575,2.575,0,0,1,.27-.526q.18-.276.372-.533t.475-.629l6.805-9.1a10.367,10.367,0,0,1,1.1-1.3,1.455,1.455,0,0,1,1.034-.4q1.951,0,1.952,2.234v9.938h.552a3.9,3.9,0,0,1,1.586.27,1.156,1.156,0,0,1,.6,1.181,1.23,1.23,0,0,1-.488,1.085,2.568,2.568,0,0,1-1.464.34h-.783v2.388a2.133,2.133,0,0,1-.437,1.47,1.635,1.635,0,0,1-2.331-.013A2.119,2.119,0,0,1,2235.273,1123.582Zm-5.521-5.265h5.521v-7.46Z" transform="translate(-2226.388 -1106.145)" fill="#2a003f"/>
          <path id="Path_24387" data-name="Path 24387" d="M2429.135,1117.055a22.018,22.018,0,0,1-.257,3.621,8.437,8.437,0,0,1-.95,2.748,6.311,6.311,0,0,1-2.26,2.337,6.138,6.138,0,0,1-6.581-.282,6.719,6.719,0,0,1-2.331-3.056,11.37,11.37,0,0,1-.584-2.356,19.539,19.539,0,0,1-.186-2.793,26.831,26.831,0,0,1,.205-3.492,11.54,11.54,0,0,1,.642-2.671,5.746,5.746,0,0,1,5.65-3.788,6.433,6.433,0,0,1,2.4.43,5.477,5.477,0,0,1,1.894,1.258,7.2,7.2,0,0,1,1.38,2.048A14.728,14.728,0,0,1,2429.135,1117.055Zm-3.518-.257a21.394,21.394,0,0,0-.282-3.845,4.738,4.738,0,0,0-.95-2.26,2.328,2.328,0,0,0-1.849-.764,2.376,2.376,0,0,0-2.356,1.708,15.566,15.566,0,0,0-.661,5.264,22.641,22.641,0,0,0,.282,3.955,4.968,4.968,0,0,0,.95,2.33,2.481,2.481,0,0,0,3.659-.032,5.1,5.1,0,0,0,.938-2.35A23.941,23.941,0,0,0,2425.617,1116.8Z" transform="translate(-2399.449 -1107.219)" fill="#2a003f"/>
          <path id="Path_24388" data-name="Path 24388" d="M2593.569,1123.582v-2.388h-6.446a2.649,2.649,0,0,1-1.83-.552,1.925,1.925,0,0,1-.61-1.5,1.453,1.453,0,0,1,.09-.494,2.561,2.561,0,0,1,.27-.526q.18-.276.373-.533t.475-.629l6.805-9.1a10.367,10.367,0,0,1,1.1-1.3,1.455,1.455,0,0,1,1.034-.4q1.952,0,1.952,2.234v9.938h.552a3.9,3.9,0,0,1,1.586.27,1.156,1.156,0,0,1,.6,1.181,1.23,1.23,0,0,1-.488,1.085,2.567,2.567,0,0,1-1.464.34h-.783v2.388a2.133,2.133,0,0,1-.437,1.47,1.635,1.635,0,0,1-2.33-.013A2.119,2.119,0,0,1,2593.569,1123.582Zm-5.521-5.265h5.521v-7.46Z" transform="translate(-2553.431 -1106.145)" fill="#2a003f"/>
        </g>
      </g>
      <g id="Group_8088" data-name="Group 8088" transform="translate(1775.205 729.66)">
        <g id="Group_8087" data-name="Group 8087" transform="translate(0 0)">
          <path id="Path_24389" data-name="Path 24389" d="M2298.383,1686.419h0a2.15,2.15,0,0,1-3.041,0l-13.055-13.056-1.659-1.659a10.724,10.724,0,0,0,3.041-3.041l14.715,14.715A2.15,2.15,0,0,1,2298.383,1686.419Z" transform="translate(-2261.794 -1649.83)" fill="#9c9c9c"/>
          <path id="Path_24390" data-name="Path 24390" d="M2291.252,1676.244l3.4,3.4a10.727,10.727,0,0,1-3.04,3.041h0l-1.743-1.743-1.659-1.659A10.721,10.721,0,0,0,2291.252,1676.244Z" transform="translate(-2268.717 -1656.749)" fill="#5e5e5e"/>
          <g id="Group_8086" data-name="Group 8086">
            <path id="Path_24391" data-name="Path 24391" d="M2090.637,1465.155a12.969,12.969,0,0,0-25.926.559,13.162,13.162,0,0,0,.082,1.467,12.867,12.867,0,0,0,1.241,4.246h0a13.02,13.02,0,0,0,3.956,4.731q.407.3.838.569a12.976,12.976,0,0,0,14.375-.448h0a13.041,13.041,0,0,0,3.041-3.04h0a12.913,12.913,0,0,0,2.4-7.524Q2090.649,1465.433,2090.637,1465.155Zm-12.957,11.221a10.65,10.65,0,0,1-10.662-10.661,10.668,10.668,0,0,1,12.053-10.572,10.663,10.663,0,0,1,9.271,10.572q0,.244-.011.484a10.6,10.6,0,0,1-1.745,5.38,10.679,10.679,0,0,1-3.96,3.583,10.623,10.623,0,0,1-4.946,1.214Z" transform="translate(-2064.711 -1452.745)" fill="#b8b8b8"/>
            <g id="Group_8085" data-name="Group 8085" transform="translate(3.9 3.9)">
              <path id="Path_24392" data-name="Path 24392" d="M2110.414,1507.7a1,1,0,0,1-1-1,9.246,9.246,0,0,1,9.246-9.246,1,1,0,0,1,0,1.991,7.255,7.255,0,0,0-7.255,7.255A1,1,0,0,1,2110.414,1507.7Z" transform="translate(-2109.418 -1497.455)" fill="#fff"/>
            </g>
          </g>
        </g>
      </g>
    </g>
  </g>
</svg>
