<svg xmlns="http://www.w3.org/2000/svg" xmlns:xlink="http://www.w3.org/1999/xlink" width="86" height="86" viewBox="0 0 86 86">
  <defs>
    <clipPath id="clip-path">
      <circle id="Ellipse_496" data-name="Ellipse 496" cx="41" cy="41" r="41" transform="translate(0.157 0.157)" fill="#7c7c7c"/>
    </clipPath>
  </defs>
  <g id="user_pict1" transform="translate(-1364 559)">
    <circle id="Ellipse_495" data-name="Ellipse 495" cx="43" cy="43" r="43" transform="translate(1364 -559)" fill="#ff4100"/>
    <g id="Mask_Group_13" data-name="Mask Group 13" transform="translate(1365.843 -557.157)" clip-path="url(#clip-path)">
      <g id="Group_3551" data-name="Group 3551" transform="translate(5.529 3.81)">
        <g id="Group_92" data-name="Group 92" transform="translate(16.105 28.125)">
          <g id="Group_90" data-name="Group 90" transform="translate(8.512 11.713)">
            <path id="Path_207" data-name="Path 207" d="M101.9,128.778s-7.048,4.443-3.217,11.184,30.336,4.9,16.7-11.184C104.122,115.489,101.9,128.778,101.9,128.778Z" transform="translate(-97.546 -122.872)" fill="#76413b"/>
          </g>
          <g id="Group_91" data-name="Group 91" transform="translate(0 0)">
            <path id="Path_208" data-name="Path 208" d="M137.928,97.848s-3.064,3.677-2.451,7.354c.882,5.292-7.2,12.257-15.475,9.959s.613-17.773.613-17.773Z" transform="translate(-99.264 -97.388)" fill="#76413b"/>
            <path id="Path_209" data-name="Path 209" d="M79.027,97.848s3.064,3.677,2.451,7.354c-.882,5.292,7.2,12.257,15.475,9.959s-.613-17.773-.613-17.773Z" transform="translate(-79.027 -97.388)" fill="#76413b"/>
            <path id="Path_210" data-name="Path 210" d="M120.324,109.422a23.338,23.338,0,0,0,11.031-2.38,11.789,11.789,0,0,0,4.128-3.636,12.2,12.2,0,0,1,2.478-5.558l-17.313-.46s-3.768,6.565-4.11,11.778A37.045,37.045,0,0,0,120.324,109.422Z" transform="translate(-99.297 -97.388)" fill="#965450"/>
            <path id="Path_211" data-name="Path 211" d="M81.547,104.56a41.55,41.55,0,0,0,18.507,4.862c.137,0,.273,0,.409,0-.233-5.251-4.123-12.029-4.123-12.029l-17.313.46S81.742,101.109,81.547,104.56Z" transform="translate(-79.027 -97.388)" fill="#965450"/>
          </g>
        </g>
        <g id="Group_96" data-name="Group 96" transform="translate(0 41.005)">
          <g id="Group_93" data-name="Group 93" transform="translate(0.544)">
            <path id="Path_212" data-name="Path 212" d="M89.324,137.816c-3.9-2.127-2.835-12.406-2.835-12.406l-5.839.376v-.375l-.625.188-.625-.188v.375l-5.839-.376s1.063,10.279-2.835,12.406-27.856,3.19-25.375,26.936H114.7C117.18,141.006,93.222,139.942,89.324,137.816Z" transform="translate(-45.171 -125.41)" fill="#ffac9d"/>
            <path id="Path_213" data-name="Path 213" d="M105.157,135.164q7-1.043,13.982-2.152a31.175,31.175,0,0,1-.236-7.6l-5.839.376v-.375l-.625.188-.625-.188v.375l-5.839-.376S106.591,131.383,105.157,135.164Z" transform="translate(-77.585 -125.41)" fill="#cc887f"/>
          </g>
          <g id="Group_95" data-name="Group 95" transform="translate(0 14.235)">
            <path id="Path_214" data-name="Path 214" d="M96.614,156.38a24.764,24.764,0,0,1-14.2,5.789l-3.1,11.149L77.68,162.257c-6.23-.36-11.717-2.579-15.357-5.877-8.1,2.594-19.922,8.218-18.158,25.107h70.607C116.536,164.6,104.71,158.974,96.614,156.38Z" transform="translate(-43.988 -156.38)" fill="#5d8584"/>
            <g id="Group_94" data-name="Group 94" transform="translate(14.04)">
              <path id="Path_215" data-name="Path 215" d="M94.606,165.093l-.42-2.836c-6.23-.36-11.717-2.579-15.357-5.877a41.15,41.15,0,0,0-4.295,1.628C77.405,161.911,85.22,164.783,94.606,165.093Z" transform="translate(-74.534 -156.38)" fill="#78a8a5"/>
              <path id="Path_216" data-name="Path 216" d="M145.607,158.224a40.116,40.116,0,0,0-4.771-1.844,24.764,24.764,0,0,1-14.2,5.789l-.811,2.92C134.982,164.762,142.625,162,145.607,158.224Z" transform="translate(-102.251 -156.38)" fill="#78a8a5"/>
            </g>
            <path id="Path_217" data-name="Path 217" d="M119.326,197.574a1.288,1.288,0,1,0,1.287-1.288A1.287,1.287,0,0,0,119.326,197.574Z" transform="translate(-84.698 -177.944)" fill="#78a8a5"/>
          </g>
        </g>
        <g id="Group_106" data-name="Group 106" transform="translate(13.401 0)">
          <g id="Group_99" data-name="Group 99" transform="translate(3.808 5.882)">
            <g id="Group_97" data-name="Group 97">
              <path id="Path_218" data-name="Path 218" d="M88.2,89.388c-1.149-3.564-3.869-2.739-4.123-2.653-.267.031-3.079.449-2.593,4.161.489,3.735,2.656,5.759,4.687,5.164C88.264,95.729,89.357,92.973,88.2,89.388Z" transform="translate(-81.429 -69.312)" fill="#cc887f"/>
              <path id="Path_219" data-name="Path 219" d="M145.513,89.388c1.149-3.564,3.869-2.739,4.123-2.653.267.031,3.079.449,2.593,4.161-.489,3.735-2.655,5.759-4.687,5.164C145.451,95.729,144.358,92.973,145.513,89.388Z" transform="translate(-115.804 -69.312)" fill="#cc887f"/>
              <path id="Path_220" data-name="Path 220" d="M89.881,63.673c1.423-15.623,13.3-14.748,14.421-14.63,1.12-.118,13-.993,14.421,14.63,1.432,15.717-5.569,25.981-14.421,25.417C95.449,89.654,88.449,79.39,89.881,63.673Z" transform="translate(-85.895 -48.997)" fill="#ffac9d"/>
            </g>
            <g id="Group_98" data-name="Group 98" transform="translate(3.483 12.72)">
              <path id="Path_221" data-name="Path 221" d="M89.016,81.6s-.766,20.531,11.337,22.829,19.611-7.814,18.539-23.9l-1.532-.153s-1,16.24-4.673,16.393,1.762-5.056-5.286-5.362S96.865,88.746,96.293,94.7c-.383,3.984-5.286-2.834-5.9-13.406S89.016,81.6,89.016,81.6Z" transform="translate(-89.006 -76.67)" fill="#965450"/>
              <path id="Path_222" data-name="Path 222" d="M90.975,86.008a36.6,36.6,0,0,1-.581-4.718c-.613-10.572-1.379.306-1.379.306a41.539,41.539,0,0,0,.238,5.3C89.829,86.6,90.4,86.305,90.975,86.008Z" transform="translate(-89.006 -76.67)" fill="#76413b"/>
              <path id="Path_223" data-name="Path 223" d="M151.658,90.5a42.361,42.361,0,0,0-.014-5.62l-1.532-.153s-.137,2.224-.495,5.033Q150.639,90.118,151.658,90.5Z" transform="translate(-121.758 -81.021)" fill="#76413b"/>
            </g>
          </g>
          <g id="Group_100" data-name="Group 100" transform="translate(11.171 19.115)">
            <path id="Path_224" data-name="Path 224" d="M123.877,84.914l.969,8.759-2.716,1.862" transform="translate(-110.785 -81.637)" fill="none" stroke="#cc887f" stroke-miterlimit="10" stroke-width="1.661"/>
            <path id="Path_225" data-name="Path 225" d="M137.086,79.9s-3.724-4.552-7.449-.31" transform="translate(-114.842 -77.785)" fill="none" stroke="#352c38" stroke-miterlimit="10" stroke-width="2.701"/>
            <path id="Path_226" data-name="Path 226" d="M104.9,79.9s-3.724-4.552-7.449-.31" transform="translate(-97.448 -77.785)" fill="none" stroke="#352c38" stroke-miterlimit="10" stroke-width="2.701"/>
            <path id="Path_227" data-name="Path 227" d="M107.079,91.421s-.214-3-2.788-2.788c-2.161.18-1.93,2.788-1.93,2.788" transform="translate(-100.099 -83.641)" fill="none" stroke="#352c38" stroke-miterlimit="10" stroke-width="1.195"/>
            <path id="Path_228" data-name="Path 228" d="M136.005,90.955s-.215-3-2.788-2.788c-2.161.18-1.93,2.788-1.93,2.788" transform="translate(-115.73 -83.389)" fill="none" stroke="#352c38" stroke-miterlimit="10" stroke-width="1.195"/>
            <path id="Path_229" data-name="Path 229" d="M121.428,114.129c-2.828,2.749-7.618,2.6-11.245.147" transform="translate(-104.33 -97.424)" fill="#fff"/>
          </g>
          <g id="Group_105" data-name="Group 105">
            <g id="Group_101" data-name="Group 101">
              <path id="Path_230" data-name="Path 230" d="M95.571,44.406s-8.58-1.532-9.959,3.83.613,12.564-5.669,11.491c0,0-4.555.919-1.644,8.12,0,0-8.621-8.273-3.565-14.249,4.125-4.874,2.452-15.475,12.564-17.16S95.571,42.415,95.571,44.406Z" transform="translate(-73.145 -36.199)" fill="#76413b"/>
            </g>
            <g id="Group_102" data-name="Group 102">
              <path id="Path_231" data-name="Path 231" d="M95.571,44.406s-8.58-1.532-9.959,3.83.613,12.564-5.669,11.491c0,0-4.555.919-1.644,8.12,0,0-8.621-8.273-3.565-14.249,4.125-4.874,2.452-15.475,12.564-17.16S95.571,42.415,95.571,44.406Z" transform="translate(-73.145 -36.199)" fill="#965450"/>
            </g>
            <g id="Group_103" data-name="Group 103" transform="translate(21.514)">
              <path id="Path_232" data-name="Path 232" d="M120.082,44.406s8.58-1.532,9.959,3.83-.613,12.564,5.669,11.491c0,0,4.555.919,1.644,8.12,0,0,8.621-8.273,3.565-14.249-4.124-4.874-2.451-15.475-12.563-17.16S120.082,42.415,120.082,44.406Z" transform="translate(-119.952 -36.199)" fill="#965450"/>
            </g>
            <g id="Group_104" data-name="Group 104" transform="translate(21.525 7.562)">
              <path id="Path_233" data-name="Path 233" d="M119.976,52.656s8.939-.344,9.838,5.119-1.722,12.46,4.63,11.947c0,0,2.747.244,2.71,2.394" transform="translate(-119.976 -52.652)" fill="none" stroke="#965450" stroke-miterlimit="10" stroke-width="2.721"/>
            </g>
          </g>
        </g>
      </g>
    </g>
  </g>
</svg>
