<svg xmlns="http://www.w3.org/2000/svg" width="32" height="32" viewBox="0 0 32 32">
  <g id="weekly_subscription_bell_icon" transform="translate(-3955 -222)">
    <rect id="Rectangle_4553" data-name="Rectangle 4553" width="32" height="32" rx="16" transform="translate(3955 222)" fill="#111b2e"/>
    <g id="subscribe_1_" data-name="subscribe (1)" transform="translate(3927.992 227.9)">
      <path id="Path_8794" data-name="Path 8794" d="M294.967,134.438l-.163-.163-.749-.681-1.6,1.721.52.793.163.163a1.263,1.263,0,0,0,1.786,0l.047-.047A1.263,1.263,0,0,0,294.967,134.438Z" transform="translate(-248.33 -127.29)" fill="#fef0ae"/>
      <g id="Group_3535" data-name="Group 3535" transform="translate(34.008 0)">
        <path id="Path_8797" data-name="Path 8797" d="M156.092,2.036l-.51-.51A.894.894,0,1,1,156.846.262l.51.51,1.043,1-1.172,1.264Z" transform="translate(-151.738 0)" fill="#ffdf34"/>
        <g id="XMLID_335_" transform="translate(4.116 0.37)">
          <g id="Group_3530" data-name="Group 3530">
            <path id="Path_8798" data-name="Path 8798" d="M234.615,74.173l-1.855-.628-1.575.082L227.714,77.1l.052,1.44.628,1.855a.575.575,0,0,0,.95.222l5.492-5.492A.574.574,0,0,0,234.615,74.173Z" transform="translate(-224.786 -70.564)" fill="#ffdf34"/>
            <path id="Path_8799" data-name="Path 8799" d="M169.471,9.159l1.946,1.947-.066.066L166.424,16.1h0l-1.946-1.946a3.531,3.531,0,0,1,4.994-4.994Z" transform="translate(-163.443 -8.125)" fill="#fee97d"/>
          </g>
        </g>
        <path id="Path_8800" data-name="Path 8800" d="M230.155,138.049l-.628-1.855h0l-1.065-1.065-.747.747.052,1.44.628,1.855a.575.575,0,0,0,.95.222l1.045-1.045A.566.566,0,0,1,230.155,138.049Z" transform="translate(-220.712 -128.732)" fill="#f9d203"/>
        <path id="Path_8801" data-name="Path 8801" d="M167.866,17.269l-1.628-1.628a3.533,3.533,0,0,1-.2-4.78,3.532,3.532,0,0,0-1.564,5.9l1.946,1.946h0Z" transform="translate(-159.461 -10.366)" fill="#ffdf34"/>
        <g id="Group_3531" data-name="Group 3531" transform="translate(0 2.891)">
          <path id="Path_8802" data-name="Path 8802" d="M80.705,67.464a.341.341,0,0,1-.238-.1,2.655,2.655,0,0,1,0-3.817.342.342,0,0,1,.476.49,1.972,1.972,0,0,0,0,2.836.342.342,0,0,1-.238.587Z" transform="translate(-79.658 -63.454)" fill="#ffdf34"/>
        </g>
        <g id="Group_3532" data-name="Group 3532" transform="translate(1.367 3.953)">
          <path id="Path_8803" data-name="Path 8803" d="M110.342,86.065a.341.341,0,0,1-.219-.079,1.293,1.293,0,0,1,0-1.986.342.342,0,0,1,.438.525.61.61,0,0,0,0,.937.342.342,0,0,1-.219.6Z" transform="translate(-109.658 -83.92)" fill="#ffdf34"/>
        </g>
        <g id="Group_3533" data-name="Group 3533" transform="translate(16.611 2.891)">
          <path id="Path_8804" data-name="Path 8804" d="M432.2,67.466a.342.342,0,0,1-.238-.587,1.972,1.972,0,0,0,0-2.836.342.342,0,0,1,.476-.49,2.655,2.655,0,0,1,0,3.817A.341.341,0,0,1,432.2,67.466Z" transform="translate(-431.859 -63.456)" fill="#ffdf34"/>
        </g>
        <g id="Group_3534" data-name="Group 3534" transform="translate(15.607 3.953)">
          <path id="Path_8805" data-name="Path 8805" d="M410.174,86.065a.342.342,0,0,1-.219-.6.61.61,0,0,0,0-.937.342.342,0,0,1,.438-.525,1.293,1.293,0,0,1,0,1.987A.34.34,0,0,1,410.174,86.065Z" transform="translate(-409.832 -83.92)" fill="#ffdf34"/>
        </g>
        <g id="Group_3528" data-name="Group 3528" transform="translate(1.082 5.028)">
          <g id="XMLID_329_">
            <g id="Group_3527" data-name="Group 3527">
              <path id="Path_8795" data-name="Path 8795" d="M41.47,174.019v-4.2a1.077,1.077,0,0,1,1.092-1.077,1.093,1.093,0,0,1,1.062,1.1v5.635a.361.361,0,0,0,.361.361h.6a1.167,1.167,0,0,1,1.167,1.167v3.105a.761.761,0,0,1-.149.453l-1.328,1.8v.868a.485.485,0,0,1-.485.485H36.347a.485.485,0,0,1-.485-.485v-1.444l-.578-.737a1.294,1.294,0,0,1-.276-.8V174.52a.905.905,0,0,1,.905-.905h.343a.905.905,0,0,1,.905.905V174.2a.905.905,0,0,1,.905-.905h.343a.905.905,0,0,1,.888.726l.018,0a.905.905,0,0,1,.905-.905h.344A.905.905,0,0,1,41.47,174.019Z" transform="translate(-35.008 -168.745)" fill="#ffe5c2"/>
            </g>
          </g>
        </g>
        <g id="Group_3529" data-name="Group 3529" transform="translate(1.082 9.897)">
          <path id="Path_8796" data-name="Path 8796" d="M37.691,285.242V283.8l-.578-.737a1.294,1.294,0,0,1-.276-.8v-5.732a.9.9,0,0,1,.163-.517.9.9,0,0,0-.743-.388h-.343a.905.905,0,0,0-.905.905v5.732a1.294,1.294,0,0,0,.276.8l.578.737v1.444a.485.485,0,0,0,.485.485h1.828A.485.485,0,0,1,37.691,285.242Z" transform="translate(-35.009 -275.624)" fill="#fed2a4"/>
        </g>
      </g>
    </g>
  </g>
</svg>
