<svg id="check" xmlns="http://www.w3.org/2000/svg" width="100" height="100" viewBox="0 0 100 100">
  <g id="Group_10223" data-name="Group 10223">
    <circle id="Ellipse_841" data-name="Ellipse 841" cx="46.132" cy="46.132" r="46.132" transform="translate(3.868 3.868)" fill="#04a664"/>
    <path id="Path_48048" data-name="Path 48048" d="M50,100a50,50,0,1,1,50-50A50.057,50.057,0,0,1,50,100ZM50,7.746A42.254,42.254,0,1,0,92.254,50,42.3,42.3,0,0,0,50,7.746Z" fill="#04a664"/>
  </g>
  <path id="Path_48049" data-name="Path 48049" d="M150.206,198.566a3.863,3.863,0,0,1-2.758-1.156l-14.272-14.5a3.867,3.867,0,1,1,5.515-5.423l11.4,11.588,23.59-25.98a3.867,3.867,0,1,1,5.724,5.2L153.069,197.3a3.869,3.869,0,0,1-2.785,1.269A.539.539,0,0,0,150.206,198.566Z" transform="translate(-106.24 -130.194)" fill="#fff"/>
</svg>
