<svg xmlns="http://www.w3.org/2000/svg" width="110" height="110" viewBox="0 0 110 110">
  <g id="check1" transform="translate(-56.22 -62.419)">
    <path id="Path_48046" data-name="Path 48046" d="M111.222,172.419a55,55,0,1,1,0-110,54.42,54.42,0,0,1,25.012,6,3.147,3.147,0,1,1-2.867,5.6,48.182,48.182,0,0,0-22.145-5.315,48.654,48.654,0,1,0,47.112,36.3,3.147,3.147,0,1,1,6.087-1.6,55.049,55.049,0,0,1-53.2,69.009Z" transform="translate(0 0)" fill="#04a664"/>
    <path id="Path_48047" data-name="Path 48047" d="M184.717,153.831a3.214,3.214,0,0,1-2.272-.941l-16.279-16.279a3.214,3.214,0,0,1,4.532-4.544L184.7,146.073l50.764-50.751a3.214,3.214,0,1,1,4.545,4.545L186.983,152.9A3.214,3.214,0,0,1,184.717,153.831Z" transform="translate(-76.396 -21.689)" fill="#04a664"/>
  </g>
</svg>
