<svg xmlns="http://www.w3.org/2000/svg" width="30" height="30" viewBox="0 0 30 30">
  <g id="rupee-icon" transform="translate(-32.566 -224.3)">
    <rect id="Rectangle_8490" data-name="Rectangle 8490" width="30" height="30" rx="15" transform="translate(32.566 224.3)" fill="#fff" opacity="0"/>
    <path id="Path_47857" data-name="Path 47857" d="M26.609,16.358h-.836a5.555,5.555,0,0,0-.709-1.387h1.545a1.172,1.172,0,0,0,0-2.344H20.695c-.043,0-.084-.006-.127-.006H17.49a1.172,1.172,0,0,0,0,2.344h3.077a3.174,3.174,0,0,1,2.624,1.393H17.539a1.172,1.172,0,0,0,0,2.344H23.7a3.191,3.191,0,0,1-3.134,2.681H17.49a1.163,1.163,0,0,0-1.069.709,1.178,1.178,0,0,0,.225,1.269l6.291,6.679a1.16,1.16,0,0,0,1.981-.462,1.178,1.178,0,0,0-.293-1.15l-4.427-4.7h.37A5.535,5.535,0,0,0,26.055,18.7h.554a1.172,1.172,0,0,0,0-2.344Z" transform="translate(25.777 218.052)"/>
  </g>
</svg>
