<svg xmlns="http://www.w3.org/2000/svg" width="20" height="20" viewBox="0 0 20 20">
  <g id="rupee-symbol_white1" transform="translate(-32.566 -223.9)">
    <rect id="Rectangle_8490" data-name="Rectangle 8490" width="20" height="20" rx="10" transform="translate(32.566 223.9)" fill="#fff"/>
    <path id="Path_47857" data-name="Path 47857" d="M23.087,15.078h-.55a3.652,3.652,0,0,0-.466-.912h1.016a.77.77,0,0,0,0-1.541H19.2c-.028,0-.055,0-.084,0H17.092a.77.77,0,0,0,0,1.541h2.023a2.087,2.087,0,0,1,1.725.916H17.124a.77.77,0,0,0,0,1.541h4.052a2.1,2.1,0,0,1-2.06,1.763H17.092a.765.765,0,0,0-.7.466.775.775,0,0,0,.148.834l4.136,4.391a.763.763,0,0,0,1.3-.3.774.774,0,0,0-.193-.756l-2.911-3.091h.243a3.639,3.639,0,0,0,3.608-3.3h.364a.77.77,0,0,0,0-1.541Z" transform="translate(22.51 215.811)"/>
  </g>
</svg>
