<svg xmlns="http://www.w3.org/2000/svg" width="34" height="34" viewBox="0 0 34 34">
  <path id="withdrawal_successful_verify_tick_white" d="M33.465,14.983l-2.517-2.516a1.271,1.271,0,0,1-.385-.907V7.978a3.541,3.541,0,0,0-3.537-3.537H23.443a1.273,1.273,0,0,1-.907-.385L20.019,1.54a3.573,3.573,0,0,0-5.034,0L12.469,4.056a1.273,1.273,0,0,1-.907.385H7.979A3.541,3.541,0,0,0,4.442,7.978V11.56a1.271,1.271,0,0,1-.385.907L1.54,14.983a3.57,3.57,0,0,0,0,5.033l2.517,2.516a1.271,1.271,0,0,1,.385.907v3.582a3.541,3.541,0,0,0,3.537,3.537h3.582a1.273,1.273,0,0,1,.907.385l2.517,2.516a3.558,3.558,0,0,0,5.034,0l2.517-2.516a1.273,1.273,0,0,1,.907-.385h3.582a3.541,3.541,0,0,0,3.537-3.537V23.439a1.271,1.271,0,0,1,.385-.907l2.517-2.516a3.57,3.57,0,0,0,0-5.033Zm-10.634.295L16.8,21.331a1.178,1.178,0,0,1-1.61,0l-3.016-3.038a1.122,1.122,0,1,1,1.587-1.587l2.222,2.222,5.26-5.26a1.136,1.136,0,0,1,1.587,0,1.122,1.122,0,0,1,0,1.61Z" transform="translate(-0.502 -0.503)" fill="#fff"/>
</svg>
