<svg xmlns="http://www.w3.org/2000/svg" width="74" height="74" viewBox="0 0 74 74">
  <g id="withdrawal_popup_icon" transform="translate(-151 -490)">
    <circle id="Ellipse_731" data-name="Ellipse 731" cx="37" cy="37" r="37" transform="translate(151 490)" fill="#fff"/>
    <g id="wallet_4_" data-name="wallet (4)" transform="translate(166 478.109)">
      <g id="Page-1_14_" transform="translate(0 29.891)">
        <g id="_x30_15---Points-Wallet" transform="translate(0 0)">
          <path id="Shape_102_" d="M1.467,53.419v4.434a3.631,3.631,0,0,0,3.666,3.585H24.754l-.62,3.67a2.369,2.369,0,0,0,.988,2.366,2.307,2.307,0,0,0,2.415.143L31.874,65.3a.823.823,0,0,1,.779,0l4.336,2.318a2.312,2.312,0,0,0,2.415-.143,2.369,2.369,0,0,0,.988-2.366l-.816-4.842a.978.978,0,0,1,.269-.86l3.446-3.412a2.381,2.381,0,0,0,.577-2.478,2.339,2.339,0,0,0-1.876-1.577l-2.4-.353V33.476a3.631,3.631,0,0,0-3.666-3.585H5.133a3.631,3.631,0,0,0-3.666,3.585V43.645A2.155,2.155,0,0,0,0,45.664V51.4a2.155,2.155,0,0,0,1.467,2.019Zm41.007.548a.979.979,0,0,1-.23,1.018L38.8,58.4a2.4,2.4,0,0,0-.668,2.1l.816,4.842a.96.96,0,0,1-.39.963.807.807,0,0,1-.862.051l-4.337-2.318a2.319,2.319,0,0,0-2.185,0l-4.334,2.318a.81.81,0,0,1-.863-.052.958.958,0,0,1-.389-.962L26.4,60.5a2.4,2.4,0,0,0-.672-2.1l-3.442-3.412a.98.98,0,0,1-.23-1.018.878.878,0,0,1,.7-.61l4.8-.709a2.344,2.344,0,0,0,1.765-1.3l2.163-4.457a.85.85,0,0,1,1.556,0L35.2,51.345a2.341,2.341,0,0,0,1.764,1.3l4.8.709A.88.88,0,0,1,42.473,53.967ZM2.933,33.476a2.176,2.176,0,0,1,2.2-2.151h30.8a2.151,2.151,0,1,1,0,4.3H5.133a3.707,3.707,0,0,0-2.2.717Zm2.2,3.585h30.8a3.7,3.7,0,0,0,2.2-.736V51.368l-.941-.139a.883.883,0,0,1-.66-.5l-2.164-4.456a2.329,2.329,0,0,0-4.2,0L28,50.727a.882.882,0,0,1-.66.5l-4.8.709a2.34,2.34,0,0,0-1.877,1.577,2.381,2.381,0,0,0,.577,2.478l3.446,3.412a.965.965,0,0,1,.277.6H5.133a2.176,2.176,0,0,1-2.2-2.151v-4.3h6.6a5.02,5.02,0,1,0,0-10.037h-6.6v-4.3a2.176,2.176,0,0,1,2.2-2.151Zm-3.666,8.6a.725.725,0,0,1,.733-.717H9.532a3.586,3.586,0,1,1,0,7.17H2.2a.725.725,0,0,1-.733-.717Z" transform="translate(0 -29.891)"/>
          <path id="Shape_101_" d="M87.458,230.409a2.125,2.125,0,1,0-2.125-2.125,2.125,2.125,0,0,0,2.125,2.125Zm0-2.834a.708.708,0,1,1-.708.708A.708.708,0,0,1,87.458,227.575Z" transform="translate(-77.973 -209.643)"/>
          <path id="Shape_100_" d="M316.442,133.709h.708a.708.708,0,1,0,0-1.417h-.708a.708.708,0,1,0,0,1.417Z" transform="translate(-288.555 -123.684)"/>
          <path id="Shape_99_" d="M273.775,133.709h.708a.708.708,0,0,0,0-1.417h-.708a.708.708,0,0,0,0,1.417Z" transform="translate(-249.561 -123.684)"/>
          <path id="Shape_98_" d="M231.108,133.709h.708a.708.708,0,0,0,0-1.417h-.708a.708.708,0,1,0,0,1.417Z" transform="translate(-210.567 -123.684)"/>
          <path id="Shape_97_" d="M188.442,133.709h.708a.708.708,0,1,0,0-1.417h-.708a.708.708,0,1,0,0,1.417Z" transform="translate(-171.574 -123.684)"/>
          <path id="Shape_96_" d="M145.775,133.709h.708a.708.708,0,1,0,0-1.417h-.708a.708.708,0,0,0,0,1.417Z" transform="translate(-132.58 -123.684)"/>
          <path id="Shape_95_" d="M103.108,133.709h.708a.708.708,0,0,0,0-1.417h-.708a.708.708,0,1,0,0,1.417Z" transform="translate(-93.585 -123.684)"/>
          <path id="Shape_94_" d="M60.442,133.709h.708a.708.708,0,1,0,0-1.417h-.708a.708.708,0,1,0,0,1.417Z" transform="translate(-54.775 -123.684)"/>
          <path id="Shape_93_" d="M359.108,133.709h.708a.708.708,0,1,0,0-1.417h-.708a.708.708,0,1,0,0,1.417Z" transform="translate(-327.549 -123.684)"/>
          <path id="Shape_92_" d="M401.775,133.709h.708a.708.708,0,0,0,0-1.417h-.708a.708.708,0,1,0,0,1.417Z" transform="translate(-366.543 -123.684)"/>
          <path id="Shape_91_" d="M231.108,355.576h.708a.708.708,0,1,0,0-1.417h-.708a.708.708,0,1,0,0,1.417Z" transform="translate(-210.567 -326.902)"/>
          <path id="Shape_90_" d="M188.442,355.576h.708a.708.708,0,1,0,0-1.417h-.708a.708.708,0,1,0,0,1.417Z" transform="translate(-171.574 -326.902)"/>
          <path id="Shape_89_" d="M146.484,354.158h-.708a.708.708,0,0,0,0,1.417h.708a.708.708,0,0,0,0-1.417Z" transform="translate(-132.58 -326.901)"/>
          <path id="Shape_88_" d="M103.818,354.158h-.708a.708.708,0,1,0,0,1.417h.708a.708.708,0,1,0,0-1.417Z" transform="translate(-93.586 -326.901)"/>
          <path id="Shape_87_" d="M61.151,354.158h-.708a.708.708,0,1,0,0,1.417h.708a.708.708,0,1,0,0-1.417Z" transform="translate(-54.775 -326.901)"/>
        </g>
      </g>
    </g>
  </g>
</svg>
