<svg xmlns="http://www.w3.org/2000/svg" width="26" height="26" viewBox="0 0 26 26">
  <g id="account_wallet_icon" transform="translate(-14 -288)">
    <rect id="Rectangle_8475" data-name="Rectangle 8475" width="26" height="26" transform="translate(14 288)" fill="#fff" opacity="0"/>
    <g id="wallet" transform="translate(17 265.344)">
      <path id="Path_10467" data-name="Path 10467" d="M18.029,29.161a2.71,2.71,0,0,0-2.692-2.5H2.7A2.712,2.712,0,0,0,0,29.372V41.94a2.712,2.712,0,0,0,2.7,2.716H17.3A2.712,2.712,0,0,0,20,41.94V31.775a2.718,2.718,0,0,0-1.971-2.615ZM2.7,27.925H15.337a1.443,1.443,0,0,1,1.4,1.134H2.7a2.673,2.673,0,0,0-1.439.419v-.106A1.445,1.445,0,0,1,2.7,27.925ZM17.3,43.387H2.7A1.445,1.445,0,0,1,1.262,41.94V31.775A1.445,1.445,0,0,1,2.7,30.328H17.3a1.445,1.445,0,0,1,1.439,1.447v2.214H14.716a2.908,2.908,0,0,0,0,5.815h4.023V41.94A1.445,1.445,0,0,1,17.3,43.387Zm1.439-4.852H14.716a1.639,1.639,0,0,1,0-3.277h4.023Z" transform="translate(0 0)" fill="#ad9eb3"/>
      <circle id="Ellipse_506" data-name="Ellipse 506" cx="0.658" cy="0.658" r="0.658" transform="translate(14.291 36.287)" fill="#ad9eb3"/>
    </g>
  </g>
</svg>
