<svg xmlns="http://www.w3.org/2000/svg" width="26" height="26" viewBox="0 0 26 26">
  <g id="account_buy_coin_icon" transform="translate(-14 -288)">
    <rect id="Rectangle_8475" data-name="Rectangle 8475" width="26" height="26" transform="translate(14 288)" fill="#fff" opacity="0"/>
    <g id="money" transform="translate(16.487 290.501)">
      <path id="Path_20966" data-name="Path 20966" d="M19.267,7.2a.667.667,0,0,0-.448.83,8.664,8.664,0,1,1-5.837-5.837A.667.667,0,1,0,13.364.915,10,10,0,1,0,20.1,7.649a.666.666,0,0,0-.83-.448Z" transform="translate(0 0)" fill="#ad9eb3"/>
      <path id="Path_20967" data-name="Path 20967" d="M8,7.169h2.669a.667.667,0,0,0,0-1.334H9.336V5.167A.667.667,0,1,0,8,5.167v.667a2,2,0,1,0,0,4H9.336a.667.667,0,1,1,0,1.334H6.667a.667.667,0,1,0,0,1.334H8v.667a.667.667,0,1,0,1.334,0v-.667a2,2,0,1,0,0-4H8A.667.667,0,1,1,8,7.169Z" transform="translate(1.835 1.338)" fill="#ad9eb3"/>
      <path id="Path_20968" data-name="Path 20968" d="M16.5,3.169h-2v-2a.667.667,0,0,0-1.334,0v2h-2a.667.667,0,1,0,0,1.334h2v2a.667.667,0,0,0,1.334,0v-2h2a.667.667,0,0,0,0-1.334Z" transform="translate(3.34 0)" fill="#ad9eb3"/>
    </g>
  </g>
</svg>
