<svg xmlns="http://www.w3.org/2000/svg" width="26" height="26" viewBox="0 0 26 26">
  <g id="account_transaction_history_icon" transform="translate(-14 -288)">
    <rect id="Rectangle_8475" data-name="Rectangle 8475" width="26" height="26" transform="translate(14 288)" fill="#fff" opacity="0"/>
    <g id="Group_6116" data-name="Group 6116" transform="translate(2 169.5)">
      <path id="Refund_1_" d="M24,15.5A9.553,9.553,0,0,1,5.6,19.059a.454.454,0,0,1,.843-.339,8.6,8.6,0,1,0,.4-7.291H8.091a.452.452,0,0,1,.407.655L6.679,15.7a.456.456,0,0,1-.813,0L4.048,12.083a.453.453,0,0,1,.407-.655H5.829A9.554,9.554,0,0,1,24,15.5Z" transform="translate(11 116)" fill="#ad9eb3" stroke="#ad9eb3" stroke-width="0.5"/>
      <path id="Path_20969" data-name="Path 20969" d="M7.5,6.5h2a.5.5,0,0,0,0-1h-1V5a.5.5,0,1,0-1,0v.5a1.5,1.5,0,1,0,0,3h1a.5.5,0,0,1,0,1h-2a.5.5,0,1,0,0,1h1V11a.5.5,0,0,0,1,0v-.5a1.5,1.5,0,0,0,0-3h-1a.5.5,0,0,1,0-1Z" transform="translate(17.667 123.594)" fill="#ad9eb3"/>
    </g>
  </g>
</svg>
