<svg xmlns="http://www.w3.org/2000/svg" width="36" height="36" viewBox="0 0 36 36">
  <g id="brown-medal_rank3" transform="translate(-1943 -3042)">
    <g id="Rectangle_7509" data-name="Rectangle 7509" transform="translate(1943 3042)" fill="#fff" stroke="#707070" stroke-width="1" opacity="0">
      <rect width="36" height="36" stroke="none"/>
      <rect x="0.5" y="0.5" width="35" height="35" fill="none"/>
    </g>
    <g id="brown-medal" transform="translate(1946.185 3046.154)">
      <path id="Path_9039" d="M.359,303.231c-.691.691-.465,1.522.668,1.58l3.237.413c1.121.139.895.186,1.028,1.255l.343,2.952c.058,1.139.889,1.36,1.575.674l2.3-2.3,2.353-2.359a2.041,2.041,0,0,1-.6-.354l-1.668-4.213L4.5,299.1Z" transform="translate(0.033 -282.801)" fill="#d28654"/>
      <path id="Path_9040" d="M97.557,385.659,95.5,387.716l.116,1.011c.058,1.139.889,1.36,1.575.674l2.3-2.3,2.353-2.359a2.043,2.043,0,0,1-.6-.354L99.91,383.3Z" transform="translate(-89.946 -362.109)" fill="#a65520"/>
      <path id="Path_9041" d="M307.2,304.68l2.353,2.359,2.3,2.3c.692.691,1.522.471,1.581-.674l.343-2.952c.134-1.063-.087-1.116,1.034-1.255l3.237-.413c1.139-.058,1.36-.889.674-1.581L314.55,298.3l-5.567.564Z" transform="translate(-289.336 -282.048)" fill="#d28654"/>
      <path id="Path_9042" d="M380.869,300.294l3.986,3.992,1.092-.139c1.139-.058,1.36-.889.674-1.581l-4.166-4.166-3.155.32Z" transform="translate(-357.246 -282.117)" fill="#a65520"/>
      <path id="Path_9043" d="M70.948,17.2l1.552.732,2.2.139a2.084,2.084,0,0,1,1.413.843l1.035,1.371,1.878,1.145a2.09,2.09,0,0,1,.86,1.406l.279,1.7L81.3,26.428a2.081,2.081,0,0,1,.11,1.644L80.866,29.7l.128,2.2a2.115,2.115,0,0,1-.663,1.511L79.1,34.609l-.907,2.01a2.066,2.066,0,0,1-1.285,1.023l-1.645.482-1.744,1.348a2.076,2.076,0,0,1-1.616.308l-1.68-.337-2.163.389a2.054,2.054,0,0,1-1.57-.476L65.158,38.27l-2.1-.662a2.08,2.08,0,0,1-1.169-1.156l-.674-1.58-1.552-1.557a2.089,2.089,0,0,1-.5-1.569L59.3,30.03l-.645-2.109a2.094,2.094,0,0,1,.279-1.621l.913-1.453.4-2.167a2.1,2.1,0,0,1,1.006-1.307l1.482-.866,1.36-1.732a2.073,2.073,0,0,1,1.494-.686l1.715-.076,2.012-.9A2.055,2.055,0,0,1,70.948,17.2Z" transform="translate(-55.187 -16.979)" fill="#e1a47d"/>
      <path id="Path_9044" d="M112.832,79.676A8.838,8.838,0,1,0,104,70.838,8.835,8.835,0,0,0,112.832,79.676Z" transform="translate(-97.955 -59.379)" fill="#d28654"/>
      <path id="Path_9045" d="M305.781,76.56A8.835,8.835,0,0,0,299.5,68.1a16.681,16.681,0,0,1,2.76,9.495,18.206,18.206,0,0,1-.866,5.613c-.139.424-.291.837-.459,1.243a8.838,8.838,0,0,0,4.846-7.891Z" transform="translate(-282.086 -65.125)" fill="#c66728"/>
      <path id="Path_9046" d="M259.319,27.981a2.111,2.111,0,0,0-.11-1.644l-1.133-1.894-.279-1.7a2.1,2.1,0,0,0-.86-1.406l-1.877-1.145-1.034-1.371a2.105,2.105,0,0,0-1.412-.843l-2.2-.139-1.551-.732a2.094,2.094,0,0,0-1.365-.169,10.361,10.361,0,0,1,3.022,2.923,8.847,8.847,0,0,1,1.441,16.357,14.366,14.366,0,0,1-.761,1.563,12.844,12.844,0,0,1-1.325,1.923,2.092,2.092,0,0,0,.93-.029,1.769,1.769,0,0,0,.639-.291l1.732-1.354,1.644-.482a2.065,2.065,0,0,0,1.284-1.023l.906-2.01,1.191-1.156.041-.035a2.115,2.115,0,0,0,.662-1.511l-.128-2.2Z" transform="translate(-233.105 -16.894)" fill="#e78240"/>
      <g id="Group_6066" data-name="Group 6066" transform="translate(11.536 6.588)">
        <path id="Path_9003" data-name="Path 9003" d="M200.5,134.857h.982a1.388,1.388,0,0,0,1.04-.349,1.279,1.279,0,0,0,.337-.93,1.139,1.139,0,0,0-.337-.877,1.29,1.29,0,0,0-.924-.314,1.374,1.374,0,0,0-.889.291.931.931,0,0,0-.36.755H198.5a2.3,2.3,0,0,1,.4-1.307,2.6,2.6,0,0,1,1.1-.9,3.7,3.7,0,0,1,1.557-.325,3.48,3.48,0,0,1,2.313.7,2.4,2.4,0,0,1,.837,1.947,1.938,1.938,0,0,1-.389,1.174,2.51,2.51,0,0,1-1.023.825,2.343,2.343,0,0,1,1.174.843,2.3,2.3,0,0,1,.384,1.331,2.462,2.462,0,0,1-.9,1.987,3.627,3.627,0,0,1-2.388.75,3.458,3.458,0,0,1-2.278-.732,2.406,2.406,0,0,1-.883-1.941h1.848a1.069,1.069,0,0,0,.4.854,1.631,1.631,0,0,0,1.993-.017,1.2,1.2,0,0,0,.372-.924q0-1.395-1.534-1.395H200.5v-1.447Z" transform="translate(-198.4 -130.9)" fill="#fff"/>
      </g>
    </g>
  </g>
</svg>
