<svg xmlns="http://www.w3.org/2000/svg" width="29.267" height="29.267" viewBox="0 0 29.267 29.267">
  <g id="camera_profile_pict" transform="translate(0.5 0.5)">
    <circle id="Oval" cx="14.133" cy="14.133" r="14.133" fill="#8235E3" stroke="rgba(239,48,36,0.25)" stroke-miterlimit="10" stroke-width="1"/>
    <g id="_Icons_FontIcons_Camera" data-name="_Icons / FontIcons / Camera" transform="translate(5.653 5.653)">
      <path id="Combined_Shape" data-name="Combined Shape" d="M11.223,11.264H2.128c-.033,0-.067,0-.1,0a2.009,2.009,0,0,1-1.39-.556A2.071,2.071,0,0,1,0,9.323V3.454A2.174,2.174,0,0,1,2.1,1.363H3.294L4.571.146A.528.528,0,0,1,4.937,0h3.43a.528.528,0,0,1,.366.146l1.276,1.217h1.238a2.171,2.171,0,0,1,2.079,2.111V9.354a2.023,2.023,0,0,1-2.005,1.913Zm.025-1.06H11.3a.971.971,0,0,0,.969-.883V3.495a1.111,1.111,0,0,0-1.043-1.072H9.8a.527.527,0,0,1-.366-.147L8.154,1.06H5.148L3.873,2.276a.531.531,0,0,1-.166.108l-.006,0a.537.537,0,0,1-.195.037H2.126A1.112,1.112,0,0,0,1.06,3.474V9.291a.974.974,0,0,0,.992.914h9.2ZM4.089,5.965A2.574,2.574,0,1,1,6.663,8.539,2.577,2.577,0,0,1,4.089,5.965Zm1.06,0A1.514,1.514,0,1,0,6.663,4.451,1.516,1.516,0,0,0,5.149,5.965Z" transform="translate(1.816 2.848)" fill="rgba(255,255,255,0.92)"/>
    </g>
  </g>
</svg>
