<svg id="crown" xmlns="http://www.w3.org/2000/svg" width="20" height="15" viewBox="0 0 20 15">
  <path id="Path_10527" data-name="Path 10527" d="M69.82,327.284a.452.452,0,0,0,.457.447H83.994a.452.452,0,0,0,.457-.447v-1.342H69.82Zm0,0" transform="translate(-67.136 -312.731)" fill="#eb5d0f"/>
  <path id="Path_10528" data-name="Path 10528" d="M18.636,2.845a1.394,1.394,0,0,0-1.364,1.42,1.481,1.481,0,0,0,.017.172L13.329,6.5,10.724,2.623A1.455,1.455,0,0,0,11.155.666,1.332,1.332,0,0,0,9.276.216a1.456,1.456,0,0,0-.431,1.958,1.4,1.4,0,0,0,.431.449L6.67,6.5,2.71,4.438a1.45,1.45,0,0,0,.017-.172A1.394,1.394,0,0,0,1.37,2.838,1.392,1.392,0,0,0,0,4.252,1.4,1.4,0,0,0,1.2,5.668l1.53,6.646H17.272L18.8,5.668A1.406,1.406,0,0,0,19.99,4.092a1.381,1.381,0,0,0-1.353-1.247Zm0,0" transform="translate(0 0.001)" fill="#eb5d0f"/>
</svg>
