<svg xmlns="http://www.w3.org/2000/svg" xmlns:xlink="http://www.w3.org/1999/xlink" width="20.86" height="14.9" viewBox="0 0 20.86 14.9">
  <defs>
    <linearGradient id="linear-gradient" x1="0.342" y1="0.04" x2="0.665" y2="0.952" gradientUnits="objectBoundingBox">
      <stop offset="0" stop-color="#ffd945"/>
      <stop offset="0.304" stop-color="#ffcd3e"/>
      <stop offset="0.856" stop-color="#ffad2b"/>
      <stop offset="1" stop-color="#ffa325"/>
    </linearGradient>
    <linearGradient id="linear-gradient-2" x1="0.666" y1="0.894" x2="0.207" y2="-0.088" xlink:href="#linear-gradient"/>
    <linearGradient id="linear-gradient-3" x1="0.264" y1="0.155" x2="0.607" y2="0.756" xlink:href="#linear-gradient"/>
    <linearGradient id="linear-gradient-4" x1="0.5" y1="-0.062" x2="0.5" y2="1.035" xlink:href="#linear-gradient"/>
    <linearGradient id="linear-gradient-6" x1="-31.823" y1="-13.3" x2="-31.781" y2="-12.495" xlink:href="#linear-gradient"/>
    <linearGradient id="linear-gradient-7" x1="-38.212" y1="-15.556" x2="-38.212" y2="-16.648" gradientUnits="objectBoundingBox">
      <stop offset="0" stop-color="#ffd945" stop-opacity="0"/>
      <stop offset="1" stop-color="#fbed21"/>
    </linearGradient>
    <linearGradient id="linear-gradient-8" x1="-33.331" y1="5.635" x2="-32.603" y2="4.29" gradientUnits="objectBoundingBox">
      <stop offset="0" stop-color="#f35227" stop-opacity="0"/>
      <stop offset="1" stop-color="#f35227"/>
    </linearGradient>
    <linearGradient id="linear-gradient-9" x1="-31.984" y1="-14.178" x2="-31.941" y2="-13.373" xlink:href="#linear-gradient"/>
    <linearGradient id="linear-gradient-10" x1="-38.404" y1="-16.608" x2="-38.404" y2="-17.7" xlink:href="#linear-gradient-7"/>
    <linearGradient id="linear-gradient-11" x1="-33.341" y1="5.614" x2="-32.613" y2="4.269" xlink:href="#linear-gradient-8"/>
    <linearGradient id="linear-gradient-12" x1="-32.43" y1="-12.645" x2="-32.388" y2="-11.84" xlink:href="#linear-gradient"/>
    <linearGradient id="linear-gradient-13" x1="-38.939" y1="-14.772" x2="-38.939" y2="-15.863" xlink:href="#linear-gradient-7"/>
    <linearGradient id="linear-gradient-14" x1="-33.341" y1="5.657" x2="-32.614" y2="4.312" xlink:href="#linear-gradient-8"/>
    <linearGradient id="linear-gradient-15" x1="-32.178" y1="-15.073" x2="-32.135" y2="-14.268" xlink:href="#linear-gradient"/>
    <linearGradient id="linear-gradient-16" x1="-38.636" y1="-17.682" x2="-38.636" y2="-18.773" xlink:href="#linear-gradient-7"/>
    <linearGradient id="linear-gradient-17" x1="-33.353" y1="5.592" x2="-32.625" y2="4.247" xlink:href="#linear-gradient-8"/>
    <linearGradient id="linear-gradient-18" x1="-33.075" y1="-11.993" x2="-33.032" y2="-11.188" xlink:href="#linear-gradient"/>
    <linearGradient id="linear-gradient-19" x1="-39.711" y1="-13.991" x2="-39.711" y2="-15.083" xlink:href="#linear-gradient-7"/>
    <linearGradient id="linear-gradient-20" x1="-33.353" y1="5.678" x2="-32.626" y2="4.333" xlink:href="#linear-gradient-8"/>
    <linearGradient id="linear-gradient-21" x1="0.896" y1="0.79" x2="-0.501" y2="-0.233" xlink:href="#linear-gradient"/>
    <linearGradient id="linear-gradient-22" x1="0.223" y1="0.347" x2="0.899" y2="0.721" gradientUnits="objectBoundingBox">
      <stop offset="0" stop-color="#ff7044"/>
      <stop offset="1" stop-color="#f82814"/>
    </linearGradient>
    <linearGradient id="linear-gradient-23" x1="0.494" y1="0.496" x2="-0.154" y2="-0.45" gradientUnits="objectBoundingBox">
      <stop offset="0" stop-color="#ff7044" stop-opacity="0"/>
      <stop offset="1" stop-color="#ffa325"/>
    </linearGradient>
    <linearGradient id="linear-gradient-24" x1="0.106" y1="0.499" x2="-0.851" y2="-0.086" gradientUnits="objectBoundingBox">
      <stop offset="0" stop-color="#f82814" stop-opacity="0"/>
      <stop offset="1" stop-color="#c0272d"/>
    </linearGradient>
    <linearGradient id="linear-gradient-25" x1="0.588" y1="0.23" x2="0.234" y2="-0.618" xlink:href="#linear-gradient-24"/>
  </defs>
  <g id="crown_member" transform="translate(0.001 -70.555)">
    <path id="Path_20795" data-name="Path 20795" d="M42.491,112.775l-.213-1.408a.916.916,0,0,0-1.492-.554l-.811.678a.681.681,0,0,1-1.043-.214l-1.292-2.586a.49.49,0,0,0-.873,0l-1.292,2.586a.681.681,0,0,1-1.043.214l-.811-.678a.916.916,0,0,0-1.492.554l-.213,1.408a.677.677,0,0,1-.954.506l-1.753-.807a.908.908,0,0,0-1.188,1.253l2.949,5.3H43.438l2.949-5.3a.908.908,0,0,0-1.188-1.253l-1.754.807a.677.677,0,0,1-.954-.506Z" transform="translate(-26.773 -36.337)" fill="url(#linear-gradient)"/>
    <path id="Path_20796" data-name="Path 20796" d="M60.9,136.19l-.2-1.279a.839.839,0,0,0-1.365-.5l-.742.616a.625.625,0,0,1-.954-.194l-1.182-2.348a.449.449,0,0,0-.8,0l-1.182,2.348a.625.625,0,0,1-.954.194l-.742-.616a.839.839,0,0,0-1.365.5l-.2,1.279a.62.62,0,0,1-.873.46l-1.6-.732a.827.827,0,0,0-1.086,1.137l2.7,4.808H61.768l2.7-4.808a.827.827,0,0,0-1.086-1.137l-1.6.732a.62.62,0,0,1-.873-.46Z" transform="translate(-45.635 -59.189)" fill="url(#linear-gradient-2)"/>
    <path id="Path_20797" data-name="Path 20797" d="M83.335,164.439l-.173-1.126a.745.745,0,0,0-1.21-.443l-.658.542a.556.556,0,0,1-.846-.171L79.4,161.173a.4.4,0,0,0-.707,0l-1.047,2.068a.556.556,0,0,1-.846.171l-.658-.542a.745.745,0,0,0-1.21.443l-.173,1.126a.55.55,0,0,1-.774.4l-1.421-.645a.73.73,0,0,0-.962,1l2.39,4.234H84.1l2.39-4.234a.73.73,0,0,0-.962-1l-1.421.645A.55.55,0,0,1,83.335,164.439Z" transform="translate(-68.619 -86.756)" fill="url(#linear-gradient-3)"/>
    <path id="Path_20798" data-name="Path 20798" d="M86.046,347.061h-13.1a.953.953,0,1,1,0-1.906h13.1a.953.953,0,1,1,0,1.906Z" transform="translate(-69.065 -263.512)" fill="url(#linear-gradient-4)"/>
    <path id="Path_20799" data-name="Path 20799" d="M86.046,394.206h-13.1a.953.953,0,1,1,0-1.906h13.1a.953.953,0,1,1,0,1.906Z" transform="translate(-69.065 -308.751)" fill="url(#linear-gradient-4)"/>
    <g id="Group_5778" data-name="Group 5778" transform="translate(8.898 70.555)">
      <path id="Path_20800" data-name="Path 20800" d="M220.187,72.064a1.531,1.531,0,1,1-1.553-1.509A1.531,1.531,0,0,1,220.187,72.064Z" transform="translate(-217.125 -70.555)" fill="url(#linear-gradient-6)"/>
      <path id="Path_20801" data-name="Path 20801" d="M225.945,78.076a1.278,1.278,0,1,1-1.3-1.259A1.278,1.278,0,0,1,225.945,78.076Z" transform="translate(-223.136 -76.564)" fill="url(#linear-gradient-7)"/>
      <path id="Path_20802" data-name="Path 20802" d="M223.391,74.309a1.532,1.532,0,0,1-2.025,2.083,1.531,1.531,0,1,0,2.025-2.083Z" transform="translate(-221.195 -74.157)" fill="url(#linear-gradient-8)"/>
    </g>
    <g id="Group_5781" data-name="Group 5781" transform="translate(4.529 72.743)">
      <g id="Group_5779" data-name="Group 5779" transform="translate(0 0)">
        <path id="Path_20803" data-name="Path 20803" d="M112.125,126.18a1.531,1.531,0,1,1-1.553-1.509A1.531,1.531,0,0,1,112.125,126.18Z" transform="translate(-109.063 -124.671)" fill="url(#linear-gradient-9)"/>
        <path id="Path_20804" data-name="Path 20804" d="M117.884,132.192a1.278,1.278,0,1,1-1.3-1.259A1.278,1.278,0,0,1,117.884,132.192Z" transform="translate(-115.074 -130.68)" fill="url(#linear-gradient-10)"/>
        <path id="Path_20805" data-name="Path 20805" d="M115.328,128.425a1.532,1.532,0,0,1-2.025,2.083,1.531,1.531,0,1,0,2.025-2.083Z" transform="translate(-113.132 -128.273)" fill="url(#linear-gradient-11)"/>
      </g>
      <g id="Group_5780" data-name="Group 5780" transform="translate(8.738 0)">
        <path id="Path_20806" data-name="Path 20806" d="M328.249,126.18a1.531,1.531,0,1,1-1.553-1.509A1.531,1.531,0,0,1,328.249,126.18Z" transform="translate(-325.187 -124.671)" fill="url(#linear-gradient-12)"/>
        <path id="Path_20807" data-name="Path 20807" d="M334.009,132.192a1.278,1.278,0,1,1-1.3-1.259A1.278,1.278,0,0,1,334.009,132.192Z" transform="translate(-331.199 -130.68)" fill="url(#linear-gradient-13)"/>
        <path id="Path_20808" data-name="Path 20808" d="M331.453,128.425a1.532,1.532,0,0,1-2.025,2.083,1.531,1.531,0,1,0,2.025-2.083Z" transform="translate(-329.257 -128.273)" fill="url(#linear-gradient-14)"/>
      </g>
    </g>
    <g id="Group_5784" data-name="Group 5784" transform="translate(-0.001 75.127)">
      <g id="Group_5782" data-name="Group 5782" transform="translate(0 0)">
        <path id="Path_20809" data-name="Path 20809" d="M3.061,185.273a1.531,1.531,0,1,1-1.553-1.509A1.531,1.531,0,0,1,3.061,185.273Z" transform="translate(0.001 -183.764)" fill="url(#linear-gradient-15)"/>
        <path id="Path_20810" data-name="Path 20810" d="M8.821,191.286a1.278,1.278,0,1,1-1.3-1.259A1.278,1.278,0,0,1,8.821,191.286Z" transform="translate(-6.011 -189.774)" fill="url(#linear-gradient-16)"/>
        <path id="Path_20811" data-name="Path 20811" d="M6.265,187.519A1.532,1.532,0,0,1,4.24,189.6a1.531,1.531,0,1,0,2.025-2.083Z" transform="translate(-4.069 -187.367)" fill="url(#linear-gradient-17)"/>
      </g>
      <g id="Group_5783" data-name="Group 5783" transform="translate(17.797 0)">
        <path id="Path_20812" data-name="Path 20812" d="M437.312,185.273a1.531,1.531,0,1,1-1.553-1.509A1.531,1.531,0,0,1,437.312,185.273Z" transform="translate(-434.25 -183.764)" fill="url(#linear-gradient-18)"/>
        <path id="Path_20813" data-name="Path 20813" d="M443.072,191.286a1.278,1.278,0,1,1-1.3-1.259A1.278,1.278,0,0,1,443.072,191.286Z" transform="translate(-440.262 -189.774)" fill="url(#linear-gradient-19)"/>
        <path id="Path_20814" data-name="Path 20814" d="M440.516,187.519a1.532,1.532,0,0,1-2.025,2.083,1.531,1.531,0,1,0,2.025-2.083Z" transform="translate(-438.32 -187.367)" fill="url(#linear-gradient-20)"/>
      </g>
    </g>
    <g id="Group_5787" data-name="Group 5787" transform="translate(8.281 75.508)">
      <g id="Group_5786" data-name="Group 5786" transform="translate(0 0)">
        <g id="Group_5785" data-name="Group 5785">
          <path id="Path_20815" data-name="Path 20815" d="M203.7,193.421l-1.762,2.546a.386.386,0,0,0,0,.439l1.762,2.546a.386.386,0,0,0,.635,0l1.762-2.546a.386.386,0,0,0,0-.439l-1.762-2.546a.386.386,0,0,0-.635,0Z" transform="translate(-201.873 -193.255)" fill="url(#linear-gradient-21)"/>
          <path id="Path_20816" data-name="Path 20816" d="M210.072,202.4l-1.543,2.23a.338.338,0,0,0,0,.385l1.543,2.23a.338.338,0,0,0,.556,0l1.543-2.23a.338.338,0,0,0,0-.385l-1.543-2.23A.338.338,0,0,0,210.072,202.4Z" transform="translate(-208.202 -201.894)" fill="url(#linear-gradient-22)"/>
          <path id="Path_20817" data-name="Path 20817" d="M217.288,208.19a.3.3,0,0,0-.476-.032l-.019.025-1.436,2.076a.61.61,0,0,0,0,.694l1.37,1.98a.338.338,0,0,0,.407-.12l1.543-2.23a.338.338,0,0,0,0-.385Z" transform="translate(-214.708 -207.458)" fill="url(#linear-gradient-23)"/>
        </g>
        <path id="Path_20818" data-name="Path 20818" d="M254.229,202.409a.336.336,0,0,0-.322-.143V207.4a.336.336,0,0,0,.322-.143l1.543-2.23a.338.338,0,0,0,0-.385Z" transform="translate(-251.803 -201.9)" fill="url(#linear-gradient-24)"/>
        <path id="Path_20819" data-name="Path 20819" d="M210.072,268.209a.338.338,0,0,0,.556,0l1.543-2.23a.338.338,0,0,0,.06-.192h-3.762a.338.338,0,0,0,.06.192Z" transform="translate(-208.202 -262.854)" fill="url(#linear-gradient-25)"/>
      </g>
    </g>
  </g>
</svg>
