<svg xmlns="http://www.w3.org/2000/svg" width="124" height="124" viewBox="0 0 124 124">
  <g id="free_battle" transform="translate(-945 -1498)">
    <g id="Rectangle_8588" data-name="Rectangle 8588" transform="translate(945 1498)" fill="rgba(0,0,0,0.5)" stroke="#86f" stroke-width="2">
      <rect width="124" height="124" rx="62" stroke="none"/>
      <rect x="1" y="1" width="122" height="122" rx="61" fill="none"/>
    </g>
    <g id="free_battle_white" transform="translate(954 1507)">
      <g id="Group_5442" data-name="Group 5442" transform="translate(16 40.941)">
        <g id="Group_5441" data-name="Group 5441">
          <path id="Path_10603" data-name="Path 10603" d="M97.392,192H87.745a2.413,2.413,0,0,0-2.412,2.412v19.294a2.412,2.412,0,0,0,4.824,0V196.823h7.235a2.412,2.412,0,1,0,0-4.823Z" transform="translate(-85.333 -192)" fill="#fff"/>
        </g>
      </g>
      <g id="Group_5444" data-name="Group 5444" transform="translate(16 50.588)">
        <g id="Group_5443" data-name="Group 5443">
          <path id="Path_10604" data-name="Path 10604" d="M92.568,234.667H87.745a2.412,2.412,0,1,0,0,4.823h4.823a2.412,2.412,0,1,0,0-4.823Z" transform="translate(-85.333 -234.667)" fill="#fff"/>
        </g>
      </g>
      <g id="Group_5448" data-name="Group 5448" transform="translate(19.669 12)">
        <g id="Group_5447" data-name="Group 5447">
          <path id="Path_10606" data-name="Path 10606" d="M167.676,79.372a42.647,42.647,0,0,0-65.57,0,2.369,2.369,0,0,0,.381,3.391,2.506,2.506,0,0,0,3.472-.371,37.625,37.625,0,0,1,57.86,0,2.517,2.517,0,0,0,3.477.371A2.369,2.369,0,0,0,167.676,79.372Z" transform="translate(-101.56 -64)" fill="#fff"/>
        </g>
      </g>
      <g id="Group_5450" data-name="Group 5450" transform="translate(21.79 77.116)">
        <g id="Group_5449" data-name="Group 5449">
          <path id="Path_10607" data-name="Path 10607" d="M172.59,352.657a2.526,2.526,0,0,0-3.5.091,37.746,37.746,0,0,1-53.877,0,2.517,2.517,0,0,0-3.5-.091,2.361,2.361,0,0,0-.094,3.41,42.784,42.784,0,0,0,61.061,0A2.365,2.365,0,0,0,172.59,352.657Z" transform="translate(-110.941 -351.994)" fill="#fff"/>
        </g>
      </g>
      <g id="Group_5452" data-name="Group 5452" transform="translate(35.843 40.941)">
        <g id="Group_5451" data-name="Group 5451">
          <path id="Path_10608" data-name="Path 10608" d="M178.837,206.408A7.234,7.234,0,0,0,177.9,192h-4.823a2.413,2.413,0,0,0-2.412,2.412v19.294a2.412,2.412,0,0,0,4.824,0v-3.825l5.528,5.533a2.423,2.423,0,0,0,1.708.7,2.388,2.388,0,0,0,1.7-.709,2.414,2.414,0,0,0,0-3.41Zm-3.347-4.761v-4.823H177.9a2.412,2.412,0,1,1,0,4.824H175.49Z" transform="translate(-170.666 -192)" fill="#fff"/>
        </g>
      </g>
      <g id="Group_5454" data-name="Group 5454" transform="translate(55.686 40.941)">
        <g id="Group_5453" data-name="Group 5453">
          <path id="Path_10609" data-name="Path 10609" d="M268.058,211.294h-7.235V196.823h7.235a2.412,2.412,0,1,0,0-4.823h-9.647A2.413,2.413,0,0,0,256,194.412v19.294a2.413,2.413,0,0,0,2.412,2.412h9.647a2.412,2.412,0,1,0,0-4.824Z" transform="translate(-255.999 -192)" fill="#fff"/>
        </g>
      </g>
      <g id="Group_5456" data-name="Group 5456" transform="translate(55.602 50.588)">
        <g id="Group_5455" data-name="Group 5455">
          <path id="Path_10610" data-name="Path 10610" d="M263.235,234.667h-4.823a2.412,2.412,0,1,0,0,4.823h4.823a2.412,2.412,0,1,0,0-4.823Z" transform="translate(-256 -234.667)" fill="#fff"/>
        </g>
      </g>
      <g id="Group_5458" data-name="Group 5458" transform="translate(75.529 40.941)">
        <g id="Group_5457" data-name="Group 5457">
          <path id="Path_10611" data-name="Path 10611" d="M353.392,211.294h-7.235V196.823h7.235a2.412,2.412,0,1,0,0-4.823h-9.647a2.413,2.413,0,0,0-2.412,2.412v19.294a2.413,2.413,0,0,0,2.412,2.412h9.647a2.412,2.412,0,1,0,0-4.824Z" transform="translate(-341.333 -192)" fill="#fff"/>
        </g>
      </g>
      <g id="Group_5460" data-name="Group 5460" transform="translate(75.529 50.588)">
        <g id="Group_5459" data-name="Group 5459">
          <path id="Path_10612" data-name="Path 10612" d="M348.568,234.667h-4.824a2.412,2.412,0,0,0,0,4.823h4.824a2.412,2.412,0,1,0,0-4.823Z" transform="translate(-341.333 -234.667)" fill="#fff"/>
        </g>
      </g>
    </g>
  </g>
</svg>
