<svg xmlns="http://www.w3.org/2000/svg" width="38" height="38" viewBox="0 0 38 38">
  <g id="game_play_icon" transform="translate(-277 -530)">
    <g id="Rectangle_4542" data-name="Rectangle 4542" transform="translate(277 530)" fill="#fff" stroke="#707070" stroke-width="1" opacity="0">
      <rect width="38" height="38" stroke="none"/>
      <rect x="0.5" y="0.5" width="37" height="37" fill="none"/>
    </g>
    <g id="gamepad" transform="translate(278.998 538.499)">
      <path id="Path_8316" data-name="Path 8316" d="M117.489,66.8H116.4V65.716a.95.95,0,0,0-1.9,0V66.8h-1.085a.95.95,0,0,0,0,1.9H114.5v1.085a.95.95,0,0,0,1.9,0V68.7h1.085a.95.95,0,0,0,0-1.9Zm0,0" transform="translate(-104.92 -59.641)" fill="#FFFFFF"/>
      <path id="Path_8317" data-name="Path 8317" d="M339.3,65.716a.95.95,0,1,1-.95-.95A.95.95,0,0,1,339.3,65.716Zm0,0" transform="translate(-314.93 -59.771)" fill="#FFFFFF"/>
      <path id="Path_8318" data-name="Path 8318" d="M307.17,97.848a.95.95,0,1,1-.95-.95A.95.95,0,0,1,307.17,97.848Zm0,0" transform="translate(-284.938 -89.656)" fill="#FFFFFF"/>
      <path id="Path_8319" data-name="Path 8319" d="M339.3,129.981a.95.95,0,1,1-.95-.95A.95.95,0,0,1,339.3,129.981Zm0,0" transform="translate(-314.93 -119.542)" fill="#FFFFFF"/>
      <path id="Path_8320" data-name="Path 8320" d="M371.435,97.848a.95.95,0,1,1-.95-.95A.95.95,0,0,1,371.435,97.848Zm0,0" transform="translate(-344.923 -89.656)" fill="#FFFFFF"/>
      <path id="Path_8321" data-name="Path 8321" d="M33.889,16.126,31.61,6.022A6.941,6.941,0,0,0,24.929.5H9.076A6.941,6.941,0,0,0,2.394,6.022L.116,16.126A4.332,4.332,0,0,0,4.2,21.5a3.28,3.28,0,0,0,2.821-1.666l1.756-3.052a1.666,1.666,0,0,1,1.433-.846H23.8a1.666,1.666,0,0,1,1.433.847l1.755,3.052A3.28,3.28,0,0,0,29.809,21.5a4.332,4.332,0,0,0,4.08-5.374Zm-4.081,3.3a1.294,1.294,0,0,1-1.113-.658L26.94,15.713A3.652,3.652,0,0,0,23.8,13.857H10.206a3.652,3.652,0,0,0-3.141,1.856L5.309,18.765a1.294,1.294,0,0,1-1.114.657A2.274,2.274,0,0,1,2.055,16.6L4.333,6.5A4.9,4.9,0,0,1,9.075,2.579H24.929A4.9,4.9,0,0,1,29.671,6.5L31.95,16.6A2.274,2.274,0,0,1,29.808,19.422Zm0,0" transform="translate(0 0)" fill="#FFFFFF"/>
    </g>
  </g>
</svg>
