<svg xmlns="http://www.w3.org/2000/svg" width="36" height="36" viewBox="0 0 36 36">
  <g id="gold-medal_rank1" transform="translate(-1845.4 -3042.4)">
    <g id="Rectangle_7507" data-name="Rectangle 7507" transform="translate(1845.4 3042.4)" fill="#fff" stroke="#707070" stroke-width="1" opacity="0">
      <rect width="36" height="36" stroke="none"/>
      <rect x="0.5" y="0.5" width="35" height="35" fill="none"/>
    </g>
    <g id="gold-medal" transform="translate(1848.255 3046.246)">
      <path id="Path_8989" d="M.367,303.325c-.707.707-.475,1.557.683,1.616l3.31.422c1.147.143.915.19,1.052,1.284l.351,3.019c.059,1.165.909,1.39,1.61.689L9.726,308l2.407-2.412a2.089,2.089,0,0,1-.618-.362l-1.705-4.308L4.6,299.1Z" transform="translate(0.033 -282.444)" fill="#ff646f"/>
      <path id="Path_8990" d="M97.6,385.712l-2.1,2.1.119,1.034c.059,1.165.909,1.39,1.61.689l2.353-2.353,2.407-2.412a2.088,2.088,0,0,1-.618-.362L100.01,383.3Z" transform="translate(-89.823 -361.641)" fill="#fc2b3a"/>
      <path id="Path_8991" d="M307.2,304.824l2.407,2.413,2.347,2.353c.707.707,1.557.481,1.616-.689l.351-3.019c.137-1.087-.089-1.141,1.058-1.283l3.31-.422c1.165-.059,1.39-.909.689-1.616l-4.261-4.261-5.693.576Z" transform="translate(-288.944 -281.691)" fill="#ff646f"/>
      <path id="Path_8992" d="M380.9,300.337l4.076,4.082,1.117-.143c1.165-.059,1.39-.909.689-1.616l-4.26-4.261-3.227.327Z" transform="translate(-356.76 -281.757)" fill="#fc2b3a"/>
      <path id="Path_8993" d="M71.221,17.205l1.587.749,2.246.143a2.129,2.129,0,0,1,1.444.862l1.058,1.4,1.919,1.171a2.137,2.137,0,0,1,.879,1.438l.285,1.735L81.8,26.641a2.129,2.129,0,0,1,.113,1.682l-.553,1.67.131,2.252a2.163,2.163,0,0,1-.677,1.545l-1.26,1.218-.927,2.056a2.112,2.112,0,0,1-1.313,1.046L75.63,38.6l-1.783,1.379A2.121,2.121,0,0,1,72.2,40.3l-1.717-.345-2.21.4a2.1,2.1,0,0,1-1.6-.487L65.3,38.751l-2.145-.677a2.126,2.126,0,0,1-1.194-1.182l-.689-1.616-1.587-1.592a2.137,2.137,0,0,1-.511-1.6l.137-1.753-.66-2.157a2.142,2.142,0,0,1,.285-1.658l.933-1.486.41-2.216a2.15,2.15,0,0,1,1.028-1.337l1.515-.885,1.39-1.771a2.118,2.118,0,0,1,1.527-.7l1.753-.077,2.056-.921A2.1,2.1,0,0,1,71.221,17.205Z" transform="translate(-55.11 -16.979)" fill="#ffe287"/>
      <path id="Path_8994" d="M113.026,80.076A9.038,9.038,0,1,0,104,71.038,9.032,9.032,0,0,0,113.026,80.076Z" transform="translate(-97.818 -59.32)" fill="#fdb440"/>
      <path id="Path_8995" d="M305.923,76.752A9.035,9.035,0,0,0,299.5,68.1a17.059,17.059,0,0,1,2.823,9.709,18.616,18.616,0,0,1-.885,5.74c-.143.434-.3.856-.469,1.272a9.038,9.038,0,0,0,4.956-8.069Z" transform="translate(-281.701 -65.057)" fill="#fe9900"/>
      <path id="Path_8996" d="M259.586,28.232a2.159,2.159,0,0,0-.113-1.682l-1.159-1.937-.285-1.735a2.152,2.152,0,0,0-.879-1.438l-1.919-1.171-1.058-1.4a2.153,2.153,0,0,0-1.444-.862l-2.246-.143-1.587-.749a2.141,2.141,0,0,0-1.4-.172,10.6,10.6,0,0,1,3.09,2.989,9.047,9.047,0,0,1,1.474,16.727,14.693,14.693,0,0,1-.778,1.6,13.135,13.135,0,0,1-1.355,1.967,2.14,2.14,0,0,0,.951-.03,1.81,1.81,0,0,0,.654-.3l1.771-1.385,1.682-.493a2.112,2.112,0,0,0,1.313-1.046l.927-2.056,1.218-1.182.042-.036a2.163,2.163,0,0,0,.677-1.545l-.131-2.252Z" transform="translate(-232.791 -16.894)" fill="#ffd64d"/>
      <g id="Group_6067" data-name="Group 6067" transform="translate(12.469 6.852)">
        <path id="Path_9004" data-name="Path 9004" d="M213.942,142.413h-1.89V135.14l-2.252.7v-1.533l3.934-1.408h.2v9.513Z" transform="translate(-209.8 -132.9)" fill="#fff"/>
      </g>
    </g>
  </g>
</svg>
