<svg xmlns="http://www.w3.org/2000/svg" width="120" height="120" viewBox="0 0 120 120">
  <g id="login_otp_verify_page_icon1" transform="translate(-128 -92)">
    <circle id="Ellipse_827" data-name="Ellipse 827" cx="60" cy="60" r="60" transform="translate(128 92)" fill="#330d46"/>
    <g id="key" transform="translate(152 116)">
      <path id="Path_46809" data-name="Path 46809" d="M55.523,28a4.523,4.523,0,1,0,4.523,4.523A4.527,4.527,0,0,0,55.523,28Zm0,6.784a2.261,2.261,0,1,1,2.261-2.261A2.264,2.264,0,0,1,55.523,34.784Z" transform="translate(6.432 3.477)" fill="#9b83a7"/>
      <path id="Path_46810" data-name="Path 46810" d="M58.581,23.581a12.364,12.364,0,0,0-11.571,7.9H45.032V26.975a10.179,10.179,0,0,0-6.321-9.407,9.037,9.037,0,1,0-8.888.589,10.2,10.2,0,0,0-2.1,1.589c-3.132-1.726-5.274-4.691-5.274-7.455a4.516,4.516,0,0,0-9.032,0c0,6.643,4.5,13.017,11.273,16.1l0,3.1H5.174L1,34.267v3.466l3.387,2.258v9.557h6.774V45.032h2.258v4.516h6.774V40.516h4.489L19.254,65.189a4.516,4.516,0,1,0,8.657,2.578L34.02,46.355a4.931,4.931,0,0,1,.435,1.269l3.992,20.158a4.518,4.518,0,0,0,5.626,3.027,4.493,4.493,0,0,0,3.053-5.519L42.932,44.319a4.51,4.51,0,0,0,2.1-3.8h1.977A12.42,12.42,0,1,0,58.581,23.581ZM26.968,10.032a6.774,6.774,0,1,1,6.774,6.774A6.781,6.781,0,0,1,26.968,10.032ZM15.677,12.29a2.258,2.258,0,1,1,4.516,0c0,3.511,2.4,7.094,6.091,9.251A10.081,10.081,0,0,0,24.753,25.9c-5.411-2.833-9.075-8.226-9.075-13.614ZM26.953,26.962a7.911,7.911,0,0,1,15.821.012V40.516a2.258,2.258,0,0,1-4.516,0V28.256a5.63,5.63,0,0,0-2.514-4.7l-1.376-.917-1.252,1.879,1.376.917A3.377,3.377,0,0,1,36,28.256v3.228H26.946ZM3.258,35.475l2.6-1.733H36v4.516H5.858l-2.6-1.733ZM17.935,47.29H15.677V42.774H8.9V47.29H6.645V40.516h11.29Zm27,18.545a2.261,2.261,0,0,1-1.514,2.81,2.314,2.314,0,0,1-2.786-1.409L36.671,47.185a7.28,7.28,0,0,0-4.83-5.484l-.715,2.142a4.978,4.978,0,0,1,1.109.535L25.744,67.131a2.26,2.26,0,1,1-4.3-1.377l5.5-25,0-.24H36a4.521,4.521,0,0,0,4.516,4.516c.086,0,.166-.02.251-.026ZM58.581,46.161a10.12,10.12,0,0,1-9.695-7.113l-.248-.79h-3.6V33.742h3.6l.248-.79a10.162,10.162,0,1,1,9.695,13.21Z" fill="#9b83a7"/>
    </g>
  </g>
</svg>
