<svg xmlns="http://www.w3.org/2000/svg" width="106.056" height="40.312" viewBox="0 0 106.056 40.312">
  <g id="match_tie" transform="translate(-2736.951 -4442)">
    <g id="Group_7741" data-name="Group 7741" transform="translate(2576.719 4100.828)">
      <g id="Group_5748" data-name="Group 5748" transform="translate(155.278 341.172)">
        <g id="Group_5746" data-name="Group 5746" transform="translate(80.255 9.714)">
          <path id="Path_19685" data-name="Path 19685" d="M494.344,400.389c8.878,2.706,23.152,6.458,30.729,11.818.021-4.306.025-3.825,0-8.225a17.668,17.668,0,0,0-.253-4.847c-1.4-10.3-14.189-13.64-25.163-16.963Z" transform="translate(-494.344 -382.171)" fill="#dcaa00"/>
          <path id="Path_19686" data-name="Path 19686" d="M511.358,440.884a96.131,96.131,0,0,0-15.342-6.131l-1.673,5.736A85.815,85.815,0,0,1,511.358,440.884Z" transform="translate(-494.344 -422.271)" fill="#b98f00"/>
        </g>
        <g id="Group_5747" data-name="Group 5747" transform="translate(0 9.714)">
          <path id="Path_19687" data-name="Path 19687" d="M191.023,400.388c-8.878,2.707-23.15,7.021-30.727,12.38.069-4.519-.306-11.078.224-13.134.64-10.319,14.216-14.141,25.189-17.463Z" transform="translate(-155.278 -382.171)" fill="#dcaa00"/>
          <path id="Path_19688" data-name="Path 19688" d="M234.183,440.884a96.137,96.137,0,0,1,15.342-6.131l1.673,5.735A85.835,85.835,0,0,0,234.183,440.884Z" transform="translate(-215.452 -422.271)" fill="#b98f00"/>
        </g>
        <path id="Path_19689" data-name="Path 19689" d="M284.806,369.53a86.926,86.926,0,0,0-78.6-.012l-8.682-16.863a105.95,105.95,0,0,1,95.974.015Z" transform="translate(-187.492 -341.172)" fill="#fec917"/>
      </g>
    </g>
    <g id="Group_7742" data-name="Group 7742" transform="translate(2185.064 2294.101)">
      <g id="Group_5758" data-name="Group 5758">
        <path id="Path_19714" data-name="Path 19714" d="M576.935,2156.411l3.4,10.588c-.932.3-1.4.456-2.321.784-.844-2.378-1.266-3.567-2.109-5.946.173,2.616.285,3.92.56,6.514-.8.3-1.194.457-1.985.781-1.567-2.086-2.374-3.116-4.034-5.147l2.507,5.79c-.916.4-1.371.6-2.277,1.028l-4.735-10.061c1.262-.594,1.9-.878,3.176-1.421,2.053,2.267,3.045,3.423,4.959,5.776-.224-3.017-.3-4.534-.373-7.58C574.986,2157.05,575.634,2156.828,576.935,2156.411Z" fill="#ff3c00"/>
        <path id="Path_19715" data-name="Path 19715" d="M587.123,2163.238c-1.251.277-1.875.427-3.117.753,0,.771,0,1.156,0,1.925-1,.269-1.5.412-2.492.713-.05-4.633.014-6.964.321-11.64,1.251-.325,1.879-.477,3.138-.757,2.4,4.023,3.512,6.069,5.569,10.218-1.02.184-1.529.285-2.543.5C587.654,2164.265,587.478,2163.922,587.123,2163.238Zm-1.131-2.138c-.713-1.325-1.077-1.985-1.823-3.3-.07,1.51-.1,2.264-.131,3.77C584.818,2161.374,585.209,2161.279,585.992,2161.1Z" fill="#ff3c00"/>
        <path id="Path_19716" data-name="Path 19716" d="M597.411,2152.3c.08.988.12,1.482.2,2.469-1.048.085-1.571.135-2.617.252.385,3.455.577,5.182.961,8.638-.968.108-1.452.169-2.417.306-.489-3.443-.733-5.163-1.223-8.6-1.031.146-1.546.227-2.574.4l-.42-2.441A76.135,76.135,0,0,1,597.411,2152.3Z" fill="#ff3c00"/>
        <path id="Path_19717" data-name="Path 19717" d="M605.8,2152.425a4.128,4.128,0,0,1,1.6,1.53,5.823,5.823,0,0,1,.758,2.275c-1.117-.043-1.675-.055-2.792-.062a2.09,2.09,0,0,0-.717-1.035,1.806,1.806,0,0,0-1.138-.361,1.655,1.655,0,0,0-1.415.8,3.429,3.429,0,0,0-.467,2.06,3.663,3.663,0,0,0,.594,2.031,1.594,1.594,0,0,0,1.372.742,1.67,1.67,0,0,0,1.064-.387,2.249,2.249,0,0,0,.69-1.04c1.081.007,1.621.019,2.7.06a5.776,5.776,0,0,1-1.545,3.071,4.2,4.2,0,0,1-5.135.5,4.832,4.832,0,0,1-1.635-1.929,7.658,7.658,0,0,1-.744-2.907,6.984,6.984,0,0,1,.382-2.98,4.3,4.3,0,0,1,4.138-2.888A4.63,4.63,0,0,1,605.8,2152.425Z" fill="#ff3c00"/>
        <path id="Path_19718" data-name="Path 19718" d="M619.024,2153.111c-.694,4.414-1.041,6.618-1.735,11.032-.964-.151-1.446-.219-2.413-.342l.565-4.476c-1.25-.158-1.876-.225-3.131-.336-.159,1.8-.239,2.7-.4,4.494-.975-.087-1.463-.122-2.439-.179.259-4.461.389-6.689.648-11.149,1.112.064,1.668.1,2.778.2l-.37,4.163c1.291.115,1.936.184,3.223.347.209-1.659.314-2.488.524-4.148C617.377,2152.86,617.927,2152.938,619.024,2153.111Z" fill="#ff3c00"/>
        <path id="Path_19719" data-name="Path 19719" d="M631.582,2156.006l-.725,2.369c-1.015-.311-1.524-.459-2.546-.739-.919,3.353-1.378,5.029-2.3,8.383-.946-.26-1.421-.382-2.373-.612.816-3.38,1.224-5.069,2.039-8.448-1.017-.246-1.527-.361-2.549-.576l.51-2.423A76.309,76.309,0,0,1,631.582,2156.006Z" fill="#ff3c00"/>
        <path id="Path_19720" data-name="Path 19720" d="M635.683,2157.369l-3.772,10.513c-.933-.335-1.4-.5-2.343-.8l3.445-10.624C634.085,2156.8,634.619,2156.988,635.683,2157.369Z" fill="#ff3c00"/>
        <path id="Path_19721" data-name="Path 19721" d="M639.354,2161.457c-.287.68-.431,1.021-.717,1.7,1.159.488,1.735.744,2.88,1.276l-.991,2.131c-1.114-.517-1.675-.765-2.8-1.241-.314.745-.471,1.117-.784,1.861,1.245.524,1.863.8,3.091,1.378-.422.9-.633,1.344-1.054,2.24-2.1-.986-3.16-1.439-5.307-2.266,1.607-4.169,2.41-6.254,4.017-10.422,2.445.942,3.656,1.459,6.045,2.583l-1.055,2.241C641.357,2162.318,640.692,2162.021,639.354,2161.457Z" fill="#ff3c00"/>
      </g>
    </g>
    <g id="Group_7743" data-name="Group 7743" transform="translate(2185.064 2293.101)">
      <g id="Group_5758-2" data-name="Group 5758">
        <path id="Path_19714-2" data-name="Path 19714" d="M576.935,2156.411l3.4,10.588c-.932.3-1.4.456-2.321.784-.844-2.378-1.266-3.567-2.109-5.946.173,2.616.285,3.92.56,6.514-.8.3-1.194.457-1.985.781-1.567-2.086-2.374-3.116-4.034-5.147l2.507,5.79c-.916.4-1.371.6-2.277,1.028l-4.735-10.061c1.262-.594,1.9-.878,3.176-1.421,2.053,2.267,3.045,3.423,4.959,5.776-.224-3.017-.3-4.534-.373-7.58C574.986,2157.05,575.634,2156.828,576.935,2156.411Z"/>
        <path id="Path_19715-2" data-name="Path 19715" d="M587.123,2163.238c-1.251.277-1.875.427-3.117.753,0,.771,0,1.156,0,1.925-1,.269-1.5.412-2.492.713-.05-4.633.014-6.964.321-11.64,1.251-.325,1.879-.477,3.138-.757,2.4,4.023,3.512,6.069,5.569,10.218-1.02.184-1.529.285-2.543.5C587.654,2164.265,587.478,2163.922,587.123,2163.238Zm-1.131-2.138c-.713-1.325-1.077-1.985-1.823-3.3-.07,1.51-.1,2.264-.131,3.77C584.818,2161.374,585.209,2161.279,585.992,2161.1Z"/>
        <path id="Path_19716-2" data-name="Path 19716" d="M597.411,2152.3c.08.988.12,1.482.2,2.469-1.048.085-1.571.135-2.617.252.385,3.455.577,5.182.961,8.638-.968.108-1.452.169-2.417.306-.489-3.443-.733-5.163-1.223-8.6-1.031.146-1.546.227-2.574.4l-.42-2.441A76.135,76.135,0,0,1,597.411,2152.3Z"/>
        <path id="Path_19717-2" data-name="Path 19717" d="M605.8,2152.425a4.128,4.128,0,0,1,1.6,1.53,5.823,5.823,0,0,1,.758,2.275c-1.117-.043-1.675-.055-2.792-.062a2.09,2.09,0,0,0-.717-1.035,1.806,1.806,0,0,0-1.138-.361,1.655,1.655,0,0,0-1.415.8,3.429,3.429,0,0,0-.467,2.06,3.663,3.663,0,0,0,.594,2.031,1.594,1.594,0,0,0,1.372.742,1.67,1.67,0,0,0,1.064-.387,2.249,2.249,0,0,0,.69-1.04c1.081.007,1.621.019,2.7.06a5.776,5.776,0,0,1-1.545,3.071,4.2,4.2,0,0,1-5.135.5,4.832,4.832,0,0,1-1.635-1.929,7.658,7.658,0,0,1-.744-2.907,6.984,6.984,0,0,1,.382-2.98,4.3,4.3,0,0,1,4.138-2.888A4.63,4.63,0,0,1,605.8,2152.425Z"/>
        <path id="Path_19718-2" data-name="Path 19718" d="M619.024,2153.111c-.694,4.414-1.041,6.618-1.735,11.032-.964-.151-1.446-.219-2.413-.342l.565-4.476c-1.25-.158-1.876-.225-3.131-.336-.159,1.8-.239,2.7-.4,4.494-.975-.087-1.463-.122-2.439-.179.259-4.461.389-6.689.648-11.149,1.112.064,1.668.1,2.778.2l-.37,4.163c1.291.115,1.936.184,3.223.347.209-1.659.314-2.488.524-4.148C617.377,2152.86,617.927,2152.938,619.024,2153.111Z"/>
        <path id="Path_19719-2" data-name="Path 19719" d="M631.582,2156.006l-.725,2.369c-1.015-.311-1.524-.459-2.546-.739-.919,3.353-1.378,5.029-2.3,8.383-.946-.26-1.421-.382-2.373-.612.816-3.38,1.224-5.069,2.039-8.448-1.017-.246-1.527-.361-2.549-.576l.51-2.423A76.309,76.309,0,0,1,631.582,2156.006Z"/>
        <path id="Path_19720-2" data-name="Path 19720" d="M635.683,2157.369l-3.772,10.513c-.933-.335-1.4-.5-2.343-.8l3.445-10.624C634.085,2156.8,634.619,2156.988,635.683,2157.369Z"/>
        <path id="Path_19721-2" data-name="Path 19721" d="M639.354,2161.457c-.287.68-.431,1.021-.717,1.7,1.159.488,1.735.744,2.88,1.276l-.991,2.131c-1.114-.517-1.675-.765-2.8-1.241-.314.745-.471,1.117-.784,1.861,1.245.524,1.863.8,3.091,1.378-.422.9-.633,1.344-1.054,2.24-2.1-.986-3.16-1.439-5.307-2.266,1.607-4.169,2.41-6.254,4.017-10.422,2.445.942,3.656,1.459,6.045,2.583l-1.055,2.241C641.357,2162.318,640.692,2162.021,639.354,2161.457Z"/>
      </g>
    </g>
  </g>
</svg>
