<svg xmlns="http://www.w3.org/2000/svg" xmlns:xlink="http://www.w3.org/1999/xlink" width="250" height="110" viewBox="0 0 250 110">
  <defs>
    <linearGradient id="linear-gradient" x1="0.5" x2="0.5" y2="1" gradientUnits="objectBoundingBox">
      <stop offset="0" stop-color="#bd66fc"/>
      <stop offset="1" stop-color="#8235e3"/>
    </linearGradient>
    <linearGradient id="linear-gradient-11" x1="0.5" y1="1" x2="0.5" gradientUnits="objectBoundingBox">
      <stop offset="0" stop-color="#8235e3"/>
      <stop offset="1" stop-color="#bd66fc"/>
    </linearGradient>
  </defs>
  <g id="mobibattle-onboarding-logo" transform="translate(-462.544 -606.752)">
    <g id="Group_15" data-name="Group 15" transform="translate(558.034 674.074)">
      <path id="Path_42" data-name="Path 42" d="M448.533,748.886h4.579a.389.389,0,0,1,.39.389v21.953a.388.388,0,0,1-.39.389H448.5a.388.388,0,0,1-.389-.389V758.173c0-.086-.022-.13-.065-.13s-.087.032-.129.1l-2.793,4.481a.466.466,0,0,1-.455.26h-2.306a.463.463,0,0,1-.454-.26l-2.826-4.513c-.043-.065-.086-.1-.13-.1s-.064.044-.064.13v13.087a.389.389,0,0,1-.39.389h-4.611a.378.378,0,0,1-.276-.114.373.373,0,0,1-.113-.276V749.276a.389.389,0,0,1,.389-.389h4.578a.511.511,0,0,1,.456.26l4.513,7.079c.065.13.13.13.195,0l4.449-7.079A.465.465,0,0,1,448.533,748.886Z" transform="translate(-433.498 -747.685)" fill="url(#linear-gradient)"/>
      <path id="Path_43" data-name="Path 43" d="M463.273,771.349a7.458,7.458,0,0,1-2.728-4.222,10.369,10.369,0,0,1-.39-2.923,10.682,10.682,0,0,1,.422-3.15,7.239,7.239,0,0,1,2.777-4.01,8.262,8.262,0,0,1,4.92-1.444,7.993,7.993,0,0,1,4.838,1.444,7.494,7.494,0,0,1,2.76,3.978,10.444,10.444,0,0,1,.455,3.117A11.245,11.245,0,0,1,475.97,767a7.62,7.62,0,0,1-2.728,4.319,8.674,8.674,0,0,1-9.969.033ZM469.8,767.7a3.608,3.608,0,0,0,.909-1.64,8.259,8.259,0,0,0,.194-1.852,7.784,7.784,0,0,0-.227-1.884,3.059,3.059,0,0,0-.876-1.559,2.256,2.256,0,0,0-1.559-.552,2.455,2.455,0,0,0-2.468,2.111,7.893,7.893,0,0,0-.195,1.884,8.257,8.257,0,0,0,.195,1.852,3.3,3.3,0,0,0,.893,1.64,2.2,2.2,0,0,0,1.575.6A2.146,2.146,0,0,0,469.8,767.7Z" transform="translate(-437.587 -748.714)" fill="url(#linear-gradient)"/>
      <path id="Path_44" data-name="Path 44" d="M498.3,763.142a13.2,13.2,0,0,1-.52,3.767,7.155,7.155,0,0,1-2.42,3.637,6.178,6.178,0,0,1-3.912,1.332,4.341,4.341,0,0,1-3.767-1.819c-.044-.065-.086-.086-.129-.065a.131.131,0,0,0-.065.13v1.1a.387.387,0,0,1-.39.389h-4.611a.388.388,0,0,1-.389-.389V749.276a.389.389,0,0,1,.389-.389H487.1a.389.389,0,0,1,.39.389v6.787c0,.065.021.1.065.114a.135.135,0,0,0,.129-.049,4.228,4.228,0,0,1,3.572-1.559,6.431,6.431,0,0,1,3.978,1.234,7.023,7.023,0,0,1,2.387,3.248A11.588,11.588,0,0,1,498.3,763.142Zm-5.618.1a5.665,5.665,0,0,0-.649-2.89,2.223,2.223,0,0,0-3.9-.032,5.752,5.752,0,0,0-.616,2.922,5.879,5.879,0,0,0,.552,2.76,2.145,2.145,0,0,0,1.98,1.267,2.2,2.2,0,0,0,2.046-1.234A5.812,5.812,0,0,0,492.682,763.24Z" transform="translate(-440.952 -747.685)" fill="url(#linear-gradient)"/>
      <path id="Path_45" data-name="Path 45" d="M504.755,752.322a3.007,3.007,0,0,1,0-4.076,3.033,3.033,0,0,1,4.059,0,2.877,2.877,0,0,1-4.059,4.076Zm-.584,18.965a.374.374,0,0,1-.114-.276V755a.375.375,0,0,1,.114-.276.37.37,0,0,1,.275-.113h4.612a.387.387,0,0,1,.389.389v16.01a.388.388,0,0,1-.389.389h-4.612A.373.373,0,0,1,504.171,771.287Z" transform="translate(-444.306 -747.467)" fill="url(#linear-gradient)"/>
      <path id="Path_46" data-name="Path 46" d="M528.2,759.992a5.414,5.414,0,0,1,2.956,5.2,5.539,5.539,0,0,1-2.241,4.839,9.939,9.939,0,0,1-5.878,1.591H514.4a.378.378,0,0,1-.277-.114.373.373,0,0,1-.113-.276V749.276a.389.389,0,0,1,.39-.389h8.378a10.037,10.037,0,0,1,5.991,1.494q2.029,1.493,2.029,4.838a4.8,4.8,0,0,1-2.6,4.578Q528,759.9,528.2,759.992Zm-8.8-6.332v4.091a.143.143,0,0,0,.163.163h3.215a3.217,3.217,0,0,0,2.046-.568,1.936,1.936,0,0,0,.714-1.607,2.02,2.02,0,0,0-.714-1.657,3.157,3.157,0,0,0-2.046-.584h-3.215A.144.144,0,0,0,519.4,753.66Zm5.65,12.713a2.449,2.449,0,0,0,.017-3.442,3.037,3.037,0,0,0-2.03-.6h-3.474a.143.143,0,0,0-.163.162v4.319a.144.144,0,0,0,.163.163h3.474A3.035,3.035,0,0,0,525.049,766.373Z" transform="translate(-445.847 -747.685)" fill="url(#linear-gradient)"/>
      <path id="Path_47" data-name="Path 47" d="M548.207,756.33a6.686,6.686,0,0,1,2.761,2.013,4.5,4.5,0,0,1,1.007,2.841v11.074a.388.388,0,0,1-.39.39h-4.612a.388.388,0,0,1-.389-.39v-1.137c0-.086-.022-.135-.065-.146s-.086.027-.13.113q-1.233,1.819-4.221,1.819a6.5,6.5,0,0,1-4.14-1.218,4.294,4.294,0,0,1-1.543-3.588,4.627,4.627,0,0,1,1.737-3.864,8.042,8.042,0,0,1,5.05-1.365h3.149a.143.143,0,0,0,.163-.162v-.617a1.726,1.726,0,0,0-.585-1.38,2.4,2.4,0,0,0-1.623-.5,2.921,2.921,0,0,0-1.348.292,1.393,1.393,0,0,0-.731.747c-.109.238-.26.346-.455.324l-4.677-.616c-.259-.043-.389-.141-.389-.293a4.512,4.512,0,0,1,1.12-2.581,6.7,6.7,0,0,1,2.662-1.818,9.981,9.981,0,0,1,3.718-.665A10.113,10.113,0,0,1,548.207,756.33Zm-2.419,12.08a2.031,2.031,0,0,0,.8-1.672v-.78a.143.143,0,0,0-.163-.162h-1.948a3.557,3.557,0,0,0-1.9.422,1.4,1.4,0,0,0-.666,1.267,1.425,1.425,0,0,0,.488,1.136,2.012,2.012,0,0,0,1.364.422A3.158,3.158,0,0,0,545.788,768.409Z" transform="translate(-449.294 -748.714)" fill="url(#linear-gradient)"/>
      <path id="Path_48" data-name="Path 48" d="M568.041,759.3a.374.374,0,0,1-.276.114h-2.955a.143.143,0,0,0-.162.162v5.91q0,1.85,1.493,1.851h1.2a.387.387,0,0,1,.389.389v3.768a.4.4,0,0,1-.389.422q-1.558.065-2.273.065a7.769,7.769,0,0,1-4.189-.893q-1.365-.893-1.4-3.393v-8.118a.144.144,0,0,0-.163-.162h-1.851a.375.375,0,0,1-.276-.114.371.371,0,0,1-.113-.275v-3.54a.387.387,0,0,1,.389-.389h1.851a.144.144,0,0,0,.163-.163V751a.387.387,0,0,1,.389-.39h4.384a.387.387,0,0,1,.389.39v3.929a.143.143,0,0,0,.162.163h2.955a.373.373,0,0,1,.276.113.378.378,0,0,1,.114.276v3.54A.375.375,0,0,1,568.041,759.3Z" transform="translate(-452.454 -747.949)" fill="url(#linear-gradient)"/>
      <path id="Path_49" data-name="Path 49" d="M582.846,759.3a.373.373,0,0,1-.275.114h-2.956a.144.144,0,0,0-.163.162v5.91q0,1.85,1.493,1.851h1.2a.388.388,0,0,1,.39.389v3.768a.4.4,0,0,1-.39.422q-1.558.065-2.273.065a7.769,7.769,0,0,1-4.189-.893q-1.364-.893-1.4-3.393v-8.118a.144.144,0,0,0-.163-.162h-1.852a.39.39,0,0,1-.389-.389v-3.54a.375.375,0,0,1,.114-.276.371.371,0,0,1,.275-.113h1.852a.144.144,0,0,0,.163-.163V751a.387.387,0,0,1,.389-.39h4.384a.388.388,0,0,1,.389.39v3.929a.144.144,0,0,0,.163.163h2.956a.389.389,0,0,1,.389.389v3.54A.372.372,0,0,1,582.846,759.3Z" transform="translate(-454.725 -747.949)" fill="url(#linear-gradient)"/>
      <path id="Path_50" data-name="Path 50" d="M587.649,771.5a.373.373,0,0,1-.113-.276V749.276a.389.389,0,0,1,.39-.389h4.611a.39.39,0,0,1,.39.389v21.953a.389.389,0,0,1-.39.389h-4.611A.378.378,0,0,1,587.649,771.5Z" transform="translate(-457.125 -747.685)" fill="url(#linear-gradient)"/>
      <path id="Path_51" data-name="Path 51" d="M612.686,765.334a.379.379,0,0,1-.422.39h-9.9a.217.217,0,0,0-.13.048.082.082,0,0,0-.032.114,4.346,4.346,0,0,0,.324.942,2.884,2.884,0,0,0,1.169,1.1,3.975,3.975,0,0,0,1.916.422,4.053,4.053,0,0,0,3.215-1.332.373.373,0,0,1,.292-.162.308.308,0,0,1,.26.13l2.5,2.857a.309.309,0,0,1,.13.26.373.373,0,0,1-.13.26,7.407,7.407,0,0,1-2.809,1.884,10.018,10.018,0,0,1-3.653.649,9.314,9.314,0,0,1-5.017-1.283,7.238,7.238,0,0,1-2.972-3.589,10.524,10.524,0,0,1-.681-4.059,10.2,10.2,0,0,1,.519-3.248,7.611,7.611,0,0,1,2.777-3.783,7.694,7.694,0,0,1,4.595-1.38,7.838,7.838,0,0,1,3.832.924,7.525,7.525,0,0,1,2.745,2.566,9.508,9.508,0,0,1,1.38,3.718A13.128,13.128,0,0,1,612.686,765.334ZM602.392,761.8a2.777,2.777,0,0,0-.163.682c-.044.108,0,.163.13.163h4.612a.114.114,0,0,0,.129-.13,2.752,2.752,0,0,0-.957-1.884,2.569,2.569,0,0,0-1.51-.422A2.175,2.175,0,0,0,602.392,761.8Z" transform="translate(-458.537 -748.709)" fill="url(#linear-gradient)"/>
    </g>
    <g id="Group_16" data-name="Group 16" transform="translate(557.352 705.959)" opacity="0.7">
      <path id="Path_52" data-name="Path 52" d="M439.081,785.03h1.044a.122.122,0,0,1,.137.138v9.342a.121.121,0,0,1-.137.138h-1.044a.122.122,0,0,1-.138-.138v-7.034a.054.054,0,0,0-.028-.054c-.018-.009-.032,0-.041.027l-1.965,3a.184.184,0,0,1-.164.082h-.522a.208.208,0,0,1-.165-.082l-1.978-2.968c-.009-.027-.022-.036-.041-.027a.055.055,0,0,0-.028.055v7.007a.121.121,0,0,1-.137.138h-1.045a.121.121,0,0,1-.137-.138v-9.342a.122.122,0,0,1,.137-.138h1.045a.184.184,0,0,1,.165.083l2.4,3.6a.058.058,0,0,0,.041.013.056.056,0,0,0,.041-.013l2.39-3.6A.206.206,0,0,1,439.081,785.03Z" transform="translate(-432.692 -784.92)" fill="#fff"/>
      <path id="Path_53" data-name="Path 53" d="M445.608,794.339a2.947,2.947,0,0,1-1.2-1.162,3.416,3.416,0,0,1-.426-1.724v-3.27a3.383,3.383,0,0,1,.426-1.717,2.96,2.96,0,0,1,1.2-1.154,4.044,4.044,0,0,1,3.558,0,2.971,2.971,0,0,1,1.2,1.154,3.392,3.392,0,0,1,.426,1.717v3.27a3.424,3.424,0,0,1-.426,1.724,2.958,2.958,0,0,1-1.2,1.162,4.045,4.045,0,0,1-3.558,0Zm3.283-1.306a2.059,2.059,0,0,0,.577-1.525v-3.338a2.1,2.1,0,0,0-.577-1.546,2.029,2.029,0,0,0-1.511-.584,2.007,2.007,0,0,0-1.5.584,2.117,2.117,0,0,0-.57,1.546v3.338a2.075,2.075,0,0,0,.57,1.525,2.019,2.019,0,0,0,1.5.577A2.041,2.041,0,0,0,448.891,793.033Z" transform="translate(-434.424 -784.9)" fill="#fff"/>
      <path id="Path_54" data-name="Path 54" d="M459.513,789.714a2.281,2.281,0,0,1,1.457,2.3,2.378,2.378,0,0,1-.838,1.951,3.335,3.335,0,0,1-2.184.687h-3.421a.121.121,0,0,1-.137-.138v-9.342a.122.122,0,0,1,.137-.138h3.311a3.391,3.391,0,0,1,2.219.653,2.327,2.327,0,0,1,.79,1.9,2.044,2.044,0,0,1-1.333,2.046C459.467,789.66,459.467,789.687,459.513,789.714Zm-3.806-3.489v2.9a.049.049,0,0,0,.055.055h2.075a1.861,1.861,0,0,0,1.257-.4,1.364,1.364,0,0,0,.46-1.086,1.421,1.421,0,0,0-.46-1.112,1.82,1.82,0,0,0-1.257-.412h-2.075A.049.049,0,0,0,455.707,786.225Zm3.483,6.835a1.719,1.719,0,0,0-.007-2.349,1.809,1.809,0,0,0-1.278-.433h-2.144a.049.049,0,0,0-.055.055v3.105a.049.049,0,0,0,.055.055h2.185A1.74,1.74,0,0,0,459.19,793.06Z" transform="translate(-436.02 -784.92)" fill="#fff"/>
      <path id="Path_55" data-name="Path 55" d="M464.515,794.51v-9.342a.122.122,0,0,1,.137-.138H465.7a.122.122,0,0,1,.138.138v9.342a.122.122,0,0,1-.138.138h-1.044A.122.122,0,0,1,464.515,794.51Z" transform="translate(-437.573 -784.92)" fill="#fff"/>
      <path id="Path_56" data-name="Path 56" d="M468.734,794.51v-9.342a.122.122,0,0,1,.137-.138h1.044a.122.122,0,0,1,.138.138v8.284a.049.049,0,0,0,.055.055h4.739a.121.121,0,0,1,.137.137v.865a.121.121,0,0,1-.137.138h-5.976A.121.121,0,0,1,468.734,794.51Z" transform="translate(-438.22 -784.92)" fill="#fff"/>
      <path id="Path_57" data-name="Path 57" d="M484.235,786.17h-4.876a.049.049,0,0,0-.055.055v2.954a.049.049,0,0,0,.055.055h3.353a.121.121,0,0,1,.137.137v.866a.121.121,0,0,1-.137.137h-3.353a.049.049,0,0,0-.055.055v3.022a.049.049,0,0,0,.055.055h4.876a.122.122,0,0,1,.138.137v.865a.122.122,0,0,1-.138.138h-6.113a.121.121,0,0,1-.137-.138v-9.342a.122.122,0,0,1,.137-.138h6.113a.123.123,0,0,1,.138.138v.865A.122.122,0,0,1,484.235,786.17Z" transform="translate(-439.639 -784.92)" fill="#fff"/>
      <path id="Path_58" data-name="Path 58" d="M496.16,785.364a2.449,2.449,0,0,1,.989.983,2.953,2.953,0,0,1,.351,1.456,2.835,2.835,0,0,1-.357,1.443,2.46,2.46,0,0,1-1.01.962,3.188,3.188,0,0,1-1.5.344H492.21a.049.049,0,0,0-.055.055v3.9a.122.122,0,0,1-.137.138h-1.045a.122.122,0,0,1-.137-.138v-9.356a.121.121,0,0,1,.137-.137h3.71A3.026,3.026,0,0,1,496.16,785.364Zm-.439,3.661a1.6,1.6,0,0,0,.461-1.2,1.581,1.581,0,0,0-1.676-1.676H492.21a.049.049,0,0,0-.055.055v3.214a.048.048,0,0,0,.055.055H494.5A1.655,1.655,0,0,0,495.72,789.025Z" transform="translate(-441.61 -784.918)" fill="#fff"/>
      <path id="Path_59" data-name="Path 59" d="M505.887,794.551l-1.924-4.108a.053.053,0,0,0-.055-.042H501.93a.048.048,0,0,0-.054.055v4.053a.122.122,0,0,1-.138.138h-1.044a.122.122,0,0,1-.137-.138v-9.342a.122.122,0,0,1,.137-.138h3.7a2.959,2.959,0,0,1,1.449.344,2.413,2.413,0,0,1,.969.962,2.884,2.884,0,0,1,.344,1.428,2.627,2.627,0,0,1-.5,1.628,2.458,2.458,0,0,1-1.393.9c-.037.018-.047.041-.028.068l1.992,4.122a.15.15,0,0,1,.014.069c0,.064-.037.1-.111.1h-1.084A.151.151,0,0,1,505.887,794.551Zm-4.011-8.326V789.3a.048.048,0,0,0,.054.055h2.294a1.6,1.6,0,0,0,1.168-.433,1.539,1.539,0,0,0,.439-1.147,1.511,1.511,0,0,0-1.608-1.608H501.93A.048.048,0,0,0,501.876,786.225Z" transform="translate(-443.101 -784.92)" fill="#fff"/>
      <path id="Path_60" data-name="Path 60" d="M516.755,786.17h-4.877a.048.048,0,0,0-.055.055v2.954a.048.048,0,0,0,.055.055h3.352a.121.121,0,0,1,.137.137v.866a.121.121,0,0,1-.137.137h-3.352a.048.048,0,0,0-.055.055v3.022a.048.048,0,0,0,.055.055h4.877a.121.121,0,0,1,.137.137v.865a.121.121,0,0,1-.137.138h-6.113a.122.122,0,0,1-.138-.138v-9.342a.122.122,0,0,1,.138-.138h6.113a.122.122,0,0,1,.137.138v.865A.121.121,0,0,1,516.755,786.17Z" transform="translate(-444.627 -784.92)" fill="#fff"/>
      <path id="Path_61" data-name="Path 61" d="M526.6,785.03h1.045a.122.122,0,0,1,.137.138v9.342a.122.122,0,0,1-.137.138H526.6a.122.122,0,0,1-.137-.138v-7.034a.054.054,0,0,0-.028-.054c-.018-.009-.032,0-.041.027l-1.965,3a.184.184,0,0,1-.164.082h-.522a.207.207,0,0,1-.165-.082l-1.979-2.968c-.009-.027-.023-.036-.041-.027a.055.055,0,0,0-.028.055v7.007a.122.122,0,0,1-.138.138h-1.044a.122.122,0,0,1-.137-.138v-9.342a.122.122,0,0,1,.137-.138h1.044a.186.186,0,0,1,.166.083l2.4,3.6a.058.058,0,0,0,.042.013.056.056,0,0,0,.042-.013l2.39-3.6A.206.206,0,0,1,526.6,785.03Z" transform="translate(-446.115 -784.92)" fill="#fff"/>
      <path id="Path_62" data-name="Path 62" d="M531.811,794.51v-9.342a.122.122,0,0,1,.138-.138h1.044a.122.122,0,0,1,.137.138v9.342a.122.122,0,0,1-.137.138h-1.044A.122.122,0,0,1,531.811,794.51Z" transform="translate(-447.895 -784.92)" fill="#fff"/>
      <path id="Path_63" data-name="Path 63" d="M542.282,786.17H537.4a.048.048,0,0,0-.055.055v2.954a.049.049,0,0,0,.055.055h3.352a.122.122,0,0,1,.138.137v.866a.122.122,0,0,1-.138.137H537.4a.048.048,0,0,0-.055.055v3.022a.049.049,0,0,0,.055.055h4.877a.121.121,0,0,1,.137.137v.865a.121.121,0,0,1-.137.138h-6.113a.121.121,0,0,1-.137-.138v-9.342a.122.122,0,0,1,.137-.138h6.113a.122.122,0,0,1,.137.138v.865A.121.121,0,0,1,542.282,786.17Z" transform="translate(-448.543 -784.92)" fill="#fff"/>
      <path id="Path_64" data-name="Path 64" d="M551.065,794.551l-1.924-4.108a.054.054,0,0,0-.055-.042h-1.979a.049.049,0,0,0-.055.055v4.053a.121.121,0,0,1-.137.138h-1.045a.122.122,0,0,1-.137-.138v-9.342a.122.122,0,0,1,.137-.138h3.7a2.959,2.959,0,0,1,1.449.344,2.412,2.412,0,0,1,.969.962,2.884,2.884,0,0,1,.343,1.428,2.627,2.627,0,0,1-.5,1.628,2.46,2.46,0,0,1-1.394.9c-.036.018-.046.041-.027.068l1.992,4.122a.163.163,0,0,1,.014.069c0,.064-.037.1-.11.1h-1.085A.149.149,0,0,1,551.065,794.551Zm-4.012-8.326V789.3a.049.049,0,0,0,.055.055H549.4a1.6,1.6,0,0,0,1.168-.433,1.542,1.542,0,0,0,.439-1.147,1.511,1.511,0,0,0-1.608-1.608h-2.294A.049.049,0,0,0,547.053,786.225Z" transform="translate(-450.031 -784.92)" fill="#fff"/>
      <path id="Path_65" data-name="Path 65" d="M558.927,794.51v-9.342a.122.122,0,0,1,.137-.138h1.045a.122.122,0,0,1,.137.138v8.284a.049.049,0,0,0,.055.055h4.74a.121.121,0,0,1,.137.137v.865a.121.121,0,0,1-.137.138h-5.977A.122.122,0,0,1,558.927,794.51Z" transform="translate(-452.054 -784.92)" fill="#fff"/>
      <path id="Path_66" data-name="Path 66" d="M574.428,786.17h-4.877a.049.049,0,0,0-.055.055v2.954a.049.049,0,0,0,.055.055H572.9a.121.121,0,0,1,.137.137v.866a.121.121,0,0,1-.137.137h-3.353a.049.049,0,0,0-.055.055v3.022a.049.049,0,0,0,.055.055h4.877a.122.122,0,0,1,.138.137v.865a.122.122,0,0,1-.138.138h-6.114a.121.121,0,0,1-.137-.138v-9.342a.122.122,0,0,1,.137-.138h6.114a.122.122,0,0,1,.138.138v.865A.122.122,0,0,1,574.428,786.17Z" transform="translate(-453.473 -784.92)" fill="#fff"/>
      <path id="Path_67" data-name="Path 67" d="M583.432,794.538l-.494-1.608a.056.056,0,0,0-.056-.042h-3.861a.055.055,0,0,0-.055.042l-.494,1.608a.16.16,0,0,1-.164.11h-1.113c-.1,0-.137-.051-.11-.152l3.009-9.356a.16.16,0,0,1,.165-.11h1.373a.161.161,0,0,1,.165.11l3.036,9.356.014.055c0,.064-.041.1-.123.1H583.6A.16.16,0,0,1,583.432,794.538Zm-4.115-2.714a.064.064,0,0,0,.048.021h3.16a.063.063,0,0,0,.047-.021.037.037,0,0,0,.007-.047l-1.593-5.1a.044.044,0,0,0-.042-.028.045.045,0,0,0-.041.028l-1.593,5.1A.037.037,0,0,0,579.317,791.823Z" transform="translate(-454.838 -784.92)" fill="#fff"/>
      <path id="Path_68" data-name="Path 68" d="M589.4,794.346a2.836,2.836,0,0,1-1.182-1.113,3.231,3.231,0,0,1-.419-1.655V788.06a3.226,3.226,0,0,1,.419-1.663,2.845,2.845,0,0,1,1.182-1.106,4.127,4.127,0,0,1,3.5-.007,2.834,2.834,0,0,1,1.593,2.6v.152a.121.121,0,0,1-.137.137h-1.044a.121.121,0,0,1-.138-.137v-.125a1.742,1.742,0,0,0-.556-1.339,2.066,2.066,0,0,0-1.463-.515,2.039,2.039,0,0,0-1.477.535,1.9,1.9,0,0,0-.555,1.429v3.6a1.853,1.853,0,0,0,.577,1.429,2.132,2.132,0,0,0,1.511.536,2.075,2.075,0,0,0,1.436-.473,1.658,1.658,0,0,0,.528-1.3v-1.058a.049.049,0,0,0-.055-.055h-1.854a.121.121,0,0,1-.137-.137v-.852a.121.121,0,0,1,.137-.137h3.091a.121.121,0,0,1,.137.137v1.745a3.19,3.19,0,0,1-.9,2.432,3.4,3.4,0,0,1-2.439.852A3.782,3.782,0,0,1,589.4,794.346Z" transform="translate(-456.482 -784.9)" fill="#fff"/>
      <path id="Path_69" data-name="Path 69" d="M599.554,794.366a2.874,2.874,0,0,1-1.189-1.113,3.193,3.193,0,0,1-.426-1.655v-6.429a.122.122,0,0,1,.137-.138h1.044a.122.122,0,0,1,.138.138v6.457a1.91,1.91,0,0,0,.57,1.442,2.058,2.058,0,0,0,1.491.549,2.035,2.035,0,0,0,1.484-.549,1.924,1.924,0,0,0,.562-1.442v-6.457a.122.122,0,0,1,.138-.138h1.044a.122.122,0,0,1,.138.138V791.6a3.231,3.231,0,0,1-.419,1.655,2.837,2.837,0,0,1-1.182,1.113,4.179,4.179,0,0,1-3.53,0Z" transform="translate(-458.038 -784.92)" fill="#fff"/>
      <path id="Path_70" data-name="Path 70" d="M614.706,786.17h-4.877a.048.048,0,0,0-.055.055v2.954a.048.048,0,0,0,.055.055h3.352a.121.121,0,0,1,.137.137v.866a.121.121,0,0,1-.137.137h-3.352a.048.048,0,0,0-.055.055v3.022a.048.048,0,0,0,.055.055h4.877a.121.121,0,0,1,.137.137v.865a.121.121,0,0,1-.137.138h-6.114a.122.122,0,0,1-.137-.138v-9.342a.122.122,0,0,1,.137-.138h6.114a.122.122,0,0,1,.137.138v.865A.121.121,0,0,1,614.706,786.17Z" transform="translate(-459.651 -784.92)" fill="#fff"/>
    </g>
    <g id="Group_19" data-name="Group 19" transform="translate(462.544 606.752)">
      <path id="Path_71" data-name="Path 71" d="M543.9,686.484c1.889-15.617-.365-24.632-.365-24.632s1.049-.778,2.8,1.815c1.638-2.462-1.9-4.086-1.9-4.086s3.507-2.25,2.994-6.148c-1.46,2.729-3.049,2.784-3.049,2.784s2.053-3.215.572-6.142l-2.061,3.213c3.425-10.815-16.649-13.038-16.7-21.685a4.753,4.753,0,0,1,5.706-3.618c-1.6-4.465-6.475-1.72-6.475-1.72.119-3.681,6.385-7.191,11.374-1.457,1.119-2.838-.134-5.239-2.9-7.143-6.3-4.342-18.017,2.681-18.017,2.681s.06-11.657,13.067-9.981c-1.554-3.808-6.619-4.268-10.978-2.93a21.482,21.482,0,0,0-15.219,17.4s-3.321-2.253-1.569-7.295c-5,1.187-5.362,14.081-5.362,14.081s-3.816-.266-5.059-7.736c-10.408,17.917,1.256,30.006,1.256,30.006s-5.467-.073-8.922-8.264a14.64,14.64,0,0,0,4.31,13.113,5.928,5.928,0,0,1-3.52.746c.692,2.405,3.8,3.113,4.849,4.924-2.169,5.531-1.659,13.89-.159,22.22-14.672,4.245-19.029,30.119-6.332,30.119,7.629,0,5.553-5.079,5.553-5.079s0-.018-.015-.055a2.066,2.066,0,0,0,1.574-.356,1.531,1.531,0,0,0,.72-2.232,11.363,11.363,0,0,0-3.527-4.431c-.376-4.369-.006-9.61,3.207-12.218a187.006,187.006,0,0,0,6.766,22.455s1.883,1.915,7.054,1.915,3.218-1.915,3.218-1.915-3.533-7.326,10.081-7.326,9.835,7.326,9.835,7.326-1.01,1.915,3.641,1.915,6.695-1.915,6.695-1.915a136.551,136.551,0,0,0,6-22.642c3.429,2.541,3.817,7.933,3.433,12.4a11.363,11.363,0,0,0-3.527,4.431,1.53,1.53,0,0,0,.721,2.232,2.063,2.063,0,0,0,1.573.356c-.011.037-.015.055-.015.055s-2.076,5.079,5.553,5.079C563.661,716.752,559.026,690.216,543.9,686.484Z" transform="translate(-474.776 -606.752)" fill="url(#linear-gradient-11)"/>
      <path id="Path_72" data-name="Path 72" d="M542.871,683.95c-1.321-6.532-7.084-9.346-12.869-9.878-9.567-.944-23.954-.055-28.549,2.286-3.645,1.858-6.67,5.693-6.314,9.932.366,4.345,4.48,6.368,8.2,7.337,5.906,1.537,24.992,1.3,28.381.97C537.89,693.989,544.348,691.258,542.871,683.95Z" transform="translate(-477.895 -616.441)" fill="#fff"/>
      <g id="Group_18" data-name="Group 18" transform="translate(22.555 64.722)">
        <g id="Group_17" data-name="Group 17">
          <path id="Path_73" data-name="Path 73" d="M508.483,686.44a3.532,3.532,0,0,1-7.065,0C501.418,684.489,508.483,684.489,508.483,686.44Z" transform="translate(-501.418 -682.907)" fill="#8235e3"/>
          <path id="Path_74" data-name="Path 74" d="M545.606,686.065a3.533,3.533,0,1,1-3.533-3.533A3.532,3.532,0,0,1,545.606,686.065Z" transform="translate(-507.112 -682.532)" fill="#8235e3"/>
        </g>
      </g>
    </g>
  </g>
</svg>
