<svg xmlns="http://www.w3.org/2000/svg" width="64" height="64" viewBox="0 0 64 64">
  <g id="play_4_icon" data-name="play$4_icon" transform="translate(-63 -469)">
    <rect id="Rectangle_759" data-name="Rectangle 759" width="64" height="64" rx="15" transform="translate(63 469)" fill="#5f9be7"/>
    <g id="XMLID_1487_" transform="translate(76.593 477.333)">
      <g id="XMLID_1153_" transform="translate(0 0)">
        <path id="XMLID_1329_" d="M96.435,26.249,89.186,15.169a3.11,3.11,0,0,0-.3-5.7l2.2-7.485a.909.909,0,0,0-.241-.908,3.819,3.819,0,0,0-5.3,0,1.862,1.862,0,0,1-1.308.528,1.863,1.863,0,0,1-1.31-.53l0,0a3.822,3.822,0,0,0-5.289-.008l-.027.026a1.887,1.887,0,0,1-2.611,0l-.007-.007a3.819,3.819,0,0,0-5.3,0,.909.909,0,0,0-.241.909l2.2,7.483a3.11,3.11,0,0,0-.3,5.7L64.093,26.249a13.244,13.244,0,0,0-.475,13.965,13.936,13.936,0,0,0,12.33,7.12H84.58a13.936,13.936,0,0,0,12.33-7.12,13.244,13.244,0,0,0-.475-13.965ZM73.644,2.381l.007.007A3.822,3.822,0,0,0,78.94,2.4l.027-.026a1.888,1.888,0,0,1,2.614.007l0,0a3.819,3.819,0,0,0,5.3,0,1.889,1.889,0,0,1,2.2-.306l-2.1,7.167H73.554L71.446,2.075a1.889,1.889,0,0,1,2.2.306Zm21.6,36.944A12.057,12.057,0,0,1,84.58,45.484H75.949a12.056,12.056,0,0,1-10.667-6.159,11.458,11.458,0,0,1,.411-12.081l7.664-11.714H76a.925.925,0,1,0,0-1.849H72.836a1.295,1.295,0,1,1,0-2.589H87.692a1.295,1.295,0,1,1,0,2.589H84.531a.925.925,0,1,0,0,1.849h2.641l7.664,11.714A11.458,11.458,0,0,1,95.247,39.324Z" transform="translate(-61.857 0.001)" fill="#fff"/>
        <path id="XMLID_1341_" d="M214.6,246.167c-.232-.082-.469-.167-.706-.256v-4.193a3.8,3.8,0,0,1,1.064.5.925.925,0,0,0,1.113-1.478,5.65,5.65,0,0,0-2.177-.921V238.9a.925.925,0,0,0-1.85,0v.914a4.784,4.784,0,0,0-.477.116,3.7,3.7,0,0,0-2.54,2.906,3.267,3.267,0,0,0,1.07,3.22,8.908,8.908,0,0,0,1.947,1.106v5.365a3.7,3.7,0,0,1-2.028-.743A.925.925,0,0,0,209,253.328a5.461,5.461,0,0,0,3.041,1.046v.957a.925.925,0,1,0,1.85,0v-1.053a4.46,4.46,0,0,0,3.4-3.633A3.913,3.913,0,0,0,214.6,246.167Zm-3.361-1.571a1.442,1.442,0,0,1-.394-1.421,1.884,1.884,0,0,1,1.2-1.458V245.1A5.534,5.534,0,0,1,211.239,244.6Zm4.23,5.742a2.652,2.652,0,0,1-1.575,2V247.88l.089.032A2.093,2.093,0,0,1,215.469,250.338Z" transform="translate(-194.562 -215.985)" fill="#fff"/>
        <path id="XMLID_1343_" d="M246.91,149.819a.925.925,0,1,0-.654-.271A.932.932,0,0,0,246.91,149.819Z" transform="translate(-228.503 -134.289)" fill="#fff"/>
      </g>
    </g>
  </g>
</svg>
