<svg xmlns="http://www.w3.org/2000/svg" width="64" height="64" viewBox="0 0 64 64">
  <g id="premium_member_result_page" transform="translate(-248 -469)">
    <rect id="Rectangle_759" data-name="Rectangle 759" width="64" height="64" rx="15" transform="translate(248 469)" fill="#ff7a58"/>
    <path id="crown_5_" data-name="crown (5)" d="M48.856,10.133a3.331,3.331,0,1,0-6.662,0,3.349,3.349,0,0,0,.041.409l-9.674,4.9L26.2,6.233a3.4,3.4,0,0,0,1.054-4.65A3.306,3.306,0,0,0,22.659.515,3.4,3.4,0,0,0,21.6,5.165a3.354,3.354,0,0,0,1.054,1.068l-6.364,9.208-9.674-4.9a3.426,3.426,0,0,0,.041-.409,3.353,3.353,0,0,0-3.315-3.39,3.377,3.377,0,0,0-.422,6.723L6.662,30.5v4.373A1.117,1.117,0,0,0,7.772,36H41.083a1.118,1.118,0,0,0,1.11-1.125V30.5l3.737-17.036a3.351,3.351,0,0,0,2.925-3.332ZM45.525,9.008a1.125,1.125,0,1,1-1.11,1.125A1.117,1.117,0,0,1,45.525,9.008Zm-21.1-6.748a1.125,1.125,0,1,1-1.11,1.125A1.117,1.117,0,0,1,24.428,2.261ZM17.565,17.525,24.428,7.6l6.863,9.929a1.1,1.1,0,0,0,1.406.361l10.522-5.328a3.344,3.344,0,0,0,.542.425L40.193,29.252H8.662L5.094,12.984a3.365,3.365,0,0,0,.542-.425l10.522,5.328a1.1,1.1,0,0,0,1.406-.361ZM2.22,10.133a1.111,1.111,0,1,1,1.11,1.125A1.117,1.117,0,0,1,2.22,10.133ZM39.973,33.75H8.882V31.5H39.973Zm0,0" transform="translate(255.572 483.001)" fill="#fff"/>
  </g>
</svg>
