<svg xmlns="http://www.w3.org/2000/svg" width="14" height="14" viewBox="0 0 14 14">
  <g id="prize_money_icon" transform="translate(-263 -1226)">
    <g id="Rectangle_8566" data-name="Rectangle 8566" transform="translate(263 1226)" fill="#fff" stroke="#707070" stroke-width="1" opacity="0">
      <rect width="14" height="14" stroke="none"/>
      <rect x="0.5" y="0.5" width="13" height="13" fill="none"/>
    </g>
    <g id="XMLID_2383_" transform="translate(265 1228)">
      <path id="XMLID_1296_" d="M148.8,12.164l1.062-2a.61.61,0,0,0-.863,0,.61.61,0,0,1-.863,0,.61.61,0,0,0-.863,0,.61.61,0,0,1-.863,0,.61.61,0,0,0-.863,0l1.062,2" transform="translate(-142.7 -9.785)" fill="#fff"/>
      <path id="XMLID_1295_" d="M28.326,127.967a.783.783,0,0,1-.3-.644q0-.1,0-.2a6.228,6.228,0,0,0-3.1-5.347H22.653a6.228,6.228,0,0,0-3.1,5.347q0,.1,0,.2a.783.783,0,0,1-.3.644.682.682,0,0,0-.267.584.71.71,0,0,0,.673.649.735.735,0,0,0,.531-.181.824.824,0,0,1,.729-.172,12.9,12.9,0,0,0,5.74,0,.824.824,0,0,1,.729.172.735.735,0,0,0,.531.181.71.71,0,0,0,.673-.649A.682.682,0,0,0,28.326,127.967Z" transform="translate(-18.79 -119.395)" fill="#fff"/>
      <path id="XMLID_1259_" d="M155.3,99.774h-3.216a.43.43,0,1,0,0,.859H155.3a.43.43,0,1,0,0-.859Z" transform="translate(-148.695 -97.825)" fill="#fff"/>
      <g id="XMLID_931_" transform="translate(0 0)">
        <path id="XMLID_934_" d="M18.645,8.419a.592.592,0,0,1-.227-.486c0-.069,0-.139,0-.208a6.223,6.223,0,0,0-.689-2.861A6.574,6.574,0,0,0,16.1,2.83a.613.613,0,0,0,.2-.452.636.636,0,0,0-.607-.624L16.4.465a.19.19,0,0,0-.036-.23.857.857,0,0,0-1.181,0,.435.435,0,0,1-.3.122.435.435,0,0,1-.3-.122.857.857,0,0,0-1.181,0,.435.435,0,0,1-.3.122.435.435,0,0,1-.3-.122.857.857,0,0,0-1.181,0,.19.19,0,0,0-.036.23l.708,1.29a.636.636,0,0,0-.608.624.613.613,0,0,0,.2.452,6.574,6.574,0,0,0-1.631,2.034,6.224,6.224,0,0,0-.689,2.861c0,.069,0,.139,0,.208a.592.592,0,0,1-.227.486.879.879,0,0,0-.341.747A.905.905,0,0,0,9.852,10a.936.936,0,0,0,.68-.232.613.613,0,0,1,.544-.126,13.022,13.022,0,0,0,2.913.329A13.022,13.022,0,0,0,16.9,9.641a.613.613,0,0,1,.544.126.932.932,0,0,0,.621.233l.058,0a.905.905,0,0,0,.862-.832A.879.879,0,0,0,18.645,8.419ZM12.5.512a.845.845,0,0,0,.59.236.845.845,0,0,0,.59-.236.442.442,0,0,1,.608,0,.845.845,0,0,0,.59.236.845.845,0,0,0,.59-.236.442.442,0,0,1,.49-.08l-.726,1.322h-2.5L12.013.431a.442.442,0,0,1,.49.08Zm-.182,1.632h3.333a.235.235,0,1,1,0,.469H12.322a.235.235,0,1,1,0-.469Zm6.261,7a.513.513,0,0,1-.483.466.525.525,0,0,1-.381-.13,1.028,1.028,0,0,0-.911-.218,12.6,12.6,0,0,1-2.819.318,12.6,12.6,0,0,1-2.819-.318,1.028,1.028,0,0,0-.911.218.525.525,0,0,1-.381.13.513.513,0,0,1-.483-.466.487.487,0,0,1,.191-.42.979.979,0,0,0,.377-.8c0-.065,0-.131,0-.2A5.974,5.974,0,0,1,12.291,3h3.394a5.974,5.974,0,0,1,2.332,4.722c0,.065,0,.131,0,.2a.979.979,0,0,0,.377.8A.487.487,0,0,1,18.583,9.143Z" transform="translate(-8.988 0)" fill="#f0f0f0"/>
        <path id="path824" d="M4.929,2.6a.25.25,0,0,0-.246.253v.211a.817.817,0,0,0-.75.787.894.894,0,0,0,.33.713,1.871,1.871,0,0,0,.591.275,1.641,1.641,0,0,1,.442.194.327.327,0,0,1,.136.32c0,.417-1,.417-1,0a.25.25,0,1,0-.5,0,.819.819,0,0,0,.75.787v.21a.25.25,0,1,0,.5,0v-.21a.819.819,0,0,0,.75-.787A.9.9,0,0,0,5.6,4.639a1.873,1.873,0,0,0-.591-.276A1.642,1.642,0,0,1,4.57,4.17a.327.327,0,0,1-.136-.32c0-.417,1-.417,1,0a.25.25,0,1,0,.5,0,.819.819,0,0,0-.75-.786V2.853A.25.25,0,0,0,4.929,2.6Z" transform="translate(-0.051 1.654)" fill="#350f48"/>
      </g>
    </g>
  </g>
</svg>
