<svg xmlns="http://www.w3.org/2000/svg" width="42" height="42" viewBox="0 0 42 42">
  <g id="rules_button" transform="translate(-1110 -1125)">
    <g id="Rectangle_8304" data-name="Rectangle 8304" transform="translate(1110 1125)" fill="#4b2b5c" stroke="#602f75" stroke-width="1">
      <rect width="42" height="42" rx="21" stroke="none"/>
      <rect x="0.5" y="0.5" width="41" height="41" rx="20.5" fill="none"/>
    </g>
    <g id="Group_4627" data-name="Group 4627" transform="translate(-32.362 -76.041)">
      <circle id="Ellipse_530" data-name="Ellipse 530" cx="1.997" cy="1.997" r="1.997" transform="translate(1161.365 1229.048)" fill="#fff"/>
      <path id="Path_16482" data-name="Path 16482" d="M182.5,128.5a6.46,6.46,0,0,0-6.5,6.4,1.625,1.625,0,0,0,3.25,0,3.25,3.25,0,1,1,3.25,3.2,1.613,1.613,0,0,0-1.625,1.6v4a1.625,1.625,0,0,0,3.25,0v-2.6a6.394,6.394,0,0,0-1.625-12.6Z" transform="translate(980.862 1082.541)" fill="#fff"/>
    </g>
  </g>
</svg>
