<svg xmlns="http://www.w3.org/2000/svg" width="36" height="36" viewBox="0 0 36 36">
  <g id="silver-medal_rank2" transform="translate(-1894 -3042)">
    <g id="Rectangle_7508" data-name="Rectangle 7508" transform="translate(1894 3042)" fill="#fff" stroke="#707070" stroke-width="1" opacity="0">
      <rect width="36" height="36" stroke="none"/>
      <rect x="0.5" y="0.5" width="35" height="35" fill="none"/>
    </g>
    <g id="silver-medal" transform="translate(1897.185 3046.154)">
      <path id="Path_9039" d="M.358,303.228c-.691.691-.465,1.521.668,1.579l3.234.412c1.121.139.894.186,1.028,1.254l.343,2.95c.058,1.138.888,1.359,1.574.674l2.3-2.3,2.352-2.357a2.04,2.04,0,0,1-.6-.354l-1.666-4.21L4.492,299.1Z" transform="translate(0.033 -282.793)" fill="#7cade0"/>
      <path id="Path_9040" d="M97.555,385.657,95.5,387.713l.116,1.01c.058,1.138.888,1.359,1.574.674l2.3-2.3,2.352-2.357a2.041,2.041,0,0,1-.6-.354l-1.33-1.086Z" transform="translate(-89.945 -362.104)" fill="#5e9ad8"/>
      <path id="Path_9041" d="M307.2,304.675l2.352,2.357,2.294,2.3c.691.691,1.521.47,1.579-.673l.343-2.95c.134-1.063-.087-1.115,1.034-1.254l3.234-.412c1.138-.058,1.359-.888.674-1.579l-4.163-4.163-5.562.563Z" transform="translate(-289.327 -282.039)" fill="#7cade0"/>
      <path id="Path_9042" d="M380.868,300.293l3.983,3.989,1.092-.139c1.138-.058,1.359-.888.674-1.579l-4.163-4.163-3.153.319Z" transform="translate(-357.241 -282.114)" fill="#5e9ad8"/>
      <path id="Path_9043" d="M70.951,17.2l1.553.732,2.2.139a2.085,2.085,0,0,1,1.413.842l1.035,1.37,1.878,1.144a2.088,2.088,0,0,1,.861,1.405l.279,1.7L81.3,26.421a2.078,2.078,0,0,1,.11,1.643L80.871,29.7,81,31.9a2.112,2.112,0,0,1-.663,1.51L79.1,34.6,78.2,36.605a2.066,2.066,0,0,1-1.285,1.022l-1.646.482-1.744,1.347a2.078,2.078,0,0,1-1.617.308l-1.681-.337-2.163.389a2.056,2.056,0,0,1-1.57-.476l-1.332-1.086-2.1-.662a2.08,2.08,0,0,1-1.169-1.155l-.675-1.579L59.664,33.3a2.086,2.086,0,0,1-.5-1.568l.134-1.713-.645-2.108a2.091,2.091,0,0,1,.279-1.62l.913-1.452.4-2.166a2.1,2.1,0,0,1,1.006-1.306l1.483-.865,1.361-1.73a2.074,2.074,0,0,1,1.494-.685l1.715-.075,2.012-.9A2.057,2.057,0,0,1,70.951,17.2Z" transform="translate(-55.19 -16.979)" fill="#e6e2e6"/>
      <path id="Path_9044" d="M112.837,79.663A8.832,8.832,0,1,0,104,70.832,8.834,8.834,0,0,0,112.837,79.663Z" transform="translate(-97.959 -59.381)" fill="#ab9faa"/>
      <path id="Path_9045" d="M305.777,76.554A8.829,8.829,0,0,0,299.5,68.1a16.669,16.669,0,0,1,2.758,9.488,18.2,18.2,0,0,1-.865,5.609c-.139.424-.29.836-.459,1.243a8.832,8.832,0,0,0,4.842-7.885Z" transform="translate(-282.083 -65.127)" fill="#9c8f9a"/>
      <path id="Path_9046" d="M259.31,27.973a2.109,2.109,0,0,0-.11-1.643l-1.132-1.893-.279-1.7a2.1,2.1,0,0,0-.859-1.405l-1.875-1.144-1.034-1.37a2.1,2.1,0,0,0-1.411-.842l-2.195-.139-1.55-.732a2.093,2.093,0,0,0-1.365-.168,10.354,10.354,0,0,1,3.019,2.921,8.841,8.841,0,0,1,1.44,16.345,14.356,14.356,0,0,1-.761,1.562,12.837,12.837,0,0,1-1.324,1.922,2.091,2.091,0,0,0,.929-.029,1.769,1.769,0,0,0,.639-.29l1.73-1.353,1.643-.482a2.064,2.064,0,0,0,1.283-1.022l.906-2.009,1.19-1.155.041-.035a2.114,2.114,0,0,0,.662-1.51l-.128-2.2Z" transform="translate(-233.094 -16.894)" fill="#cac0c9"/>
      <g id="Group_6068" data-name="Group 6068" transform="translate(11.573 6.574)">
        <path id="Path_9005" data-name="Path 9005" d="M205.561,140.03h-6.37v-1.266l3-3.205a7.5,7.5,0,0,0,.917-1.179,1.9,1.9,0,0,0,.3-.958,1.427,1.427,0,0,0-.314-.975,1.122,1.122,0,0,0-.894-.354,1.23,1.23,0,0,0-.987.43,1.708,1.708,0,0,0-.36,1.132H199a3.031,3.031,0,0,1,.406-1.55,2.83,2.83,0,0,1,1.144-1.1,3.463,3.463,0,0,1,1.678-.4,3.3,3.3,0,0,1,2.23.691,2.442,2.442,0,0,1,.8,1.945,3.137,3.137,0,0,1-.36,1.405,7.71,7.71,0,0,1-1.225,1.666l-2.114,2.224h4.006Z" transform="translate(-199 -130.6)" fill="#fff"/>
      </g>
    </g>
  </g>
</svg>
