<svg xmlns="http://www.w3.org/2000/svg" width="28" height="28" viewBox="0 0 28 28">
  <g id="thum_like_icon" transform="translate(-35 -415)">
    <g id="Rectangle_8854" data-name="Rectangle 8854" transform="translate(35 415)" stroke="#707070" stroke-width="1" opacity="0">
      <rect width="28" height="28" stroke="none"/>
      <rect x="0.5" y="0.5" width="27" height="27" fill="none"/>
    </g>
    <g id="Group_8007" data-name="Group 8007" transform="translate(-57 89)">
      <g id="like_2_" data-name="like (2)" transform="translate(96 328)">
        <path id="Path_24308" data-name="Path 24308" d="M0,110.088a.687.687,0,0,0,.667.705h4a1.961,1.961,0,0,0,1.578-.819,15.8,15.8,0,0,0,5.018.819h5.4a2.063,2.063,0,0,0,2-2.116,2.213,2.213,0,0,0-.141-.78A2.1,2.1,0,0,0,20,105.857a2.177,2.177,0,0,0-.511-1.41,2.2,2.2,0,0,0,0-2.821,2.177,2.177,0,0,0,.511-1.41A2.063,2.063,0,0,0,18,98.1H14.35q.078-.194.16-.395a8.361,8.361,0,0,0,.823-3.131A3.474,3.474,0,0,0,12,91a.677.677,0,0,0-.654.567l-.34,1.8C10.558,95.733,10.064,96,8.227,97c-.486.263-1.056.573-1.722.974a2,2,0,0,0-1.838-1.282h-4A.687.687,0,0,0,0,97.394ZM8.834,98.252a7.449,7.449,0,0,0,2.277-1.588,6.15,6.15,0,0,0,1.2-3.019l.218-1.153A2.179,2.179,0,0,1,14,94.573a7.3,7.3,0,0,1-.714,2.573c-.127.312-.257.632-.373.953H12a.706.706,0,0,0,0,1.41h6a.706.706,0,0,1,0,1.41H16.666a.706.706,0,0,0,0,1.41H18a.706.706,0,0,1,0,1.41H16.666a.706.706,0,0,0,0,1.41H18a.706.706,0,0,1,0,1.41H16.666a.706.706,0,0,0,0,1.41.706.706,0,0,1,0,1.41h-5.4a14.535,14.535,0,0,1-4.6-.746V99.5c.86-.542,1.578-.932,2.168-1.252Zm-7.5-.153H4.666a.688.688,0,0,1,.667.705v9.873a.688.688,0,0,1-.667.705H1.333Zm0,0" transform="translate(0 -86.794)" fill="#fff"/>
        <path id="Path_24309" data-name="Path 24309" d="M61.387,422.693a.693.693,0,1,1-.693-.693A.693.693,0,0,1,61.387,422.693Zm0,0" transform="translate(-57.227 -402.16)" fill="#fff"/>
        <path id="Path_24310" data-name="Path 24310" d="M270,.693V2.126a.693.693,0,0,0,1.387,0V.693a.693.693,0,0,0-1.387,0Zm0,0" transform="translate(-258.035)" fill="#fff"/>
        <path id="Path_24311" data-name="Path 24311" d="M339.969,35.6l-.981.981a.693.693,0,0,0,.981.981l.98-.981a.693.693,0,0,0-.98-.981Zm0,0" transform="translate(-323.927 -33.758)" fill="#fff"/>
        <path id="Path_24312" data-name="Path 24312" d="M180.2,35.6a.693.693,0,0,0,0,.981l.98.981a.693.693,0,1,0,.981-.981l-.981-.981A.693.693,0,0,0,180.2,35.6Zm0,0" transform="translate(-172.042 -33.758)" fill="#fff"/>
      </g>
    </g>
  </g>
</svg>
