<svg xmlns="http://www.w3.org/2000/svg" width="106.056" height="40.312" viewBox="0 0 106.056 40.312">
  <g id="winner" transform="translate(-2504.951 -4441)">
    <g id="Group_7737" data-name="Group 7737" transform="translate(2344.719 4099.828)">
      <g id="Group_5748" data-name="Group 5748" transform="translate(155.278 341.172)">
        <g id="Group_5746" data-name="Group 5746" transform="translate(80.255 9.714)">
          <path id="Path_19685" data-name="Path 19685" d="M494.344,400.389c8.878,2.706,23.152,6.458,30.729,11.818.021-4.306.025-3.825,0-8.225a17.668,17.668,0,0,0-.253-4.847c-1.4-10.3-14.189-13.64-25.163-16.963Z" transform="translate(-494.344 -382.171)" fill="#dcaa00"/>
          <path id="Path_19686" data-name="Path 19686" d="M511.358,440.884a96.131,96.131,0,0,0-15.342-6.131l-1.673,5.736A85.815,85.815,0,0,1,511.358,440.884Z" transform="translate(-494.344 -422.271)" fill="#b98f00"/>
        </g>
        <g id="Group_5747" data-name="Group 5747" transform="translate(0 9.714)">
          <path id="Path_19687" data-name="Path 19687" d="M191.023,400.388c-8.878,2.707-23.15,7.021-30.727,12.38.069-4.519-.306-11.078.224-13.134.64-10.319,14.216-14.141,25.189-17.463Z" transform="translate(-155.278 -382.171)" fill="#dcaa00"/>
          <path id="Path_19688" data-name="Path 19688" d="M234.183,440.884a96.137,96.137,0,0,1,15.342-6.131l1.673,5.735A85.835,85.835,0,0,0,234.183,440.884Z" transform="translate(-215.452 -422.271)" fill="#b98f00"/>
        </g>
        <path id="Path_19689" data-name="Path 19689" d="M284.806,369.53a86.926,86.926,0,0,0-78.6-.012l-8.682-16.863a105.95,105.95,0,0,1,95.974.015Z" transform="translate(-187.492 -341.172)" fill="#fec917"/>
      </g>
    </g>
    <g id="Group_7738" data-name="Group 7738" transform="translate(1937.243 2225.378)">
      <g id="Group_5750" data-name="Group 5750">
        <path id="Path_19690" data-name="Path 19690" d="M599.958,2222.608c-.183,4.708-.2,7.054-.074,11.726-1.562.42-2.34.651-3.884,1.151-1.485-2.466-2.254-3.687-3.844-6.1.247,2.882.4,4.317.758,7.174-1.528.566-2.287.868-3.792,1.514-2.809-3.738-4.283-5.569-7.365-9.139,1.475-.694,2.219-1.024,3.717-1.649,1.742,2.624,2.59,3.948,4.242,6.62-.436-3.156-.62-4.743-.92-7.931,1.536-.572,2.31-.84,3.864-1.341,1.744,2.688,2.583,4.047,4.2,6.794-.361-3.119-.518-4.683-.782-7.821C597.621,2223.171,598.4,2222.972,599.958,2222.608Z" fill="#ff3c00"/>
        <path id="Path_19691" data-name="Path 19691" d="M605.913,2221.428l1.837,11.208c-1.282.21-1.922.328-3.2.59-.916-4.45-1.374-6.673-2.29-11.123C603.718,2221.8,604.449,2221.668,605.913,2221.428Z" fill="#ff3c00"/>
        <path id="Path_19692" data-name="Path 19692" d="M620.91,2231.581c-1.3,0-1.944.009-3.239.058a71.817,71.817,0,0,0-4.846-6.034c.232,2.524.347,3.786.578,6.31-1.291.118-1.936.19-3.223.361-.6-4.5-.894-6.745-1.491-11.242,1.469-.195,2.206-.277,3.68-.412a74.9,74.9,0,0,1,5.115,6.1c-.1-2.565-.146-3.847-.243-6.412,1.478-.056,2.218-.069,3.7-.065C620.926,2224.778,620.921,2227.044,620.91,2231.581Z" fill="#ff3c00"/>
        <path id="Path_19693" data-name="Path 19693" d="M634.064,2232.7c-1.282-.217-1.924-.312-3.212-.476a72.8,72.8,0,0,0-3.793-6.746l-.465,6.318c-1.293-.1-1.94-.13-3.235-.172.149-4.535.224-6.8.374-11.334,1.478.048,2.217.088,3.693.2a75.707,75.707,0,0,1,4.049,6.853c.325-2.546.488-3.818.812-6.364,1.47.187,2.2.3,3.667.543C635.2,2225.993,634.82,2228.227,634.064,2232.7Z" fill="#ff3c00"/>
        <path id="Path_19694" data-name="Path 19694" d="M641.752,2225.266c-.177.729-.266,1.094-.444,1.823,1.6.39,2.4.6,3.985,1.071l-.675,2.293c-1.542-.454-2.318-.662-3.875-1.041l-.485,1.994c1.718.419,2.574.651,4.273,1.163-.29.965-.435,1.447-.726,2.412a66.6,66.6,0,0,0-7.323-1.834c.894-4.454,1.341-6.679,2.235-11.134a76.248,76.248,0,0,1,8.362,2.092c-.29.965-.436,1.447-.726,2.412C644.523,2225.966,643.6,2225.716,641.752,2225.266Z" fill="#ff3c00"/>
        <path id="Path_19695" data-name="Path 19695" d="M651.5,2237.732c-.242-1.915-.387-2.875-.73-4.8-.132-.051-.2-.076-.329-.125-.59,1.567-.886,2.351-1.476,3.918-1.232-.464-1.851-.683-3.1-1.095,1.426-4.314,2.14-6.47,3.566-10.784,2.244.742,3.358,1.151,5.563,2.041a6.673,6.673,0,0,1,2.357,1.509,3.579,3.579,0,0,1,1.01,1.89,3.235,3.235,0,0,1-.286,1.937,3.138,3.138,0,0,1-1.547,1.554,4.121,4.121,0,0,1-2.423.266c.35,2.071.495,3.1.725,5.163C653.508,2238.586,652.841,2238.291,651.5,2237.732Zm-.312-6.905c.654.246.98.373,1.631.633.916.366,1.524.2,1.83-.532a1.085,1.085,0,0,0-.009-.959,1.694,1.694,0,0,0-.934-.728c-.668-.267-1-.4-1.676-.651Z" fill="#ff3c00"/>
      </g>
    </g>
    <g id="Group_7739" data-name="Group 7739" transform="translate(1937.243 2224.378)">
      <g id="Group_5750-2" data-name="Group 5750">
        <path id="Path_19690-2" data-name="Path 19690" d="M599.958,2222.608c-.183,4.708-.2,7.054-.074,11.726-1.562.42-2.34.651-3.884,1.151-1.485-2.466-2.254-3.687-3.844-6.1.247,2.882.4,4.317.758,7.174-1.528.566-2.287.868-3.792,1.514-2.809-3.738-4.283-5.569-7.365-9.139,1.475-.694,2.219-1.024,3.717-1.649,1.742,2.624,2.59,3.948,4.242,6.62-.436-3.156-.62-4.743-.92-7.931,1.536-.572,2.31-.84,3.864-1.341,1.744,2.688,2.583,4.047,4.2,6.794-.361-3.119-.518-4.683-.782-7.821C597.621,2223.171,598.4,2222.972,599.958,2222.608Z"/>
        <path id="Path_19691-2" data-name="Path 19691" d="M605.913,2221.428l1.837,11.208c-1.282.21-1.922.328-3.2.59-.916-4.45-1.374-6.673-2.29-11.123C603.718,2221.8,604.449,2221.668,605.913,2221.428Z"/>
        <path id="Path_19692-2" data-name="Path 19692" d="M620.91,2231.581c-1.3,0-1.944.009-3.239.058a71.817,71.817,0,0,0-4.846-6.034c.232,2.524.347,3.786.578,6.31-1.291.118-1.936.19-3.223.361-.6-4.5-.894-6.745-1.491-11.242,1.469-.195,2.206-.277,3.68-.412a74.9,74.9,0,0,1,5.115,6.1c-.1-2.565-.146-3.847-.243-6.412,1.478-.056,2.218-.069,3.7-.065C620.926,2224.778,620.921,2227.044,620.91,2231.581Z"/>
        <path id="Path_19693-2" data-name="Path 19693" d="M634.064,2232.7c-1.282-.217-1.924-.312-3.212-.476a72.8,72.8,0,0,0-3.793-6.746l-.465,6.318c-1.293-.1-1.94-.13-3.235-.172.149-4.535.224-6.8.374-11.334,1.478.048,2.217.088,3.693.2a75.707,75.707,0,0,1,4.049,6.853c.325-2.546.488-3.818.812-6.364,1.47.187,2.2.3,3.667.543C635.2,2225.993,634.82,2228.227,634.064,2232.7Z"/>
        <path id="Path_19694-2" data-name="Path 19694" d="M641.752,2225.266c-.177.729-.266,1.094-.444,1.823,1.6.39,2.4.6,3.985,1.071l-.675,2.293c-1.542-.454-2.318-.662-3.875-1.041l-.485,1.994c1.718.419,2.574.651,4.273,1.163-.29.965-.435,1.447-.726,2.412a66.6,66.6,0,0,0-7.323-1.834c.894-4.454,1.341-6.679,2.235-11.134a76.248,76.248,0,0,1,8.362,2.092c-.29.965-.436,1.447-.726,2.412C644.523,2225.966,643.6,2225.716,641.752,2225.266Z"/>
        <path id="Path_19695-2" data-name="Path 19695" d="M651.5,2237.732c-.242-1.915-.387-2.875-.73-4.8-.132-.051-.2-.076-.329-.125-.59,1.567-.886,2.351-1.476,3.918-1.232-.464-1.851-.683-3.1-1.095,1.426-4.314,2.14-6.47,3.566-10.784,2.244.742,3.358,1.151,5.563,2.041a6.673,6.673,0,0,1,2.357,1.509,3.579,3.579,0,0,1,1.01,1.89,3.235,3.235,0,0,1-.286,1.937,3.138,3.138,0,0,1-1.547,1.554,4.121,4.121,0,0,1-2.423.266c.35,2.071.495,3.1.725,5.163C653.508,2238.586,652.841,2238.291,651.5,2237.732Zm-.312-6.905c.654.246.98.373,1.631.633.916.366,1.524.2,1.83-.532a1.085,1.085,0,0,0-.009-.959,1.694,1.694,0,0,0-.934-.728c-.668-.267-1-.4-1.676-.651Z"/>
      </g>
    </g>
  </g>
</svg>
