<svg xmlns="http://www.w3.org/2000/svg" width="72" height="40" viewBox="0 0 72 40">
  <g id="prepaid_recharge_withdraw" transform="translate(-26 -243)">
    <rect id="Rectangle_8932" data-name="Rectangle 8932" width="72" height="40" rx="4" transform="translate(26 243)" fill="#7729a5" opacity="0.68"/>
    <g id="prepaid-card" transform="translate(39.64 226.974)">
      <rect id="Rectangle_8940" data-name="Rectangle 8940" width="14.88" height="23.65" rx="1" transform="translate(10.535 34.137) rotate(-90)" fill="#63bce7"/>
      <path id="Path_40499" data-name="Path 40499" d="M57.755,34.635V21.3a.771.771,0,0,1,.771-.771H56.135a.771.771,0,0,0-.771.771V34.635a.771.771,0,0,0,.771.771h2.391A.771.771,0,0,1,57.755,34.635Z" transform="translate(-44.543 -1.269)" fill="#6377e7"/>
      <path id="Path_40500" data-name="Path 40500" d="M180.907,34.635V21.3a.771.771,0,0,0-.771-.771h2.391a.771.771,0,0,1,.771.771V34.635a.771.771,0,0,1-.771.771h-2.391a.771.771,0,0,0,.771-.771Z" transform="translate(-149.398 -1.269)" fill="#63e2e7"/>
      <circle id="Ellipse_788" data-name="Ellipse 788" cx="1.414" cy="1.414" r="1.414" transform="translate(29.312 29.329)" fill="#f8af23"/>
      <circle id="Ellipse_789" data-name="Ellipse 789" cx="1.414" cy="1.414" r="1.414" transform="translate(25.512 29.329)" fill="#f46275"/>
      <path id="Path_40501" data-name="Path 40501" d="M0,0H1.686V5.284H0Z" transform="translate(25.923 24.357) rotate(-90)" fill="#9e9e9e"/>
      <path id="Path_40502" data-name="Path 40502" d="M182.3,66v5.579l-1.1-1.288a1.276,1.276,0,1,0-1.943,1.656l2.5,2.931s-.746,3.146,1.22,4.945h5.557l-.493-6.758a2.885,2.885,0,0,0-.836-1.589Z" transform="translate(-148.113 -39.588)" fill="#f8af23"/>
      <path id="Path_40503" data-name="Path 40503" d="M189.093,155.622h9.724v4.011h-9.724Z" transform="translate(-156.688 -115.254)" fill="#9e9e9e"/>
      <path id="Path_40504" data-name="Path 40504" d="M192.829,181.625H201.4v6.613h-8.572Z" transform="translate(-159.848 -137.136)" fill="#63bce7"/>
      <rect id="Rectangle_8941" data-name="Rectangle 8941" width="5.284" height="3.278" rx="1.639" transform="translate(13.833 21.875)" fill="#f8af23"/>
      <path id="Path_40505" data-name="Path 40505" d="M74.082,89.668h4.2v1.388h-4.2Z" transform="translate(-60.262 -59.616)" fill="#9e9e9e"/>
      <path id="Path_40506" data-name="Path 40506" d="M21.181,66v5.579l1.1-1.288a1.277,1.277,0,0,1,1.943,1.657l-2.5,2.931s.746,3.146-1.22,4.945H14.947l.493-6.759a2.885,2.885,0,0,1,.836-1.589Z" transform="translate(-10.646 -39.588)" fill="#f8af23"/>
      <path id="Path_40507" data-name="Path 40507" d="M18.666,71.474l2.515-2.806V66l-4.906,5.474a2.889,2.889,0,0,0-.836,1.589l-.493,6.76h2.391l.493-6.759A2.888,2.888,0,0,1,18.666,71.474Z" transform="translate(-10.646 -39.588)" fill="#f87023"/>
      <path id="Path_40508" data-name="Path 40508" d="M203.151,71.474l-2.515-2.806V66l4.906,5.473a2.889,2.889,0,0,1,.836,1.589l.493,6.76h-2.391l-.493-6.758A2.888,2.888,0,0,0,203.151,71.474Z" transform="translate(-166.451 -39.588)" fill="#f8d323"/>
      <path id="Path_40509" data-name="Path 40509" d="M0,0H9.724V4.011H0Z" transform="translate(12.316 44.378) rotate(180)" fill="#9e9e9e"/>
      <path id="Path_40510" data-name="Path 40510" d="M3.861,155.622H6.252v4.011H3.861Z" transform="translate(-1.269 -115.254)" fill="#707070"/>
      <path id="Path_40511" data-name="Path 40511" d="M0,0H8.572V6.613H0Z" transform="translate(11.739 51.102) rotate(180)" fill="#63bce7"/>
      <path id="Path_40512" data-name="Path 40512" d="M7.6,181.625H9.988v6.613H7.6Z" transform="translate(-4.429 -137.136)" fill="#6377e7"/>
      <path id="Path_40513" data-name="Path 40513" d="M232.9,181.625h2.391v6.613H232.9Z" transform="translate(-193.741 -137.136)" fill="#63e2e7"/>
      <path id="Path_40514" data-name="Path 40514" d="M236.639,155.622h2.391v4.011h-2.391Z" transform="translate(-196.901 -115.254)" fill="#cecece"/>
      <circle id="Ellipse_790" data-name="Ellipse 790" cx="5.841" cy="5.841" r="5.841" transform="translate(16.519 28.459)" fill="#f8af23"/>
      <path id="Path_40515" data-name="Path 40515" d="M103.579,102.465h0a.963.963,0,0,1-.689-.293l-2.086-2.155a.963.963,0,1,1,1.384-1.34l1.4,1.444,3.77-3.851a.963.963,0,0,1,1.376,1.347l-4.462,4.558a.963.963,0,0,1-.688.289Z" transform="translate(-82.406 -64.917)" fill="#f46275"/>
      <g id="Group_9372" data-name="Group 9372" transform="translate(2.36 19.026)">
        <path id="Path_40516" data-name="Path 40516" d="M148.387,43.309h5.284a.231.231,0,0,0,.231-.231V41.392a.231.231,0,0,0-.231-.231h-5.284a.231.231,0,0,0-.231.231v1.686A.231.231,0,0,0,148.387,43.309Zm.231-1.686h4.822v1.223h-4.822Z" transform="translate(-124.821 -37.747)" fill="#3f3679"/>
        <path id="Path_40517" data-name="Path 40517" d="M10.831,233.974H8.054a.231.231,0,1,0,0,.463h2.776a.231.231,0,1,0,0-.463Z" transform="translate(-6.98 -200.437)" fill="#fff"/>
        <path id="Path_40518" data-name="Path 40518" d="M230.188,233.974h-2.776a.231.231,0,0,0,0,.463h2.776a.231.231,0,0,0,0-.463Z" transform="translate(-191.26 -200.437)" fill="#fff"/>
        <path id="Path_40519" data-name="Path 40519" d="M65.4,233.974H36.263a.232.232,0,1,0,0,.463H65.4a.232.232,0,1,0,0-.463Z" transform="translate(-30.829 -200.437)" fill="#fff"/>
        <path id="Path_40520" data-name="Path 40520" d="M74.005,39.74h2.9a1.423,1.423,0,0,0,1.421-1.421v-.9A1.423,1.423,0,0,0,76.909,36h-2.9a1.423,1.423,0,0,0-1.421,1.421v.9A1.423,1.423,0,0,0,74.005,39.74Zm.6-.463V36.463h1.709v2.815Zm3.266-1.856v.9a.96.96,0,0,1-.959.959h-.135V36.463h.135a.96.96,0,0,1,.958.959Zm-4.822,0a.96.96,0,0,1,.959-.959h.135v2.815h-.135a.96.96,0,0,1-.959-.959Z" transform="translate(-61.345 -33.382)" fill="#3f3679"/>
        <path id="Path_40521" data-name="Path 40521" d="M13.678,167.587h1.155a.231.231,0,0,0,0-.463H13.678a.231.231,0,0,0,0,.463Z" transform="translate(-11.737 -144.017)" fill="#3f3679"/>
        <path id="Path_40522" data-name="Path 40522" d="M42.122,40.114H40.579l-.493-6.629a3.13,3.13,0,0,0-.922-1.742l-5-5.473V20.041a1.026,1.026,0,0,0-1.035-1.015H11.594a1.026,1.026,0,0,0-1.035,1.015V26.27l-5,5.473a3.135,3.135,0,0,0-.923,1.748l-.492,6.624H2.6a.236.236,0,0,0-.239.234v4.058a.236.236,0,0,0,.239.234h.357V51.1a.236.236,0,0,0,.239.234H41.526a.236.236,0,0,0,.239-.234V44.641h.356a.236.236,0,0,0,.239-.234V40.348a.236.236,0,0,0-.238-.235Zm-3.313-8.059a2.715,2.715,0,0,1,.8,1.469l.49,6.59H34.716C32.9,38.4,33.588,35.428,33.6,35.4a.231.231,0,0,0-.051-.206l-2.579-2.966a1.043,1.043,0,0,1,.121-1.491,1.093,1.093,0,0,1,1.52.119l1.133,1.3,2.152,2.476a.242.242,0,0,0,.337.026.231.231,0,0,0,.027-.33l-2.1-2.41V26.972Zm-6.962,8.293v4.058a.236.236,0,0,0,.239.234h.356v6.225H12.279V44.641h.356a.236.236,0,0,0,.239-.234V40.348a.236.236,0,0,0-.239-.234H10.651a4.947,4.947,0,0,0,1.076-2.936,7.268,7.268,0,0,0-.111-1.769l.743-.855H16.1a6.271,6.271,0,0,0,12.522,0h3.741l.743.855a7.268,7.268,0,0,0-.111,1.769,4.947,4.947,0,0,0,1.076,2.937H32.086a.237.237,0,0,0-.239.234Zm-5.41-10.691a1.234,1.234,0,0,1,1.431.352,1.176,1.176,0,0,1,.035,1.447A6.206,6.206,0,0,0,26.436,29.657Zm1.713,4.662a5.791,5.791,0,1,1-5.789-5.677,5.734,5.734,0,0,1,5.789,5.677Zm-11.2-3.1h-2.5a1.5,1.5,0,0,0-.437-.778v-.159h3.621a6.179,6.179,0,0,0-.687.937Zm-2.832,1.306a1.494,1.494,0,0,0,.362-.838H16.7a6.006,6.006,0,0,0-.6,2.393H12.765Zm16.152-.656a1.189,1.189,0,0,1,.052-2.254,1.235,1.235,0,0,1,1.346.4,1.532,1.532,0,0,0-1.43,1.4,1.509,1.509,0,0,0,.032.454ZM11.036,20.042a.552.552,0,0,1,.557-.546H33.127a.552.552,0,0,1,.557.546V31.37l-.713-.82a1.542,1.542,0,0,0-.712-.462,1.707,1.707,0,0,0-1.952-.952,1.659,1.659,0,0,0,.2,3.272q.044.062.1.121l1.352,1.556H28.621a6,6,0,0,0-.493-2.169,1.639,1.639,0,0,0,.112-2.2,1.719,1.719,0,0,0-2.215-.376,6.344,6.344,0,0,0-7.925.48H13.777a.236.236,0,0,0-.239.234v.081a1.583,1.583,0,0,0-1.789.415l-.713.82V20.041ZM5.11,33.53a2.715,2.715,0,0,1,.8-1.474l4.647-5.085v4.948l-2.1,2.41a.231.231,0,0,0,.027.33.242.242,0,0,0,.337-.026l2.152-2.476,1.133-1.3a1.093,1.093,0,0,1,1.52-.119,1.043,1.043,0,0,1,.121,1.491l-2.579,2.966a.231.231,0,0,0-.051.206c.007.03.695,3-1.121,4.716H4.621ZM2.838,40.582H12.4v1.561H6.847a.234.234,0,1,0,0,.468H12.4v1.561H2.838Zm.63,10.283H3.433V44.641H11.8v6.224Zm37.82,0H32.919V44.641h8.369Zm.595-6.693H32.324V42.611h5.549a.234.234,0,1,0,0-.468H32.324V40.582h9.559Z" transform="translate(-2.36 -19.026)" fill="#fff"/>
        <path id="Path_40523" data-name="Path 40523" d="M232.3,167.124a.231.231,0,1,0,0,.463h1.155a.231.231,0,0,0,0-.463Z" transform="translate(-195.392 -144.017)" fill="#3f3679"/>
        <path id="Path_40524" data-name="Path 40524" d="M107.6,94.825a1.2,1.2,0,0,0-1.689.018l-3.6,3.681-1.234-1.273a1.194,1.194,0,1,0-1.716,1.662l2.086,2.155a1.2,1.2,0,0,0,.855.363h0a1.2,1.2,0,0,0,.854-.359l4.461-4.558a1.194,1.194,0,0,0-.018-1.689Zm-.313,1.365-4.462,4.558a.732.732,0,0,1-1.049,0l-2.086-2.155a.732.732,0,1,1,1.051-1.018l1.4,1.444a.23.23,0,0,0,.331,0l3.77-3.851a.732.732,0,0,1,1.046,1.024Z" transform="translate(-83.494 -82.679)" fill="#3f3679"/>
      </g>
    </g>
  </g>
</svg>
