<svg xmlns="http://www.w3.org/2000/svg" width="30" height="30" viewBox="0 0 30 30">
  <g id="prepaid_mobile_wallet_icon" transform="translate(-30 -542)">
    <g id="Rectangle_8543" data-name="Rectangle 8543" transform="translate(30 542)" fill="#434343" stroke="#707070" stroke-width="1" opacity="0">
      <rect width="30" height="30" stroke="none"/>
      <rect x="0.5" y="0.5" width="29" height="29" fill="none"/>
    </g>
    <g id="Hand-Smartphone-Payment-Online-Payment" transform="translate(30 546.2)">
      <path id="Path_21020" data-name="Path 21020" d="M27,4.676V16.824a1.67,1.67,0,0,1-.857,1.466,1.612,1.612,0,0,1-.8.209H4.655A1.666,1.666,0,0,1,3,16.824V4.676A1.666,1.666,0,0,1,4.655,3h20.69A1.666,1.666,0,0,1,27,4.676Z" transform="translate(0 0)" fill="#cab5d6"/>
      <path id="Path_21021" data-name="Path 21021" d="M41.437,8.58V19.92a1.645,1.645,0,0,1-.856,1.448,1.627,1.627,0,0,1-.8.207H27.64C31.842,19.623,38.017,15.7,41.437,8.58Z" transform="translate(-14.437 -3.075)" fill="#c2aacf"/>
      <ellipse id="Ellipse_608" data-name="Ellipse 608" cx="4.5" cy="4.599" rx="4.5" ry="4.599" transform="translate(11 6)" fill="#b699c6"/>
      <path id="Path_21023" data-name="Path 21023" d="M4.654,13.414V19.2a.414.414,0,0,1-.414.414H3V13H4.241A.414.414,0,0,1,4.654,13.414Z" transform="translate(0 -5.77)" fill="#7729a5"/>
      <g id="Group_7007" data-name="Group 7007" transform="translate(5.895 6.506)">
        <path id="Path_21024" data-name="Path 21024" d="M46,11h.827v.827H46Z" transform="translate(-31.101 -11)" fill="#530c76"/>
        <path id="Path_21025" data-name="Path 21025" d="M50,11h2.481v.827H50Z" transform="translate(-33.444 -11)" fill="#530c76"/>
        <path id="Path_21026" data-name="Path 21026" d="M46,15h4.136v.827H46Z" transform="translate(-31.099 -13.346)" fill="#530c76"/>
        <path id="Path_21027" data-name="Path 21027" d="M46,19h4.136v.827H46Z" transform="translate(-31.099 -15.691)" fill="#530c76"/>
        <path id="Path_21028" data-name="Path 21028" d="M10,29h4.136v.827H10Z" transform="translate(-10 -21.556)" fill="#530c76"/>
        <path id="Path_21029" data-name="Path 21029" d="M10,33h4.136v.827H10Z" transform="translate(-10 -23.901)" fill="#530c76"/>
      </g>
      <path id="Path_21030" data-name="Path 21030" d="M10,8h.827v.827H10Z" transform="translate(-4.105 -2.932)" fill="#7729a5"/>
      <path id="Path_21031" data-name="Path 21031" d="M14,8h.827v.827H14Z" transform="translate(-6.448 -2.932)" fill="#7729a5"/>
      <path id="Path_21032" data-name="Path 21032" d="M18,8h.827v.827H18Z" transform="translate(-8.793 -2.932)" fill="#7729a5"/>
      <path id="Path_21033" data-name="Path 21033" d="M30.068,16.481h-.827a.414.414,0,1,1,0-.827h.827a.414.414,0,0,1,.414.414h.827a1.241,1.241,0,0,0-1.241-1.241V14h-.827v.827a1.241,1.241,0,1,0,0,2.481h.827a.414.414,0,0,1,0,.827h-.827a.414.414,0,0,1-.414-.414H28a1.241,1.241,0,0,0,1.241,1.241v.827h.827v-.827a1.241,1.241,0,0,0,0-2.481Z" transform="translate(-14 -6)" fill="#fff"/>
    </g>
  </g>
</svg>
