<svg id="select_withdraw_tick" xmlns="http://www.w3.org/2000/svg" width="24" height="24" viewBox="0 0 24 24">
  <path id="Path_16474" data-name="Path 16474" d="M12,0A12,12,0,1,0,24,12,12.014,12.014,0,0,0,12,0Z" fill="#01c875"/>
  <path id="Path_16475" data-name="Path 16475" d="M104.255,125.062l-6.195,5.9-2.951-3.049a.963.963,0,1,0-1.395,1.33l3.632,3.73a.989.989,0,0,0,.681.292,1.115,1.115,0,0,0,.681-.259l6.908-6.551a.94.94,0,0,0,.032-1.362A1.01,1.01,0,0,0,104.255,125.062Z" transform="translate(-87.65 -117.051)" fill="#fff"/>
</svg>
