<svg xmlns="http://www.w3.org/2000/svg" width="28" height="28" viewBox="0 0 28 28">
  <g id="select_wallet_withdraw_tick" transform="translate(-317 -517)">
    <g id="Rectangle_8900" data-name="Rectangle 8900" transform="translate(317 517)" fill="#fff" stroke="#707070" stroke-width="1" opacity="0">
      <rect width="28" height="28" stroke="none"/>
      <rect x="0.5" y="0.5" width="27" height="27" fill="none"/>
    </g>
    <g id="select_wallet" transform="translate(319 519)">
      <path id="Path_16474" data-name="Path 16474" d="M12,0A12,12,0,1,0,24,12,12.014,12.014,0,0,0,12,0Z" fill="#9600ff" stroke="#fff" stroke-width="1"/>
      <path id="Path_16475" data-name="Path 16475" d="M104.255,125.062l-6.195,5.9-2.951-3.049a.963.963,0,1,0-1.395,1.33l3.632,3.73a.989.989,0,0,0,.681.292,1.115,1.115,0,0,0,.681-.259l6.908-6.551a.94.94,0,0,0,.032-1.362A1.01,1.01,0,0,0,104.255,125.062Z" transform="translate(-87.65 -117.051)" fill="#fff"/>
    </g>
  </g>
</svg>
