<svg xmlns="http://www.w3.org/2000/svg" width="20" height="20" viewBox="0 0 20 20">
  <g id="transaction_up_arrow_icon" transform="translate(-290 362) rotate(-90)">
    <g id="Rectangle_8476" data-name="Rectangle 8476" transform="translate(342 290)" stroke="#707070" stroke-width="1" opacity="0">
      <rect width="20" height="20" stroke="none"/>
      <rect x="0.5" y="0.5" width="19" height="19" fill="none"/>
    </g>
    <g id="arrow-point-to-right" transform="translate(251.862 294)">
      <path id="Path_20965" data-name="Path 20965" d="M103.887,6.594l-5.28,5.16a.874.874,0,0,1-1.216,0,.827.827,0,0,1,0-1.188L102.062,6,97.39,1.434a.827.827,0,0,1,0-1.188.874.874,0,0,1,1.216,0l5.28,5.16a.827.827,0,0,1,0,1.188Z" transform="translate(0 0)" fill="#9d86a7"/>
    </g>
  </g>
</svg>
