<svg xmlns="http://www.w3.org/2000/svg" width="30" height="30" viewBox="0 0 30 30">
  <g id="transaction_winnings_game_icon" transform="translate(-17 -651)">
    <g id="Rectangle_8496" data-name="Rectangle 8496" transform="translate(17 651)" stroke="#707070" stroke-width="1" opacity="0">
      <rect width="30" height="30" stroke="none"/>
      <rect x="0.5" y="0.5" width="29" height="29" fill="none"/>
    </g>
    <path id="Trophy" d="M28.429,11.143H26.857V9.571A1.573,1.573,0,0,0,25.286,8H12.714a1.573,1.573,0,0,0-1.571,1.571v1.571H9.571A1.573,1.573,0,0,0,8,12.714v3.929a3.933,3.933,0,0,0,3.929,3.929h.8a7.848,7.848,0,0,0,5.485,3.1v1.611H15.857A2.36,2.36,0,0,0,13.5,27.643v1.571a.785.785,0,0,0,.786.786h9.429a.785.785,0,0,0,.786-.786V27.643a2.36,2.36,0,0,0-2.357-2.357H19.786V23.674a7.848,7.848,0,0,0,5.485-3.1h.8A3.933,3.933,0,0,0,30,16.643V12.714A1.573,1.573,0,0,0,28.429,11.143Zm-5.5,16.5v.786H15.071v-.786a.787.787,0,0,1,.786-.786h6.286A.787.787,0,0,1,22.929,27.643Zm-13.357-11V12.714h1.571v3.143a7.8,7.8,0,0,0,.654,3.13A2.354,2.354,0,0,1,9.571,16.643ZM19,22.143a6.293,6.293,0,0,1-6.286-6.286V9.571H25.286v6.286A6.293,6.293,0,0,1,19,22.143Zm9.429-5.5A2.354,2.354,0,0,1,26.2,18.987a7.808,7.808,0,0,0,.654-3.13V12.714h1.571Z" transform="translate(13 647)" fill="#fff"/>
  </g>
</svg>
