<svg xmlns="http://www.w3.org/2000/svg" width="30" height="30" viewBox="0 0 30 30">
  <g id="transaction_entry_fees_icon" transform="translate(-17 -651)">
    <g id="Rectangle_8496" data-name="Rectangle 8496" transform="translate(17 651)" stroke="#707070" stroke-width="1" opacity="0">
      <rect width="30" height="30" stroke="none"/>
      <rect x="0.5" y="0.5" width="29" height="29" fill="none"/>
    </g>
    <g id="Layer_2" data-name="Layer 2" transform="translate(20 652)">
      <path id="Path_21062" data-name="Path 21062" d="M21.211,23H2.789A1.9,1.9,0,0,1,1,21V17.845a1.384,1.384,0,0,1,1.078-1.391A2.393,2.393,0,0,0,3.933,14a2.392,2.392,0,0,0-1.863-2.455A1.377,1.377,0,0,1,1,10.155V7A1.9,1.9,0,0,1,2.789,5H21.211A1.9,1.9,0,0,1,23,7v3.158a1.376,1.376,0,0,1-1.078,1.391A2.393,2.393,0,0,0,20.067,14a2.392,2.392,0,0,0,1.863,2.455A1.385,1.385,0,0,1,23,17.845V21A1.9,1.9,0,0,1,21.211,23ZM2.467,18.025v2.986a.343.343,0,0,0,.323.36H21.211a.343.343,0,0,0,.323-.36V18.025A4,4,0,0,1,18.54,14a4,4,0,0,1,2.993-4.021V7a.343.343,0,0,0-.323-.36H2.789A.343.343,0,0,0,2.467,7V9.983A4,4,0,0,1,5.46,14,4,4,0,0,1,2.467,18.025Z" fill="#fff"/>
      <g id="Group_7027" data-name="Group 7027" transform="translate(9.8 10)">
        <g id="Group_7015" data-name="Group 7015">
          <path id="Path_21056" data-name="Path 21056" d="M301.857,259.471a.872.872,0,1,1,1-.863.453.453,0,1,0,.906,0,1.8,1.8,0,0,0-1.45-1.718v-.236a.453.453,0,1,0-.906,0v.236a1.8,1.8,0,0,0-1.45,1.718,1.842,1.842,0,0,0,1.9,1.769.872.872,0,1,1-1,.863.453.453,0,0,0-.906,0,1.8,1.8,0,0,0,1.45,1.718v.2a.453.453,0,0,0,.906,0v-.2a1.8,1.8,0,0,0,1.45-1.718A1.842,1.842,0,0,0,301.857,259.471Z" transform="translate(-299.954 -256.201)" fill="#fff"/>
        </g>
      </g>
    </g>
  </g>
</svg>
