<svg xmlns="http://www.w3.org/2000/svg" width="24" height="24" viewBox="0 0 24 24">
  <g id="profile_menu_icon" transform="translate(35 -170)">
    <rect id="_" data-name="#" width="24" height="24" transform="translate(-35 170)" fill="#4b4f55" opacity="0"/>
    <g id="user" transform="translate(-49.44 172)">
      <g id="Group_5347" data-name="Group 5347" transform="translate(17.44 11.283)">
        <g id="Group_5346" data-name="Group 5346">
          <path id="Path_10525" data-name="Path 10525" d="M27.44,288.389c-6.449,0-10,2.837-10,7.989a.757.757,0,0,0,.783.728H36.657a.757.757,0,0,0,.783-.728C37.44,291.226,33.889,288.389,27.44,288.389Zm-8.4,7.26c.308-3.852,3.132-5.8,8.4-5.8s8.1,1.952,8.405,5.8Z" transform="translate(-17.44 -288.389)" fill="#d090ff"/>
        </g>
      </g>
      <g id="Group_5349" data-name="Group 5349" transform="translate(22.44)">
        <g id="Group_5348" data-name="Group 5348">
          <path id="Path_10526" data-name="Path 10526" d="M137.049,0a4.816,4.816,0,0,0-5,4.845,5,5,0,1,0,10,0A4.816,4.816,0,0,0,137.049,0Zm0,8.568a3.617,3.617,0,0,1-3.492-3.723,3.34,3.34,0,0,1,3.492-3.413,3.377,3.377,0,0,1,3.492,3.413A3.617,3.617,0,0,1,137.049,8.568Z" transform="translate(-132.049)" fill="#d090ff"/>
        </g>
      </g>
    </g>
  </g>
</svg>
