<svg xmlns="http://www.w3.org/2000/svg" width="74" height="74" viewBox="0 0 74 74">
  <g id="leave_exit_match" transform="translate(-151 -490)">
    <circle id="Ellipse_731" data-name="Ellipse 731" cx="37" cy="37" r="37" transform="translate(151 490)" fill="#330d46"/>
    <g id="fire-exit" transform="translate(164.999 504.001)">
      <path id="Path_26996" data-name="Path 26996" d="M45.234,0H25.3a.767.767,0,0,0-.766.767v11.5a.767.767,0,1,0,1.533,0V1.533h18.4V44.466H.768A.767.767,0,1,0,.768,46H45.234A.767.767,0,0,0,46,45.233V.766A.767.767,0,0,0,45.234,0Zm0,0" transform="translate(0)" fill="#9b83a7"/>
      <path id="Path_26997" data-name="Path 26997" d="M25.918,149.462l-3.159-6.4a2.666,2.666,0,0,0-1.007-1.1l-4.681-2.845.5-2.279a2.64,2.64,0,0,0,3.369.86l5.053-2.564a2.7,2.7,0,0,0,1.188-3.591,2.648,2.648,0,0,0-1.546-1.35,2.62,2.62,0,0,0-2.024.152l-2.894,1.466-.984-1.66a5.218,5.218,0,1,0-6.075-3.184L7.427,129.6a2.671,2.671,0,0,0-1.621,1.853l-1.264,5.118a2.687,2.687,0,0,0,1.93,3.248,2.613,2.613,0,0,0,2-.293,2.667,2.667,0,0,0,1.224-1.66l.927-3.776,1.811-.751-.979,5.454L7.6,143.118l-3.152-2.792a2.64,2.64,0,0,0-3.727.219l-.029.033a2.7,2.7,0,0,0,.251,3.773L6,148.83a2.7,2.7,0,0,0,3.636-.123l4.847-4.909,3.871,2.351,2.813,5.7a2.643,2.643,0,0,0,2.379,1.488,2.611,2.611,0,0,0,1.191-.286,2.7,2.7,0,0,0,1.187-3.591Zm-1.874,2.232a1.143,1.143,0,0,1-1.517-.516l-2.912-5.9a.76.76,0,0,0-.287-.314l-4.575-2.781a.761.761,0,0,0-.938.116l-5.27,5.339A1.143,1.143,0,0,1,7,147.693l-5.052-4.479a1.176,1.176,0,0,1-.107-1.642,1.116,1.116,0,0,1,1.574-.124l.018.016,3.719,3.3a.762.762,0,0,0,1.073-.062l4.508-5.05a.764.764,0,0,0,.181-.373l1.263-7.038a.762.762,0,0,0-1.041-.835l-3.454,1.433a.762.762,0,0,0-.448.522L8.215,137.5a1.146,1.146,0,0,1-.527.718,1.089,1.089,0,0,1-.843.123,1.16,1.16,0,0,1-.827-1.406l1.264-5.12A1.162,1.162,0,0,1,8,131.012l6.064-2.559.93.4a.762.762,0,0,0,.858-1.219,3.733,3.733,0,0,1-1.022-2.57,3.661,3.661,0,1,1,3.66,3.717.762.762,0,0,0-.656,1.15l1.9,3.2a.768.768,0,0,0,.715.371l.215-.017a.772.772,0,0,0,.284-.08l3.358-1.7a1.1,1.1,0,0,1,.855-.063,1.137,1.137,0,0,1,.66.577,1.171,1.171,0,0,1-.509,1.56l-5.053,2.56a1.142,1.142,0,0,1-1.515-.521l-.772-1.562a.749.749,0,0,0-.774-.419.762.762,0,0,0-.652.593l-1.072,4.892a.762.762,0,0,0,.348.813l5.146,3.128a1.156,1.156,0,0,1,.432.474l3.158,6.4a1.172,1.172,0,0,1-.508,1.558Zm0,0" transform="translate(-0.038 -108.863)" fill="#9b83a7"/>
      <path id="Path_26998" data-name="Path 26998" d="M324.266,225.771a.762.762,0,0,0,.762.762h8.063l-1.746,1.746a.762.762,0,1,0,1.059,1.1l.018-.018,3.047-3.047a.762.762,0,0,0,0-1.077l-3.047-3.047a.762.762,0,0,0-1.077,1.077l1.746,1.746h-8.063A.762.762,0,0,0,324.266,225.771Zm0,0" transform="translate(-295.022 -202.004)" fill="#9b83a7"/>
      <path id="Path_26999" data-name="Path 26999" d="M273.066,316.5v5.332a.762.762,0,1,0,1.523,0V316.5a.762.762,0,0,0-1.523,0Zm0,0" transform="translate(-248.526 -287.336)" fill="#9b83a7"/>
      <path id="Path_27000" data-name="Path 27000" d="M273.828,198.551a.762.762,0,0,0,.762-.762v-.762a.762.762,0,1,0-1.523,0v.762A.762.762,0,0,0,273.828,198.551Zm0,0" transform="translate(-248.527 -178.627)" fill="#9b83a7"/>
    </g>
  </g>
</svg>
