<svg xmlns="http://www.w3.org/2000/svg" width="74" height="74" viewBox="0 0 74 74">
  <g id="low_wallet_balance_icon" transform="translate(-151 -490)">
    <circle id="Ellipse_731" data-name="Ellipse 731" cx="37" cy="37" r="37" transform="translate(151 490)" fill="#330d46"/>
    <g id="wallet_10_" data-name="wallet (10)" transform="translate(137.161 501.001)">
      <path id="Path_26957" data-name="Path 26957" d="M205.481,251.079a1.165,1.165,0,1,0,1.165,1.165A1.165,1.165,0,0,0,205.481,251.079Z" transform="translate(-158.686 -225.569)" fill="#9b83a7"/>
      <path id="Path_26959" data-name="Path 26959" d="M96.4,251.079a1.165,1.165,0,1,0,1.165,1.165A1.165,1.165,0,0,0,96.4,251.079Z" transform="translate(-60.61 -225.569)" fill="#9b83a7"/>
      <path id="Path_26960" data-name="Path 26960" d="M351.52,242.981a2.277,2.277,0,1,0,2.277,2.277A2.28,2.28,0,0,0,351.52,242.981Zm0,3.044a.767.767,0,1,1,.767-.767A.768.768,0,0,1,351.52,246.025Z" transform="translate(-288.999 -218.283)" fill="#9b83a7"/>
      <path id="Path_26961" data-name="Path 26961" d="M72.544,9.092,64.814,1.3a4.411,4.411,0,0,0-6.264,0L55.1,4.783,51.643,1.3a4.411,4.411,0,0,0-6.264,0L39.752,6.973H32.68a4.864,4.864,0,0,0-4.841,4.877V36.792a5.252,5.252,0,0,0,5.226,5.266h9.069V45.68H41.3A3.16,3.16,0,0,0,41.3,52H45.27a3.151,3.151,0,0,0,3.136-3.16V42.057h4.8V45.68h-.837a3.16,3.16,0,0,0,0,6.319h3.973a3.151,3.151,0,0,0,3.136-3.16V42.057h7.847a5.252,5.252,0,0,0,5.226-5.266V30.956a3.162,3.162,0,0,0,.954-2.266V25.258a3.162,3.162,0,0,0-.954-2.266V20.468a5.266,5.266,0,0,0-1.441-3.625l1.43-1.44a4.491,4.491,0,0,0,0-6.311Zm-13.154.016L61.682,6.8l5.408,5.449L64.156,15.2h-4.6A4.493,4.493,0,0,0,59.389,9.108ZM46.448,2.381a2.9,2.9,0,0,1,4.125,0l7.73,7.788a2.958,2.958,0,0,1,0,4.156l-.871.877H53.124l2.4-2.417a.766.766,0,0,0,0-1.077L49.046,5.183a.752.752,0,0,0-1.069,0L38.031,15.2H33.722L40.6,8.273h0ZM50.986,15.2H40.169l8.342-8.4,5.408,5.449ZM32.68,8.5h5.56l-6.516,6.565A3.356,3.356,0,0,1,32.68,8.5ZM45.27,50.475H41.3a1.636,1.636,0,0,1,0-3.272H42.89a.759.759,0,0,0,.756-.762V44.193h3.248v4.646a1.632,1.632,0,0,1-1.624,1.636Zm11.076,0H52.374a1.636,1.636,0,0,1,0-3.272h1.593a.759.759,0,0,0,.756-.762V44.193H57.97v4.646A1.632,1.632,0,0,1,56.346,50.475ZM70.372,30.328H61.538a3.353,3.353,0,0,1,0-6.707h8.834A1.634,1.634,0,0,1,72,25.258V28.69A1.634,1.634,0,0,1,70.372,30.328Zm0-8.23H61.538a4.877,4.877,0,0,0,0,9.754h8.834a3.4,3.4,0,0,0,.671-.072v5.013a3.732,3.732,0,0,1-3.714,3.742H33.065a3.732,3.732,0,0,1-3.714-3.742V15.4a4.832,4.832,0,0,0,3.328,1.331h34.65a3.733,3.733,0,0,1,3.714,3.742v1.7a3.329,3.329,0,0,0-.672-.072Zm1.1-7.772-1.556,1.568a5.254,5.254,0,0,0-2.589-.69H66.295l2.4-2.417a.766.766,0,0,0,0-1.077L62.216,5.183a.752.752,0,0,0-1.069,0L58.32,8.031,56.166,5.86l3.453-3.479a2.905,2.905,0,0,1,4.125,0l7.73,7.788A2.958,2.958,0,0,1,71.474,14.326Z" fill="#9b83a7"/>
      <path id="Path_26988" data-name="Path 26988" d="M182.7,329.185a3.409,3.409,0,0,0-4.815,0,.674.674,0,0,1-.992-.911,4.752,4.752,0,0,1,6.8,0,.674.674,0,0,1-.992.911Z" transform="translate(-139.102 -297.894)" fill="#9b83a7"/>
      <path id="Path_26989" data-name="Path 26989" d="M87.545,295.919a.079.079,0,0,0-.122,0,3.164,3.164,0,0,0-.723,1.266.784.784,0,1,0,1.567,0A3.163,3.163,0,0,0,87.545,295.919Zm0,0" transform="translate(-52.861 -267.441)" fill="#9b83a7"/>
      <path id="Path_26990" data-name="Path 26990" d="M292.324,198.807a.463.463,0,0,0-.654-.018,2.042,2.042,0,0,1-2.774,0,.463.463,0,1,0-.637.672,2.979,2.979,0,0,0,4.047,0A.463.463,0,0,0,292.324,198.807Zm0,0" transform="translate(-243.518 -175.483)" fill="#9b83a7"/>
      <path id="Path_26991" data-name="Path 26991" d="M112.424,198.789a2.042,2.042,0,0,1-2.774,0,.463.463,0,0,0-.637.672,2.98,2.98,0,0,0,4.047,0,.463.463,0,0,0-.637-.672Zm0,0" transform="translate(-75.301 -175.482)" fill="#9b83a7"/>
    </g>
  </g>
</svg>
