<svg xmlns="http://www.w3.org/2000/svg" width="74" height="74" viewBox="0 0 74 74">
  <g id="oops_busy_player" transform="translate(-151 -490)">
    <circle id="Ellipse_731" data-name="Ellipse 731" cx="37" cy="37" r="37" transform="translate(151 490)" fill="#330d46"/>
    <g id="sad" transform="translate(162 500.948)">
      <g id="Group_10056" data-name="Group 10056" transform="translate(0 0.052)">
        <path id="Path_46839" data-name="Path 46839" d="M47.451,11.366a1.016,1.016,0,1,0-1.675,1.15,23.966,23.966,0,1,1-6.259-6.253,1.016,1.016,0,0,0,1.147-1.676,26,26,0,1,0,6.787,6.78Z" transform="translate(0 -0.052)" fill="#9b83a7"/>
        <path id="Path_46840" data-name="Path 46840" d="M419.836,76.314a1.021,1.021,0,1,0-.382-1.223A1.031,1.031,0,0,0,419.836,76.314Z" transform="translate(-376.841 -66.855)" fill="#9b83a7"/>
        <path id="Path_46841" data-name="Path 46841" d="M172.046,331.315a9.95,9.95,0,0,1,14.053,0,1.02,1.02,0,0,0,1.443-1.443,11.993,11.993,0,0,0-16.939,0,1.02,1.02,0,0,0,1.443,1.443Z" transform="translate(-153.052 -293.243)" fill="#9b83a7"/>
        <path id="Path_46842" data-name="Path 46842" d="M305.66,226.927a1.02,1.02,0,0,0-1.443,1.443,7.8,7.8,0,0,0,11.017,0,1.02,1.02,0,0,0-1.443-1.443A5.757,5.757,0,0,1,305.66,226.927Z" transform="translate(-273.098 -203.624)" fill="#9b83a7"/>
        <path id="Path_46843" data-name="Path 46843" d="M106.458,226.926a1.02,1.02,0,0,0-1.443,0,5.757,5.757,0,0,1-8.131,0,1.02,1.02,0,0,0-1.443,1.443,7.8,7.8,0,0,0,11.017,0A1.02,1.02,0,0,0,106.458,226.926Z" transform="translate(-85.493 -203.623)" fill="#9b83a7"/>
      </g>
    </g>
  </g>
</svg>
