<svg xmlns="http://www.w3.org/2000/svg" width="150" height="150" viewBox="0 0 150 150">
  <g id="coming_soon_tournament_icon1" transform="translate(-106 -634)">
    <circle id="Ellipse_849" data-name="Ellipse 849" cx="75" cy="75" r="75" transform="translate(106 634)" fill="#330d46"/>
    <g id="Tournament_Schedule" transform="translate(140 668)">
      <path id="Path_48003" data-name="Path 48003" d="M80.8,65A1.2,1.2,0,0,0,82,63.8V14.814a7.616,7.616,0,0,0-7.607-7.607H68.787V4.4a4.4,4.4,0,0,0-8.809,0v2.8H22.021V4.4a4.4,4.4,0,1,0-8.809,0v2.8H7.607A7.616,7.616,0,0,0,0,14.814V74.393A7.616,7.616,0,0,0,7.607,82H74.393A7.616,7.616,0,0,0,82,74.393V69.4a1.2,1.2,0,1,0-2.4,0v4.992A5.211,5.211,0,0,1,74.393,79.6H7.607A5.211,5.211,0,0,1,2.4,74.393V28.828H14.814a1.2,1.2,0,1,0,0-2.4H2.4V14.814A5.211,5.211,0,0,1,7.607,9.609h5.605v2.8a4.4,4.4,0,1,0,8.809,0v-2.8H59.979v2.8a4.4,4.4,0,0,0,8.809,0v-2.8h5.605A5.211,5.211,0,0,1,79.6,14.814V26.426H20.42a1.2,1.2,0,0,0,0,2.4H79.6V63.8A1.2,1.2,0,0,0,80.8,65ZM19.619,12.412a2,2,0,1,1-4,0V4.4a2,2,0,1,1,4,0Zm46.766,0a2,2,0,0,1-4,0V4.4a2,2,0,0,1,4,0Z" fill="#9b83a7"/>
      <path id="Path_48004" data-name="Path 48004" d="M172.658,221.51h-2.871l-1.3-4.483a2.827,2.827,0,0,0-2.7-2.027H148.993a2.827,2.827,0,0,0-2.7,2.027l-1.3,4.483h-2.871a3.621,3.621,0,0,0-3.617,3.617v2.411a5.981,5.981,0,0,0,5.468,5.98,13.36,13.36,0,0,0,1.288,2.772,14.2,14.2,0,0,0,8.515,6.376v4h-3.215a4.019,4.019,0,0,0,0,8.037h13.663a4.019,4.019,0,0,0,0-8.037H161v-4a14.2,14.2,0,0,0,8.515-6.376,13.362,13.362,0,0,0,1.288-2.772,5.981,5.981,0,0,0,5.468-5.98v-2.411A3.621,3.621,0,0,0,172.658,221.51ZM143.624,226.2a12.273,12.273,0,0,0-.237,4.756,3.607,3.607,0,0,1-2.476-3.414v-2.411a1.207,1.207,0,0,1,1.206-1.206h2.169c-.221.758-.447,1.515-.662,2.274Zm20.595,22.882a1.607,1.607,0,0,1,0,3.215H150.556a1.607,1.607,0,0,1,0-3.215Zm-8.037-2.411v-3.587a14.414,14.414,0,0,0,2.411,0v3.587Zm11.281-11.635a11.768,11.768,0,0,1-20.152,0,11.225,11.225,0,0,1-1.395-8.085l2.69-9.245a.4.4,0,0,1,.386-.29h16.789a.4.4,0,0,1,.386.29l2.69,9.245A11.224,11.224,0,0,1,167.463,235.031Zm6.4-7.493a3.607,3.607,0,0,1-2.476,3.414,12.273,12.273,0,0,0-.237-4.756c-.215-.76-.441-1.516-.662-2.274h2.169a1.207,1.207,0,0,1,1.206,1.206Z" transform="translate(-116.387 -180.74)" fill="#ffb71e"/>
      <g id="Group_10330" data-name="Group 10330" transform="translate(8.037 34.26)">
        <path id="Path_48005" data-name="Path 48005" d="M404.635,316.448h-4.822A2.816,2.816,0,0,1,397,313.635v-4.822A2.816,2.816,0,0,1,399.813,306h4.822a2.816,2.816,0,0,1,2.813,2.813v4.822A2.816,2.816,0,0,1,404.635,316.448Zm-4.822-8.037a.4.4,0,0,0-.4.4v4.822a.4.4,0,0,0,.4.4h4.822a.4.4,0,0,0,.4-.4v-4.822a.4.4,0,0,0-.4-.4Z" transform="translate(-341.522 -291.372)" fill="#8235e3"/>
        <path id="Path_48006" data-name="Path 48006" d="M404.635,225.448h-4.822A2.816,2.816,0,0,1,397,222.635v-4.822A2.816,2.816,0,0,1,399.813,215h4.822a2.816,2.816,0,0,1,2.813,2.813v4.822A2.816,2.816,0,0,1,404.635,225.448Zm-4.822-8.037a.4.4,0,0,0-.4.4v4.822a.4.4,0,0,0,.4.4h4.822a.4.4,0,0,0,.4-.4v-4.822a.4.4,0,0,0-.4-.4Z" transform="translate(-341.522 -215)" fill="#8235e3"/>
        <path id="Path_48007" data-name="Path 48007" d="M404.635,407.448h-4.822A2.816,2.816,0,0,1,397,404.635v-4.822A2.816,2.816,0,0,1,399.813,397h4.822a2.816,2.816,0,0,1,2.813,2.813v4.822A2.816,2.816,0,0,1,404.635,407.448Zm-4.822-8.037a.4.4,0,0,0-.4.4v4.822a.4.4,0,0,0,.4.4h4.822a.4.4,0,0,0,.4-.4v-4.822a.4.4,0,0,0-.4-.4Z" transform="translate(-341.522 -367.745)" fill="#8235e3"/>
        <path id="Path_48008" data-name="Path 48008" d="M57.635,316.448H52.813A2.816,2.816,0,0,1,50,313.635v-4.822A2.816,2.816,0,0,1,52.813,306h4.822a2.816,2.816,0,0,1,2.813,2.813v4.822A2.816,2.816,0,0,1,57.635,316.448Zm-4.822-8.037a.4.4,0,0,0-.4.4v4.822a.4.4,0,0,0,.4.4h4.822a.4.4,0,0,0,.4-.4v-4.822a.4.4,0,0,0-.4-.4Z" transform="translate(-50 -291.372)" fill="#8235e3"/>
        <path id="Path_48009" data-name="Path 48009" d="M57.635,225.448H52.813A2.816,2.816,0,0,1,50,222.635v-4.822A2.816,2.816,0,0,1,52.813,215h4.822a2.816,2.816,0,0,1,2.813,2.813v4.822A2.816,2.816,0,0,1,57.635,225.448Zm-4.822-8.037a.4.4,0,0,0-.4.4v4.822a.4.4,0,0,0,.4.4h4.822a.4.4,0,0,0,.4-.4v-4.822a.4.4,0,0,0-.4-.4Z" transform="translate(-50 -215)" fill="#8235e3"/>
        <path id="Path_48010" data-name="Path 48010" d="M57.635,407.448H52.813A2.816,2.816,0,0,1,50,404.635v-4.822A2.816,2.816,0,0,1,52.813,397h4.822a2.816,2.816,0,0,1,2.813,2.813v4.822A2.816,2.816,0,0,1,57.635,407.448Zm-4.822-8.037a.4.4,0,0,0-.4.4v4.822a.4.4,0,0,0,.4.4h4.822a.4.4,0,0,0,.4-.4v-4.822a.4.4,0,0,0-.4-.4Z" transform="translate(-50 -367.745)" fill="#8235e3"/>
      </g>
      <g id="Group_10331" data-name="Group 10331" transform="translate(27.693 12.939)">
        <path id="Path_48011" data-name="Path 48011" d="M178.844,85.446a1.205,1.205,0,0,1-1.206-1.206,1.007,1.007,0,1,0-2.014,0,1.206,1.206,0,1,1-2.411,0,3.418,3.418,0,1,1,6.836,0A1.206,1.206,0,0,1,178.844,85.446Z" transform="translate(-173.213 -80.822)" fill="#01c877"/>
        <path id="Path_48012" data-name="Path 48012" d="M301.889,85.446a1.205,1.205,0,0,1-1.206-1.206,1.007,1.007,0,0,0-2.014,0,1.206,1.206,0,0,1-2.411,0,3.418,3.418,0,0,1,6.836,0A1.206,1.206,0,0,1,301.889,85.446Z" transform="translate(-276.48 -80.822)" fill="#01c877"/>
        <path id="Path_48013" data-name="Path 48013" d="M237.451,114.155a4.318,4.318,0,0,1-3.256-1.483,1.206,1.206,0,0,1,1.818-1.584,1.9,1.9,0,0,0,2.876,0,1.206,1.206,0,0,1,1.818,1.584A4.318,4.318,0,0,1,237.451,114.155Z" transform="translate(-224.144 -105.876)" fill="#01c877"/>
      </g>
    </g>
  </g>
</svg>
