<svg xmlns="http://www.w3.org/2000/svg" width="84" height="86" viewBox="0 0 84 86">
  <g id="coming_soon_tournament_icon2" transform="translate(-139 -666)">
    <g id="search" transform="translate(114.566 634)">
      <path id="Path_48014" data-name="Path 48014" d="M181.3,111.192V118.1l-2.3,1.54-2.3-1.54V111Z" transform="translate(-123.17 -64.129)" fill="#ffb3d0"/>
      <path id="Path_48015" data-name="Path 48015" d="M0,0H4.605V19.956H0Z" transform="translate(84.695 62.715) rotate(-26.36)" fill="#fcc419"/>
      <path id="Path_48016" data-name="Path 48016" d="M0,0H3.07V6.61H0Z" transform="translate(82.537 56.658) rotate(-26.36)" fill="#f5a000"/>
      <path id="Path_48017" data-name="Path 48017" d="M48,32h79.478V45.816H48Z" transform="translate(-19.044)" fill="#a4d8ff"/>
      <path id="Path_48018" data-name="Path 48018" d="M66.678,51.883l-1.631-2.837a3.1,3.1,0,1,0-1.331.765l1.631,2.837a.768.768,0,1,0,1.331-.765Zm-5.312-5.029A1.535,1.535,0,1,1,62.9,48.389,1.535,1.535,0,0,1,61.366,46.854Z" transform="translate(-28.572 -9.482)" fill="#74c0fc"/>
      <path id="Path_48019" data-name="Path 48019" d="M44.307,248v17.462L24.434,283l8.934,8.811a.384.384,0,0,0,.645-.351l-.866-4.178,13.806-12.061a19.188,19.188,0,0,0,6.564-14.451V248Z" transform="translate(0 -176.053)" fill="#0e3e86"/>
      <path id="Path_48020" data-name="Path 48020" d="M262.58,39.681a13.816,13.816,0,1,0-6.24,18.515A13.816,13.816,0,0,0,262.58,39.681Zm-7.6,15.765a10.746,10.746,0,1,1,4.853-14.4,10.746,10.746,0,0,1-4.853,14.4Z" transform="translate(-171.528 0)" fill="#f2444e"/>
      <path id="Path_48021" data-name="Path 48021" d="M272.858,63.365H253.437a10.746,10.746,0,1,1,19.421,0Z" transform="translate(-184.465 -12.944)" fill="#339aef"/>
      <path id="Path_48022" data-name="Path 48022" d="M254.36,192.471l2.379,4.541a.768.768,0,0,1-.337,1.043l-17.373,8.688a7.675,7.675,0,0,1-10.518-3.913L224,192l7.675,1.535,3.07,7.675,18.6-9.073A.768.768,0,0,1,254.36,192.471Z" transform="translate(-161.53 -129.938)" fill="#ffb3d0"/>
      <path id="Path_48023" data-name="Path 48023" d="M188.693,124H191v1.535a2.484,2.484,0,0,1-2.222-1.373Z" transform="translate(-132.873 -74.655)" fill="#e67199"/>
      <path id="Path_48024" data-name="Path 48024" d="M176.693,88H183.6v5.389a2.287,2.287,0,0,1-2.287,2.287,4.621,4.621,0,0,1-4.621-4.621Z" transform="translate(-123.173 -45.254)" fill="#ffb3d0"/>
      <path id="Path_48025" data-name="Path 48025" d="M181.54,70.768v2.469a1.919,1.919,0,0,1-2.285,1.884l-4.623-.9v3.838H172.9l-.846-4.44a3.049,3.049,0,0,1,4.037-3.436l1.1.4a3.049,3.049,0,0,0,1.042.184Z" transform="translate(-119.386 -30.708)" fill="#0e3e86"/>
      <circle id="Ellipse_850" data-name="Ellipse 850" cx="1.193" cy="1.193" r="1.193" transform="translate(54.028 44.197)" fill="#ffb3d0"/>
      <path id="Path_48026" data-name="Path 48026" d="M146.445,134.237l-8.3-3.321A7.4,7.4,0,0,0,128,137.784v15.172h15.351l3.07-10.746,1.853,4.446,5.823-2.911-1.238-3.094A11.513,11.513,0,0,0,146.445,134.237Z" transform="translate(-83.811 -79.944)" fill="#855ef7"/>
      <path id="Path_48027" data-name="Path 48027" d="M178.576,292.3l-3.55-2.312V271.811a22.146,22.146,0,0,0-4.4-13.231L162.746,248H152l13.816,19.5v25.494h12.549a.383.383,0,0,0,.366-.267A.371.371,0,0,0,178.576,292.3Z" transform="translate(-103.235 -174.989)" fill="#0e3e86"/>
      <g id="Group_10332" data-name="Group 10332" transform="translate(74.453 37.266)">
        <path id="Path_48028" data-name="Path 48028" d="M338.684,78.787a.768.768,0,0,1-.688-.427,7.115,7.115,0,0,0-.612-1.012.768.768,0,1,1,1.243-.9,8.617,8.617,0,0,1,.744,1.232.768.768,0,0,1-.687,1.109Z" transform="translate(-327.474 -72.928)" fill="#a4d8ff"/>
        <path id="Path_48029" data-name="Path 48029" d="M294.854,62.244a.765.765,0,0,1-.419-.125,7.058,7.058,0,0,0-6.966-.414.768.768,0,1,1-.682-1.375,8.6,8.6,0,0,1,8.486.5.768.768,0,0,1-.42,1.41Z" transform="translate(-286.361 -59.445)" fill="#a4d8ff"/>
      </g>
    </g>
  </g>
</svg>
