<svg xmlns="http://www.w3.org/2000/svg" width="74" height="74" viewBox="0 0 74 74">
  <g id="confirmation_tick_icon" transform="translate(-151 -410)">
    <circle id="Ellipse_731" data-name="Ellipse 731" cx="37" cy="37" r="37" transform="translate(151 410)" fill="#330d46"/>
    <g id="happy" transform="translate(158.78 415.172)">
      <path id="Path_27041" data-name="Path 27041" d="M168.582,317.1h25.436a1.139,1.139,0,1,0,0-2.278H168.582a1.139,1.139,0,1,0,0,2.278Z" transform="translate(-152.079 -278.921)" fill="#9b83a7"/>
      <path id="Path_27042" data-name="Path 27042" d="M156.837,348.444H115.155a1.139,1.139,0,1,0,0,2.278h41.681a1.139,1.139,0,1,0,0-2.278Z" transform="translate(-106.776 -307.438)" fill="#9b83a7"/>
      <path id="Path_27047" data-name="Path 27047" d="M237.776,414.3l-6.2,6.2-2.715-2.621a1.841,1.841,0,0,0-2.557,2.649l4.016,3.877a1.841,1.841,0,0,0,2.581-.023l7.478-7.478a1.841,1.841,0,1,0-2.6-2.6Z" transform="translate(-204.523 -367.097)" fill="#9b83a7"/>
      <path id="Path_27048" data-name="Path 27048" d="M224.672,169.059v-1.49a1.139,1.139,0,1,0-2.278,0v1.49a1.139,1.139,0,0,0,2.278,0Z" transform="translate(-198.403 -153.063)" fill="#9b83a7"/>
      <path id="Path_27049" data-name="Path 27049" d="M277.538,169.059v-1.49a1.139,1.139,0,1,0-2.278,0v1.49a1.139,1.139,0,1,0,2.278,0Z" transform="translate(-243.089 -153.063)" fill="#9b83a7"/>
      <path id="Path_27050" data-name="Path 27050" d="M210.813,213.125a6.911,6.911,0,1,0,13.822,0,1.139,1.139,0,0,0-1.139-1.139H211.952A1.139,1.139,0,0,0,210.813,213.125Zm11.4,1.139a4.634,4.634,0,0,1-8.983,0h8.983Z" transform="translate(-188.504 -191.7)" fill="#9b83a7"/>
      <path id="Path_27051" data-name="Path 27051" d="M171.3,137.892a1.12,1.12,0,0,0,.352-1.574,10.947,10.947,0,0,1-1.828-6.054,11.54,11.54,0,1,1,11.535,11.213,11.669,11.669,0,0,1-6.783-2.146,1.193,1.193,0,0,0-1.637.25,1.118,1.118,0,0,0,.257,1.591,14.041,14.041,0,0,0,8.163,2.583,13.5,13.5,0,1,0-13.878-13.491,13.17,13.17,0,0,0,2.2,7.285A1.192,1.192,0,0,0,171.3,137.892Z" transform="translate(-152.141 -110.946)" fill="#9b83a7"/>
    </g>
  </g>
</svg>
