<svg xmlns="http://www.w3.org/2000/svg" width="28" height="28" viewBox="0 0 28 28">
  <g id="dispute_icon" transform="translate(-268 -62)">
    <g id="Rectangle_9448" data-name="Rectangle 9448" transform="translate(268 62)" fill="#fff" stroke="#707070" stroke-width="1" opacity="0">
      <rect width="28" height="28" stroke="none"/>
      <rect x="0.5" y="0.5" width="27" height="27" fill="none"/>
    </g>
    <g id="dispute" transform="translate(271 39.163)">
      <g id="Group_10297" data-name="Group 10297" transform="translate(0 26.837)">
        <g id="Group_10296" data-name="Group 10296" transform="translate(0 0)">
          <path id="Path_47950" data-name="Path 47950" d="M0,26.837V36.7H2.076V41.1L5.932,36.7H8.252V31.041h5.76v-4.2Zm6.813,7.006H5.848V32.822h.965Zm1.193-2.662a1.032,1.032,0,0,1-.389.433,2.123,2.123,0,0,1-.28.162q-.143.069-.265.137a.989.989,0,0,0-.2.143.234.234,0,0,0-.078.174H5.829q0-.131.012-.258a.8.8,0,0,1,.062-.243.772.772,0,0,1,.149-.221.989.989,0,0,1,.268-.193q.068-.037.2-.1a2.028,2.028,0,0,0,.255-.149,1.121,1.121,0,0,0,.221-.2.36.36,0,0,0,.093-.24.269.269,0,0,0-.112-.227.424.424,0,0,0-.262-.084.4.4,0,0,0-.193.044.554.554,0,0,0-.14.106.787.787,0,0,0-.1.128A.875.875,0,0,1,6.2,30.7l-.754-.536a1.246,1.246,0,0,1,.511-.592,1.505,1.505,0,0,1,.8-.212,1.76,1.76,0,0,1,.48.069,1.3,1.3,0,0,1,.439.218,1.1,1.1,0,0,1,.318.392,1.313,1.313,0,0,1,.121.592A1.331,1.331,0,0,1,8.006,31.181Z" transform="translate(0 -26.837)" fill="#fff"/>
        </g>
      </g>
      <g id="Group_10299" data-name="Group 10299" transform="translate(9.493 32.621)">
        <g id="Group_10298" data-name="Group 10298" transform="translate(0 0)">
          <path id="Path_47951" data-name="Path 47951" d="M225.042,159.005v9.808h6.575l3.856,4.407v-4.407h2.076v-9.808Zm6.182,6.954h-1.183v-1.146h1.183Zm0-1.868h-1.183v-2.6h1.183Z" transform="translate(-225.042 -159.005)" fill="#fff"/>
        </g>
      </g>
    </g>
  </g>
</svg>
