<svg xmlns="http://www.w3.org/2000/svg" width="28" height="28" viewBox="0 0 28 28">
  <g id="how_to_play_icon" transform="translate(-268 -62)">
    <g id="Rectangle_9448" data-name="Rectangle 9448" transform="translate(268 62)" fill="#fff" stroke="#707070" stroke-width="1" opacity="0">
      <rect width="28" height="28" stroke="none"/>
      <rect x="0.5" y="0.5" width="27" height="27" fill="none"/>
    </g>
    <g id="Group_10312" data-name="Group 10312" transform="translate(275.846 66)">
      <circle id="Ellipse_530" data-name="Ellipse 530" cx="1.51" cy="1.51" r="1.51" transform="translate(4.782 16.979)" fill="#fff"/>
      <path id="Path_16482" data-name="Path 16482" d="M182.154,128.5A6.043,6.043,0,0,0,176,134.411a1.54,1.54,0,0,0,3.077,0,3.079,3.079,0,1,1,3.077,2.955,1.509,1.509,0,0,0-1.538,1.478v3.694a1.54,1.54,0,0,0,3.077,0v-2.4a5.97,5.97,0,0,0,4.615-5.724A6.043,6.043,0,0,0,182.154,128.5Z" transform="translate(-176 -128.5)" fill="#fff"/>
    </g>
  </g>
</svg>
