<svg xmlns="http://www.w3.org/2000/svg" xmlns:xlink="http://www.w3.org/1999/xlink" width="50" height="50" viewBox="0 0 50 50">
  <defs>
    <linearGradient id="linear-gradient" x1="0.5" x2="0.5" y2="1" gradientUnits="objectBoundingBox">
      <stop offset="0" stop-color="#60008b"/>
      <stop offset="1" stop-color="#40065a"/>
    </linearGradient>
    <linearGradient id="linear-gradient-2" x1="0.5" x2="0.5" y2="1.247" gradientUnits="objectBoundingBox">
      <stop offset="0" stop-color="#ffb300"/>
      <stop offset="1" stop-color="#ffe500"/>
    </linearGradient>
  </defs>
  <g id="prize_icon" transform="translate(-163 -260)">
    <g id="Rectangle_9519" data-name="Rectangle 9519" transform="translate(163 260)" stroke="#e1810c" stroke-width="2" fill="url(#linear-gradient)">
      <rect width="50" height="50" rx="25" stroke="none"/>
      <rect x="1" y="1" width="48" height="48" rx="24" fill="none"/>
    </g>
    <g id="award" transform="translate(172 269)">
      <g id="Group_10238" data-name="Group 10238" transform="translate(1 1)">
        <g id="Group_10236" data-name="Group 10236">
          <path id="Path_47877" data-name="Path 47877" d="M30.062,2.864H25.375V1.839A.923.923,0,0,0,24.437,1H7.562a.923.923,0,0,0-.937.839c0,.373-.094.652-.094,1.025H1.938A.936.936,0,0,0,1,3.8V4.913a10.059,10.059,0,0,0,8.625,9.97A26.389,26.389,0,0,0,11.5,17.492h9a12.216,12.216,0,0,0,1.875-2.609A10.2,10.2,0,0,0,31,4.913V3.8a1,1,0,0,0-.937-.932ZM2.875,4.913V4.727H6.531a19.267,19.267,0,0,0,1.875,7.92A8.154,8.154,0,0,1,2.875,4.913ZM19.75,9.2l-1.312,1.3.281,1.864a.77.77,0,0,1-.281.745.718.718,0,0,1-.469.186.566.566,0,0,1-.375-.093L16,12.368l-1.594.839a.717.717,0,0,1-.844-.093.623.623,0,0,1-.281-.745l.281-1.864L12.25,9.2a.89.89,0,0,1-.187-.839.989.989,0,0,1,.656-.559l1.781-.28.844-1.677a.743.743,0,0,1,.75-.466.957.957,0,0,1,.75.466l.844,1.677,1.781.28a.989.989,0,0,1,.656.559,2.3,2.3,0,0,1-.375.839Zm9.375-4.286a8.154,8.154,0,0,1-5.531,7.734,20.019,20.019,0,0,0,1.781-7.92h3.75ZM19.656,19.263H12.344a6.674,6.674,0,0,1-2.156,4.473.5.5,0,0,0,.375.839H21.625A.5.5,0,0,0,22,23.735C20.406,22.151,19.656,20.66,19.656,19.263Z" transform="translate(-1 -1)" fill="url(#linear-gradient-2)"/>
        </g>
        <g id="Group_10237" data-name="Group 10237" transform="translate(7.327 25.588)">
          <path id="Path_47878" data-name="Path 47878" d="M23.483,28.4H9.863A.86.86,0,0,0,9,29.263v2.59a.906.906,0,0,0,.959.959H23.387a.906.906,0,0,0,.959-.959V29.167a.846.846,0,0,0-.863-.767Z" transform="translate(-9 -28.4)" fill="url(#linear-gradient-2)"/>
        </g>
      </g>
    </g>
  </g>
</svg>
