<svg xmlns="http://www.w3.org/2000/svg" xmlns:xlink="http://www.w3.org/1999/xlink" width="20" height="20" viewBox="0 0 20 20">
  <defs>
    <linearGradient id="linear-gradient" x1="0.478" y1="-0.053" x2="0.52" y2="0.994" gradientUnits="objectBoundingBox">
      <stop offset="0" stop-color="#fde400"/>
      <stop offset="1" stop-color="#e37d25"/>
    </linearGradient>
    <linearGradient id="linear-gradient-2" x1="0.509" y1="1.469" x2="0.494" y2="-0.097" gradientUnits="objectBoundingBox">
      <stop offset="0" stop-color="#e37d25"/>
      <stop offset="1" stop-color="#fde400"/>
    </linearGradient>
    <linearGradient id="linear-gradient-3" x1="0.5" y1="-0.365" x2="0.5" y2="0.326" gradientUnits="objectBoundingBox">
      <stop offset="0.059" stop-color="#be86bb"/>
      <stop offset="0.577" stop-color="#00b1c3"/>
      <stop offset="1" stop-color="#b5d9dc"/>
    </linearGradient>
    <linearGradient id="linear-gradient-4" x1="0.611" y1="0.983" x2="0.451" y2="0.112" gradientUnits="objectBoundingBox">
      <stop offset="0" stop-color="#dfd7dc"/>
      <stop offset="0.289" stop-color="#bd81b8"/>
      <stop offset="1" stop-color="#00b1c3"/>
    </linearGradient>
    <linearGradient id="linear-gradient-5" x1="0.478" y1="0.796" x2="-1.34" y2="-0.353" xlink:href="#linear-gradient-2"/>
    <linearGradient id="linear-gradient-6" x1="-25.478" y1="47.615" x2="-26.011" y2="43.692" xlink:href="#linear-gradient-2"/>
    <linearGradient id="linear-gradient-7" x1="-29.262" y1="95.044" x2="-29.794" y2="91.121" xlink:href="#linear-gradient-2"/>
  </defs>
  <g id="prize_money_coin_icon" transform="translate(-33 -224)">
    <g id="Rectangle_8490" data-name="Rectangle 8490" transform="translate(33 224)" fill="#fff" stroke="#707070" stroke-width="1" opacity="0">
      <rect width="20" height="20" stroke="none"/>
      <rect x="0.5" y="0.5" width="19" height="19" fill="none"/>
    </g>
    <g id="Group_10188" data-name="Group 10188" transform="translate(33 224.256)">
      <g id="Group_9600" data-name="Group 9600" transform="translate(0)">
        <g id="Group_9597" data-name="Group 9597" transform="translate(0)">
          <path id="Path_44838" data-name="Path 44838" d="M48.33,27.928a9.746,9.746,0,1,0,9.978,9.743A9.863,9.863,0,0,0,48.33,27.928Z" transform="translate(-38.308 -27.928)" fill="url(#linear-gradient)"/>
          <path id="Path_44839" data-name="Path 44839" d="M47.6,196.353a9.878,9.878,0,0,1-9.976-9.543c0,.073,0,.146,0,.219a9.981,9.981,0,0,0,19.956,0c0-.073,0-.146,0-.219A9.878,9.878,0,0,1,47.6,196.353Z" transform="translate(-37.626 -177.304)" fill="#fff05a"/>
          <path id="Path_44840" data-name="Path 44840" d="M48.33,27.928a9.876,9.876,0,0,0-9.978,9.77c0,.119.005.236.01.354a15.373,15.373,0,0,0,19.94-.119c0-.079.007-.156.007-.236A9.876,9.876,0,0,0,48.33,27.928Z" transform="translate(-38.308 -27.928)" fill="#fff" opacity="0.35" style="mix-blend-mode: overlay;isolation: isolate"/>
          <path id="Path_44841" data-name="Path 44841" d="M88.012,31.782a10.085,10.085,0,0,0-15.9.053,15.544,15.544,0,0,0,15.9-.053Z" transform="translate(-70.04 -27.928)" fill="#fff" opacity="0.49" style="mix-blend-mode: overlay;isolation: isolate"/>
          <path id="Path_44842" data-name="Path 44842" d="M48.34,28.486a9.877,9.877,0,0,1,9.97,9.482c0-.092.008-.185.008-.279a9.98,9.98,0,0,0-19.956,0c0,.094,0,.187.007.279A9.877,9.877,0,0,1,48.34,28.486Z" transform="translate(-38.318 -27.928)" fill="#fff" opacity="0.49" style="mix-blend-mode: overlay;isolation: isolate"/>
          <path id="Path_44843" data-name="Path 44843" d="M152.8,38.543c.467-.036.949.142.716.345s-1.814,1.115-2.5.552S152.247,38.585,152.8,38.543Z" transform="translate(-144.109 -37.901)" fill="#fff"/>
          <path id="Path_44844" data-name="Path 44844" d="M51.692,61.047a7.612,7.612,0,0,0-2.615,4.833c.03,1.328.74-.756,1.106-1.512a12.006,12.006,0,0,1,3.527-3.759C55.038,59.91,53.979,59.123,51.692,61.047Z" transform="translate(-48.388 -57.924)" fill="#fff"/>
        </g>
        <g id="Group_9599" data-name="Group 9599" transform="translate(2.189 2.145)">
          <path id="Path_44845" data-name="Path 44845" d="M88.638,69.437a7.242,7.242,0,1,0,7.4,7.24A7.324,7.324,0,0,0,88.638,69.437Z" transform="translate(-80.805 -69.089)" fill="url(#linear-gradient-2)"/>
          <g id="Group_9598" data-name="Group 9598" opacity="0.35" style="mix-blend-mode: overlay;isolation: isolate">
            <path id="Path_44846" data-name="Path 44846" d="M81.9,78.953a7.658,7.658,0,1,1,7.82-7.656A7.749,7.749,0,0,1,81.9,78.953Zm0-14.617A6.963,6.963,0,1,0,89.029,71.3,7.055,7.055,0,0,0,81.9,64.336Z" transform="translate(-74.079 -63.641)" fill="#fff"/>
          </g>
          <path id="Path_44847" data-name="Path 44847" d="M119.054,69.437a7.476,7.476,0,0,0-5.493,2.377,7.485,7.485,0,0,1,5.051-1.94,7.341,7.341,0,0,1,7.422,7.258,7.142,7.142,0,0,1-1.93,4.882,7.164,7.164,0,0,0,2.372-5.319A7.342,7.342,0,0,0,119.054,69.437Z" transform="translate(-111.24 -69.089)" fill="#c46728" opacity="0.39" style="mix-blend-mode: multiply;isolation: isolate"/>
          <path id="Path_44848" data-name="Path 44848" d="M84.018,80.957c0-4.671,3.314-7.238,7.4-7.238a7.475,7.475,0,0,1,4.449,1.453,7.42,7.42,0,0,0-14.644,1.5,7.176,7.176,0,0,0,2.953,5.786A7.173,7.173,0,0,1,84.018,80.957Z" transform="translate(-80.796 -69.089)" fill="#c46728" opacity="0.39" style="mix-blend-mode: multiply;isolation: isolate"/>
          <path id="Path_44849" data-name="Path 44849" d="M88.638,194.213a7.335,7.335,0,0,1-7.4-7.05c0,.07-.007.138-.007.209a7.4,7.4,0,0,0,14.806,0c0-.07,0-.139-.005-.209A7.336,7.336,0,0,1,88.638,194.213Z" transform="translate(-80.805 -179.781)" fill="#fff05a"/>
        </g>
      </g>
      <g id="Group_9601" data-name="Group 9601" transform="translate(2.402 4.095)" opacity="0.39" style="mix-blend-mode: multiply;isolation: isolate">
        <path id="Path_44850" data-name="Path 44850" d="M85.128,108.711l-7.5-7.136,3.25-4.378,1.952-.742h4.6l1.952.742,3.25,4.378Zm-6.544-7.219,6.544,6.225,6.544-6.225L88.931,97.8,87.3,97.178H82.959l-1.634.621Z" transform="translate(-77.626 -96.455)" fill="#c46728"/>
      </g>
      <g id="Group_9604" data-name="Group 9604" transform="translate(2.885 4.457)">
        <g id="Group_9603" data-name="Group 9603" transform="translate(0 0)">
          <path id="Path_44851" data-name="Path 44851" d="M142.3,102.475h-4.527l-1.816.681v1.871h8.159v-1.871Z" transform="translate(-132.936 -102.475)" fill="url(#linear-gradient-3)"/>
          <path id="Path_44852" data-name="Path 44852" d="M96.835,113.821l-1.812.775-2.259.16L90.5,114.6l-1.812-.775-3.029,4.035,7.1,6.681,7.1-6.681Z" transform="translate(-85.664 -113.14)" fill="url(#linear-gradient-4)"/>
          <path id="Path_44853" data-name="Path 44853" d="M166.05,126.725l.105,4.273H168.3v-4.113Z" transform="translate(-161.207 -125.268)" fill="#fff" opacity="0.38" style="mix-blend-mode: overlay;isolation: isolate"/>
          <path id="Path_44854" data-name="Path 44854" d="M119.23,121.83l-4.3-3.653,1.263-4.356,1.048,4.962Z" transform="translate(-113.175 -113.14)" fill="#fff" opacity="0.38" style="mix-blend-mode: overlay;isolation: isolate"/>
          <path id="Path_44855" data-name="Path 44855" d="M171.791,129.394l-2.03,4.187h2.03Z" transform="translate(-164.694 -127.778)" fill="#fff" opacity="0.38" style="mix-blend-mode: overlay;isolation: isolate"/>
          <path id="Path_44856" data-name="Path 44856" d="M210.645,117.856l-4.933,1.013h-2.148v-4.113l2.253-.16,1.807-.775Z" transform="translate(-196.444 -113.14)" fill="#fff" opacity="0.38" style="mix-blend-mode: overlay;isolation: isolate"/>
          <path id="Path_44857" data-name="Path 44857" d="M205.817,126.725,205.712,131h-2.148v-4.113Z" transform="translate(-196.46 -125.268)" fill="#fff" opacity="0.38" style="mix-blend-mode: overlay;isolation: isolate"/>
          <path id="Path_44858" data-name="Path 44858" d="M220.644,121.83l4.3-3.653-1.263-4.356-1.048,4.962Z" transform="translate(-212.499 -113.14)" fill="#fff" opacity="0.38" style="mix-blend-mode: overlay;isolation: isolate"/>
          <path id="Path_44859" data-name="Path 44859" d="M203.564,129.394l2.03,4.187h-2.03Z" transform="translate(-196.461 -127.778)" fill="#fff" opacity="0.38" style="mix-blend-mode: overlay;isolation: isolate"/>
          <path id="Path_44860" data-name="Path 44860" d="M165.046,128.011l-1.242-.088-1.22,4.275,2.461,5.594,2.148-5.668-1.122-4.185Z" transform="translate(-157.947 -126.395)" fill="#fff" opacity="0.3" style="mix-blend-mode: overlay;isolation: isolate"/>
          <path id="Path_44861" data-name="Path 44861" d="M186.387,129.394l-1.1,4.1,1.1,5.677.96-5.677Z" transform="translate(-179.287 -127.778)" fill="#fff" opacity="0.34"/>
          <path id="Path_44862" data-name="Path 44862" d="M114.933,118.177l1.263-4.356,4.06,10.716Z" transform="translate(-113.175 -113.14)" fill="#fff" opacity="0.2" style="mix-blend-mode: overlay;isolation: isolate"/>
          <path id="Path_44863" data-name="Path 44863" d="M85.664,117.856l4.933,1.013h2.148v-4.113l-2.253-.16-1.807-.775Z" transform="translate(-85.664 -113.14)" fill="#fff" opacity="0.54" style="mix-blend-mode: overlay;isolation: isolate"/>
          <path id="Path_44864" data-name="Path 44864" d="M85.664,117.856l7.081,6.681-2.075-5.475,2.075-.193H90.6l-.105-4.225-.215,4.1-2.855-.57,1.263-4.356-1.477,4.249Z" transform="translate(-85.664 -113.14)" fill="#fff" opacity="0.5" style="mix-blend-mode: overlay;isolation: isolate"/>
          <path id="Path_44865" data-name="Path 44865" d="M208.887,118.177l-1.263-4.356-4.06,10.716Z" transform="translate(-196.444 -113.14)" fill="#fff" opacity="0.2" style="mix-blend-mode: overlay;isolation: isolate"/>
          <path id="Path_44866" data-name="Path 44866" d="M210.645,117.856l-1.84.606-3.166.6-2.075-.193h2.148l.105-4.273.215,4.151,2.855-.57-1.263-4.356,1.477,4.249Z" transform="translate(-196.444 -113.14)" fill="#fff" opacity="0.5" style="mix-blend-mode: overlay;isolation: isolate"/>
          <g id="Group_9602" data-name="Group 9602" transform="translate(2.091 1.023)">
            <path id="Path_44867" data-name="Path 44867" d="M120.967,123.855,122.2,119.5l-1.726,4.168L125.4,129.7Z" transform="translate(-120.477 -119.504)" fill="#fff"/>
            <path id="Path_44868" data-name="Path 44868" d="M143.077,127.514l-1.468,3.952,3.652,5.76-2.051-5.412Z" transform="translate(-140.34 -127.033)" fill="#fff" opacity="0.34"/>
          </g>
          <path id="Path_44869" data-name="Path 44869" d="M135.957,113.821l1.816.935,2.264.119,2.267-.207,1.812-.847-1.859.687-2.22.214-2.264-.126Z" transform="translate(-132.936 -113.14)" fill="#fff"/>
          <path id="Path_44870" data-name="Path 44870" d="M170.556,102.475l-.553,1.5-1.7.084L166.8,104l-.754-1.528Z" transform="translate(-161.203 -102.475)" fill="#fff" opacity="0.34"/>
          <path id="Path_44871" data-name="Path 44871" d="M137.764,103.979l4.506-1.5h-4.506l-1.807.681Z" transform="translate(-132.922 -102.475)" fill="#fff" opacity="0.34"/>
          <path id="Path_44872" data-name="Path 44872" d="M144.116,103.157h-8.159l1.816-.681H142.3Z" transform="translate(-132.936 -102.475)" fill="#fff" opacity="0.34"/>
          <path id="Path_44873" data-name="Path 44873" d="M94.409,114.555,91.773,118.6l.99.184Z" transform="translate(-91.406 -113.829)" fill="#fff" style="mix-blend-mode: overlay;isolation: isolate"/>
          <path id="Path_44874" data-name="Path 44874" d="M99.468,146.762l-.941,2.215-.283-.053Z" transform="translate(-97.488 -144.102)" fill="#fff"/>
          <path id="Path_44875" data-name="Path 44875" d="M168.3,131.372l-.069,9.48-2.184-5.293Z" transform="translate(-161.207 -129.637)" fill="#fff" opacity="0.49"/>
          <path id="Path_44876" data-name="Path 44876" d="M92.209,181.706l-1.85.2-4.7-.9,4.828,1.323h4.283l2.662-.661-2.7.351Z" transform="translate(-85.664 -176.291)" fill="#fff"/>
        </g>
      </g>
      <g id="Group_9608" data-name="Group 9608" transform="translate(1.327 8.153)">
        <g id="Group_9605" data-name="Group 9605" transform="translate(7.501 6.548)">
          <path id="Path_44877" data-name="Path 44877" d="M186.693,276.953V273.3l-1.07,2.265Z" transform="translate(-185.623 -273.304)" fill="#fde400"/>
          <path id="Path_44878" data-name="Path 44878" d="M203.431,276.953V273.3l1.07,2.265Z" transform="translate(-202.362 -273.304)" fill="url(#linear-gradient-5)"/>
          <path id="Path_44879" data-name="Path 44879" d="M186.795,273.885l-.122,2.139-.941.1h1.063Z" transform="translate(-185.725 -273.851)" fill="#fff"/>
        </g>
        <g id="Group_9606" data-name="Group 9606" transform="translate(0)">
          <path id="Path_44880" data-name="Path 44880" d="M59.717,165.352h3.649l-2.265-1.07Z" transform="translate(-59.717 -164.282)" fill="#fde400"/>
          <path id="Path_44881" data-name="Path 44881" d="M59.717,182.093h3.649L61.1,183.162Z" transform="translate(-59.717 -181.023)" fill="url(#linear-gradient-6)"/>
          <path id="Path_44882" data-name="Path 44882" d="M59.717,165.456l1.376,1.063v-2.126Z" transform="translate(-59.717 -164.386)" fill="#fde400"/>
          <path id="Path_44883" data-name="Path 44883" d="M61.157,165.408l-.039-.988-.089.988-1.312.074h3.649Z" transform="translate(-59.717 -164.412)" fill="#fff"/>
        </g>
        <g id="Group_9607" data-name="Group 9607" transform="translate(13.684)">
          <path id="Path_44884" data-name="Path 44884" d="M293.271,165.352h-3.649l2.265-1.07Z" transform="translate(-289.622 -164.282)" fill="#fde400"/>
          <path id="Path_44885" data-name="Path 44885" d="M293.271,182.093h-3.649l2.265,1.069Z" transform="translate(-289.622 -181.023)" fill="url(#linear-gradient-7)"/>
          <path id="Path_44886" data-name="Path 44886" d="M291.83,165.408l.039-.988.089.988,1.312.074h-3.649Z" transform="translate(-289.622 -164.412)" fill="#fff"/>
        </g>
      </g>
    </g>
  </g>
</svg>
