<svg xmlns="http://www.w3.org/2000/svg" width="74" height="74" viewBox="0 0 74 74">
  <g id="prize_list_popup_icon" transform="translate(-151 -490)">
    <circle id="Ellipse_731" data-name="Ellipse 731" cx="37" cy="37" r="37" transform="translate(151 490)" fill="#330d46"/>
    <g id="Outer_Lines" data-name="Outer Lines" transform="translate(166 505)">
      <path id="Path_47885" data-name="Path 47885" d="M21.373,21.5a1.907,1.907,0,0,0,2.023-.12,2,2,0,0,0,.812-1.973l-.293-1.78,1.24-1.255a2.017,2.017,0,0,0,.474-2.062A1.948,1.948,0,0,0,24.07,12.98l-1.691-.255-.761-1.6a1.927,1.927,0,0,0-3.5,0l-.761,1.6-1.691.255a1.948,1.948,0,0,0-1.558,1.328,2.017,2.017,0,0,0,.474,2.062l1.239,1.257-.293,1.78a2,2,0,0,0,.812,1.973,1.9,1.9,0,0,0,2.023.12l1.506-.825Zm-3.716-1.288a.427.427,0,0,1-.472-.029.532.532,0,0,1-.213-.537l.355-2.148a.733.733,0,0,0-.2-.636l-1.5-1.522a.553.553,0,0,1-.125-.567.485.485,0,0,1,.385-.341l2.077-.314a.733.733,0,0,0,.553-.411l.929-1.955a.461.461,0,0,1,.851,0l.929,1.955a.733.733,0,0,0,.553.411l2.077.314a.485.485,0,0,1,.385.341.553.553,0,0,1-.125.567l-1.5,1.522a.733.733,0,0,0-.2.636l.355,2.148a.532.532,0,0,1-.213.537.43.43,0,0,1-.472.029l-1.858-1.015a.733.733,0,0,0-.7,0Z" transform="translate(-3.733 -2.667)" fill="#9b83a7"/>
      <path id="Path_47886" data-name="Path 47886" d="M37.627,21.824l2.327-3.887a2.64,2.64,0,0,0-2.26-4h-.565A4.465,4.465,0,0,0,33,11.733a5.934,5.934,0,0,0-.733.052V5.867a2.933,2.933,0,0,0-2.933-2.933H29.2a2.175,2.175,0,0,0,.135-.733,2.2,2.2,0,0,0-2.2-2.2h-22a2.2,2.2,0,0,0-2.2,2.2,2.175,2.175,0,0,0,.135.733H2.933A2.933,2.933,0,0,0,0,5.867V13.2a4.4,4.4,0,0,0,4.4,4.4h.386a11.767,11.767,0,0,0,6.947,7.936v8.2H8.067a2.2,2.2,0,0,0-2.2,2.2v2.2a2.2,2.2,0,0,0-2.2,2.2v2.2A1.467,1.467,0,0,0,5.133,44h22a1.467,1.467,0,0,0,1.345-.885A11.959,11.959,0,0,0,33,44c6.065,0,11-4.441,11-9.9C44,30.145,41.131,24.691,37.627,21.824Zm-1.733-7.089-.672,2.688a.733.733,0,0,0,.534.889.746.746,0,0,0,.177.022.733.733,0,0,0,.711-.556l.595-2.377h.455A1.178,1.178,0,0,1,38.7,17.185l-2.449,4.082h-6.5L27.3,17.185a1.178,1.178,0,0,1,1-1.785h.451l.594,2.377a.733.733,0,0,0,.715.556.746.746,0,0,0,.178-.022.733.733,0,0,0,.534-.889l-.672-2.688A3.027,3.027,0,0,1,33,13.2a3.007,3.007,0,0,1,2.894,1.535Zm-13.877,19H20.533v-8.2a11.785,11.785,0,0,0,6.353-6.189l1.487,2.483C24.974,24.6,22.183,29.813,22.017,33.733ZM30.8,5.867v6.318a4.236,4.236,0,0,0-1.924,1.749h-.569a2.772,2.772,0,0,0-.44.04V4.4h1.467A1.467,1.467,0,0,1,30.8,5.867ZM4.4,2.2a.733.733,0,0,1,.733-.733h22a.733.733,0,1,1,0,1.467h-22A.733.733,0,0,1,4.4,2.2Zm0,13.933A2.933,2.933,0,0,1,1.467,13.2V5.867A1.467,1.467,0,0,1,2.933,4.4H4.4V14.667a11.66,11.66,0,0,0,.1,1.467Zm1.467-1.467V4.4H26.4V14.755a2.691,2.691,0,0,0-.385.518,2.61,2.61,0,0,0-.084,2.44A10.262,10.262,0,0,1,5.867,14.667ZM13.2,26.014a11.452,11.452,0,0,0,5.867.009v7.711H13.2Zm-5.867,9.92a.733.733,0,0,1,.733-.733H22.073a9.066,9.066,0,0,0,.892,2.933H7.333Zm19.8,6.6h-22v-2.2a.733.733,0,0,1,.733-.733H23.86a10.645,10.645,0,0,0,3.274,2.86Zm5.867,0c-5.257,0-9.533-3.783-9.533-8.433,0-3.615,2.834-8.86,6.11-11.367h6.846C39.7,25.24,42.533,30.485,42.533,34.1,42.533,38.75,38.257,42.533,33,42.533Z" fill="#9b83a7"/>
      <path id="Path_47887" data-name="Path 47887" d="M45.865,38.4a.733.733,0,0,0,1.467,0A3.673,3.673,0,0,0,44.4,34.807v-.073a.733.733,0,1,0-1.467,0v.073a3.667,3.667,0,0,0,0,7.187v4.339a2.2,2.2,0,0,1-1.467-2.066.733.733,0,1,0-1.467,0,3.673,3.673,0,0,0,2.933,3.593v.073a.733.733,0,0,0,1.467,0V47.86a3.667,3.667,0,0,0,0-7.187V36.335A2.2,2.2,0,0,1,45.865,38.4Zm-4.4,0a2.2,2.2,0,0,1,1.467-2.065v4.13A2.2,2.2,0,0,1,41.465,38.4Zm4.4,5.867A2.2,2.2,0,0,1,44.4,46.332V42.2a2.2,2.2,0,0,1,1.467,2.065Z" transform="translate(-10.665 -9.067)" fill="#9b83a7"/>
    </g>
  </g>
</svg>
