<svg xmlns="http://www.w3.org/2000/svg" width="74" height="74" viewBox="0 0 74 74">
  <g id="report_user_popup_icon" transform="translate(-151 -490)">
    <circle id="Ellipse_731" data-name="Ellipse 731" cx="37" cy="37" r="37" transform="translate(151 490)" fill="#330d46"/>
    <g id="Layer_2" data-name="Layer 2" transform="translate(167.5 503.5)">
      <path id="Path_47964" data-name="Path 47964" d="M9.3,21.49A6.5,6.5,0,1,0,2.8,15a6.5,6.5,0,0,0,6.5,6.5Zm0-10.9A4.4,4.4,0,1,1,4.9,15a4.4,4.4,0,0,1,4.4-4.4Z" transform="translate(1.424 7.667)" fill="#9b83a7"/>
      <path id="Path_47965" data-name="Path 47965" d="M15.178,16.3H6.258A4.765,4.765,0,0,0,1.5,21.06v7.182a1.048,1.048,0,0,0,2.1,0V21.06A2.667,2.667,0,0,1,6.258,18.4h8.919a2.669,2.669,0,0,1,2.665,2.665v7.182a1.048,1.048,0,0,0,2.1,0V21.06a4.765,4.765,0,0,0-4.76-4.76Z" transform="translate(0 16.21)" fill="#9b83a7"/>
      <path id="Path_47966" data-name="Path 47966" d="M34.752,10.526a1.048,1.048,0,0,0-.226-.339L26.144,1.806A1.062,1.062,0,0,0,25.4,1.5H6.548A1.048,1.048,0,0,0,5.5,2.548V13.024a1.048,1.048,0,1,0,2.1,0V3.6H24.357v7.333A1.048,1.048,0,0,0,25.4,11.976h7.333V35.024H19.119a1.048,1.048,0,0,0,0,2.1H33.786a1.048,1.048,0,0,0,1.048-1.048V10.929a1.048,1.048,0,0,0-.082-.4Zm-8.3-5.45,4.8,4.8h-4.8Z" transform="translate(4.667 0)" fill="#9b83a7"/>
      <path id="Path_47967" data-name="Path 47967" d="M12.548,10.6h8.381a1.048,1.048,0,1,0,0-2.1H12.548a1.048,1.048,0,0,0,0,2.1Z" transform="translate(11.172 7.667)" fill="#9b83a7"/>
      <path id="Path_47968" data-name="Path 47968" d="M12.548,14.6h8.381a1.048,1.048,0,1,0,0-2.1H12.548a1.048,1.048,0,0,0,0,2.1Z" transform="translate(11.172 12.048)" fill="#9b83a7"/>
      <path id="Path_47969" data-name="Path 47969" d="M12.548,12.6h8.381a1.048,1.048,0,1,0,0-2.1H12.548a1.048,1.048,0,1,0,0,2.1Z" transform="translate(11.172 9.857)" fill="#9b83a7"/>
    </g>
  </g>
</svg>
