<svg xmlns="http://www.w3.org/2000/svg" width="20" height="20" viewBox="0 0 20 20">
  <g id="room_id_password_copy_icon" transform="translate(-238 -432)">
    <g id="Rectangle_9078" data-name="Rectangle 9078" transform="translate(238 432)" fill="#fff" stroke="#707070" stroke-width="1" opacity="0">
      <rect width="20" height="20" stroke="none"/>
      <rect x="0.5" y="0.5" width="19" height="19" fill="none"/>
    </g>
    <g id="copy-two-paper-sheets-interface-symbol" transform="translate(197.286 434)">
      <g id="_x33__21_" transform="translate(43.714)">
        <g id="Group_10052" data-name="Group 10052" transform="translate(0)">
          <path id="Path_46817" data-name="Path 46817" d="M54.214,0h-6a2.083,2.083,0,0,0-2,2l-.578.013A2,2,0,0,0,43.714,4V14a2.083,2.083,0,0,0,2,2h7.5a2.083,2.083,0,0,0,2-2h.5a2.083,2.083,0,0,0,2-2V4.012Zm-1,15h-7.5a1.048,1.048,0,0,1-1-1V4a.991.991,0,0,1,.953-.984L46.214,3v9a2.083,2.083,0,0,0,2,2h6A1.049,1.049,0,0,1,53.214,15Zm3.5-3a1.049,1.049,0,0,1-1,1h-7.5a1.048,1.048,0,0,1-1-1V2a1.048,1.048,0,0,1,1-1h5c-.008,1.152,0,2.013,0,2.013a2.06,2.06,0,0,0,2,1.987h1.5Zm-1.5-8c-.532,0-1-.967-1-1.486v-1.5h0L56.714,4Zm-1,3.009h-4.5a.5.5,0,1,0,0,1h4.5a.5.5,0,1,0,0-1Zm0,2.5h-4.5a.5.5,0,1,0,0,1h4.5a.5.5,0,1,0,0-1Z" transform="translate(-43.714)" fill="#ffbd06"/>
        </g>
      </g>
    </g>
  </g>
</svg>
