<svg xmlns="http://www.w3.org/2000/svg" width="74" height="74" viewBox="0 0 74 74">
  <g id="switch_wallet_account_popup_icon" transform="translate(-151 -490)">
    <circle id="Ellipse_731" data-name="Ellipse 731" cx="37" cy="37" r="37" transform="translate(151 490)" fill="#330d46"/>
    <g id="wallet_1_" data-name="wallet (1)" transform="translate(149.009 505)">
      <path id="Path_47970" data-name="Path 47970" d="M350.227,304.229a3,3,0,1,0,3-3A3.005,3.005,0,0,0,350.227,304.229Zm4.712,0a1.711,1.711,0,1,1-1.711-1.711A1.713,1.713,0,0,1,354.939,304.229Z" transform="translate(-302.799 -275.347)" fill="#9b83a7"/>
      <path id="Path_47971" data-name="Path 47971" d="M57.555,22.547v-4.01a4.8,4.8,0,0,0-3.671-4.618l2.064-7.886a.643.643,0,0,0-.478-.784L48.958,3.631V3.006a.653.653,0,0,0-.662-.645H43.843L34.414.02a.679.679,0,0,0-.5.07.647.647,0,0,0-.3.4l-.491,1.876H26.565a.653.653,0,0,0-.662.645V6.719a7.57,7.57,0,0,0-3.881,6.567c0,.183.008.368.022.553a4.814,4.814,0,0,0-4.054,4.7v.879a.662.662,0,0,0,1.323,0v-.879a3.56,3.56,0,0,1,3.611-3.48H52.658a3.561,3.561,0,0,1,3.573,3.48v4.008H45.958a2.485,2.485,0,0,0-2.515,2.449v7.778a2.485,2.485,0,0,0,2.515,2.449H56.232V39.23a3.532,3.532,0,0,1-3.573,3.48H22.888a3.532,3.532,0,0,1-3.573-3.48V22.424a.662.662,0,0,0-1.323,0V39.23a4.84,4.84,0,0,0,4.9,4.77H52.658a4.84,4.84,0,0,0,4.9-4.77V35.22a2.483,2.483,0,0,0,2.436-2.447V31.107a.662.662,0,0,0-1.323,0v1.666a1.177,1.177,0,0,1-1.191,1.16H45.958a1.177,1.177,0,0,1-1.191-1.16V24.995a1.177,1.177,0,0,1,1.191-1.16H57.476a1.177,1.177,0,0,1,1.191,1.16v3.1a.662.662,0,0,0,1.323,0v-3.1a2.483,2.483,0,0,0-2.436-2.447ZM54.5,6.339l-1.945,7.429h-3.6V4.962ZM34.728,1.428l3.758.933h-4Zm-7.5,2.222H47.634V13.768H37.609c.011-.161.017-.322.017-.481a7.711,7.711,0,0,0-7.8-7.6,7.953,7.953,0,0,0-2.6.434Zm2.6,3.326a6.4,6.4,0,0,1,6.479,6.31c0,.159-.007.32-.02.481H23.366c-.013-.161-.02-.322-.02-.481A6.4,6.4,0,0,1,29.825,6.976Z" transform="translate(0)" fill="#9b83a7"/>
      <g id="Group_10311" data-name="Group 10311" transform="translate(25.028 25.863)">
        <path id="Path_47972" data-name="Path 47972" d="M217.638,302.829a.551.551,0,1,1,1.1,0,.646.646,0,0,0,1.291,0,1.842,1.842,0,1,0-3.685,0,.646.646,0,0,0,1.291,0Z" transform="translate(-206.053 -300.987)" fill="#9b83a7"/>
        <path id="Path_47973" data-name="Path 47973" d="M147.18,317.124a2.62,2.62,0,0,0,1.975-.9.646.646,0,1,0-.973-.848,1.327,1.327,0,0,1-2,0,.646.646,0,1,0-.973.848A2.621,2.621,0,0,0,147.18,317.124Z" transform="translate(-140.889 -313.935)" fill="#9b83a7"/>
        <path id="Path_47974" data-name="Path 47974" d="M98.038,304.906v-1.033a.646.646,0,0,0-1.291,0v1.033a.646.646,0,0,0,1.291,0Z" transform="translate(-96.747 -303.035)" fill="#9b83a7"/>
      </g>
    </g>
  </g>
</svg>
