<svg xmlns="http://www.w3.org/2000/svg" xmlns:xlink="http://www.w3.org/1999/xlink" width="36" height="36" viewBox="0 0 36 36">
  <defs>
    <linearGradient id="linear-gradient" x1="0.478" y1="-0.053" x2="0.52" y2="0.994" gradientUnits="objectBoundingBox">
      <stop offset="0" stop-color="#fde400"/>
      <stop offset="1" stop-color="#e37d25"/>
    </linearGradient>
    <linearGradient id="linear-gradient-2" x1="0.509" y1="1.469" x2="0.494" y2="-0.097" gradientUnits="objectBoundingBox">
      <stop offset="0" stop-color="#e37d25"/>
      <stop offset="1" stop-color="#fde400"/>
    </linearGradient>
    <linearGradient id="linear-gradient-3" x1="0.5" y1="-0.365" x2="0.5" y2="0.326" gradientUnits="objectBoundingBox">
      <stop offset="0.059" stop-color="#be86bb"/>
      <stop offset="0.577" stop-color="#00b1c3"/>
      <stop offset="1" stop-color="#b5d9dc"/>
    </linearGradient>
    <linearGradient id="linear-gradient-4" x1="0.611" y1="0.983" x2="0.451" y2="0.112" gradientUnits="objectBoundingBox">
      <stop offset="0" stop-color="#dfd7dc"/>
      <stop offset="0.289" stop-color="#bd81b8"/>
      <stop offset="1" stop-color="#00b1c3"/>
    </linearGradient>
    <linearGradient id="linear-gradient-5" x1="0.478" y1="0.796" x2="-1.34" y2="-0.353" xlink:href="#linear-gradient-2"/>
    <linearGradient id="linear-gradient-6" x1="-25.478" y1="47.615" x2="-26.011" y2="43.692" xlink:href="#linear-gradient-2"/>
    <linearGradient id="linear-gradient-7" x1="-29.262" y1="95.044" x2="-29.794" y2="91.121" xlink:href="#linear-gradient-2"/>
  </defs>
  <g id="winnings_coins_icon" transform="translate(-29.667 -220.667)">
    <rect id="Rectangle_8490" data-name="Rectangle 8490" width="36" height="36" rx="10" transform="translate(29.667 220.667)" fill="rgba(0,0,0,0.8)" opacity="0"/>
    <g id="Group_10188" data-name="Group 10188" transform="translate(31.246 222.667)">
      <g id="Group_9600" data-name="Group 9600" transform="translate(0)">
        <g id="Group_9597" data-name="Group 9597" transform="translate(0)">
          <path id="Path_44838" data-name="Path 44838" d="M54.738,27.928a16,16,0,1,0,16.385,16A16.2,16.2,0,0,0,54.738,27.928Z" transform="translate(-38.28 -27.928)" fill="url(#linear-gradient)"/>
          <path id="Path_44839" data-name="Path 44839" d="M54.012,202.481A16.22,16.22,0,0,1,37.631,186.81c0,.119,0,.239,0,.359a16.389,16.389,0,0,0,32.77,0c0-.12,0-.24,0-.359A16.221,16.221,0,0,1,54.012,202.481Z" transform="translate(-37.626 -171.2)" fill="#fff05a"/>
          <path id="Path_44840" data-name="Path 44840" d="M54.738,27.928A16.217,16.217,0,0,0,38.352,43.971c0,.2.008.387.016.582a25.244,25.244,0,0,0,32.743-.195c0-.13.011-.256.011-.387A16.218,16.218,0,0,0,54.738,27.928Z" transform="translate(-38.28 -27.928)" fill="#fff" opacity="0.35" style="mix-blend-mode: overlay;isolation: isolate"/>
          <path id="Path_44841" data-name="Path 44841" d="M98.222,34.256a16.561,16.561,0,0,0-26.111.087,25.526,25.526,0,0,0,26.111-.087Z" transform="translate(-68.71 -27.928)" fill="#fff" opacity="0.49" style="mix-blend-mode: overlay;isolation: isolate"/>
          <path id="Path_44842" data-name="Path 44842" d="M54.747,28.845a16.219,16.219,0,0,1,16.372,15.57c.005-.152.013-.3.013-.459a16.389,16.389,0,0,0-32.769,0c0,.155.007.307.012.459A16.22,16.22,0,0,1,54.747,28.845Z" transform="translate(-38.289 -27.928)" fill="#fff" opacity="0.49" style="mix-blend-mode: overlay;isolation: isolate"/>
          <path id="Path_44843" data-name="Path 44843" d="M154.039,38.546c.767-.059,1.558.233,1.175.566s-2.979,1.831-4.11.906S153.137,38.615,154.039,38.546Z" transform="translate(-139.773 -37.492)" fill="#fff"/>
          <path id="Path_44844" data-name="Path 44844" d="M53.371,61.822c-2.4,2.021-4.343,5.755-4.294,7.937s1.214-1.241,1.816-2.483S54.5,62.248,56.685,61.1,57.127,58.662,53.371,61.822Z" transform="translate(-47.947 -56.693)" fill="#fff"/>
        </g>
        <g id="Group_9599" data-name="Group 9599" transform="translate(3.595 3.522)">
          <path id="Path_44845" data-name="Path 44845" d="M93.392,69.437a11.892,11.892,0,1,0,12.156,11.889A12.026,12.026,0,0,0,93.392,69.437Z" transform="translate(-80.529 -68.865)" fill="url(#linear-gradient-2)"/>
          <g id="Group_9598" data-name="Group 9598" opacity="0.35" style="mix-blend-mode: overlay;isolation: isolate">
            <path id="Path_44846" data-name="Path 44846" d="M86.922,88.785A12.575,12.575,0,1,1,99.764,76.213,12.724,12.724,0,0,1,86.922,88.785Zm0-24A11.434,11.434,0,1,0,98.629,76.213,11.585,11.585,0,0,0,86.922,64.782Z" transform="translate(-74.079 -63.641)" fill="#fff"/>
          </g>
          <path id="Path_44847" data-name="Path 44847" d="M122.581,69.437a12.277,12.277,0,0,0-9.02,3.9,12.291,12.291,0,0,1,8.294-3.186,12.055,12.055,0,0,1,12.187,11.918,11.727,11.727,0,0,1-3.169,8.017,11.764,11.764,0,0,0,3.9-8.734A12.056,12.056,0,0,0,122.581,69.437Z" transform="translate(-109.75 -68.865)" fill="#c46728" opacity="0.39" style="mix-blend-mode: multiply;isolation: isolate"/>
          <path id="Path_44848" data-name="Path 44848" d="M85.811,88.353c0-7.67,5.442-11.885,12.155-11.885a12.274,12.274,0,0,1,7.306,2.387,12.184,12.184,0,0,0-24.046,2.468,11.783,11.783,0,0,0,4.849,9.5A11.778,11.778,0,0,1,85.811,88.353Z" transform="translate(-80.52 -68.865)" fill="#c46728" opacity="0.39" style="mix-blend-mode: multiply;isolation: isolate"/>
          <path id="Path_44849" data-name="Path 44849" d="M93.392,198.74a12.044,12.044,0,0,1-12.146-11.577c-.005.114-.011.227-.011.343a12.159,12.159,0,0,0,24.313,0c0-.115-.005-.228-.008-.343A12.046,12.046,0,0,1,93.392,198.74Z" transform="translate(-80.529 -175.04)" fill="#fff05a"/>
        </g>
      </g>
      <g id="Group_9601" data-name="Group 9601" transform="translate(3.945 6.725)" opacity="0.39" style="mix-blend-mode: multiply;isolation: isolate">
        <path id="Path_44850" data-name="Path 44850" d="M89.945,116.58,77.626,104.862l5.337-7.189,3.2-1.218h7.553l3.2,1.218,5.337,7.189ZM79.2,104.725l10.746,10.222,10.746-10.222-4.5-6.063-2.683-1.02H86.383L83.7,98.662Z" transform="translate(-77.626 -96.455)" fill="#c46728"/>
      </g>
      <g id="Group_9604" data-name="Group 9604" transform="translate(4.738 7.319)">
        <g id="Group_9603" data-name="Group 9603" transform="translate(0 0)">
          <path id="Path_44851" data-name="Path 44851" d="M146.373,102.475h-7.434l-2.982,1.119v3.072h13.4v-3.072Z" transform="translate(-130.997 -102.475)" fill="url(#linear-gradient-3)"/>
          <path id="Path_44852" data-name="Path 44852" d="M104.009,113.821l-2.976,1.273-3.71.263-3.71-.263-2.976-1.273-4.974,6.626,11.659,10.97,11.659-10.97Z" transform="translate(-85.664 -112.702)" fill="url(#linear-gradient-4)"/>
          <path id="Path_44853" data-name="Path 44853" d="M166.05,126.725l.173,7.017h3.527v-6.753Z" transform="translate(-158.097 -124.333)" fill="#fff" opacity="0.38" style="mix-blend-mode: overlay;isolation: isolate"/>
          <path id="Path_44854" data-name="Path 44854" d="M121.989,126.972l-7.057-6,2.073-7.153,1.721,8.147Z" transform="translate(-112.046 -112.702)" fill="#fff" opacity="0.38" style="mix-blend-mode: overlay;isolation: isolate"/>
          <path id="Path_44855" data-name="Path 44855" d="M173.094,129.394l-3.334,6.875h3.334Z" transform="translate(-161.44 -126.739)" fill="#fff" opacity="0.38" style="mix-blend-mode: overlay;isolation: isolate"/>
          <path id="Path_44856" data-name="Path 44856" d="M215.192,120.447l-8.1,1.663h-3.527v-6.753l3.7-.263,2.968-1.273Z" transform="translate(-191.873 -112.702)" fill="#fff" opacity="0.38" style="mix-blend-mode: overlay;isolation: isolate"/>
          <path id="Path_44857" data-name="Path 44857" d="M207.264,126.725l-.173,7.017h-3.527v-6.753Z" transform="translate(-191.899 -124.333)" fill="#fff" opacity="0.38" style="mix-blend-mode: overlay;isolation: isolate"/>
          <path id="Path_44858" data-name="Path 44858" d="M220.644,126.972l7.056-6-2.073-7.153-1.721,8.147Z" transform="translate(-207.269 -112.702)" fill="#fff" opacity="0.38" style="mix-blend-mode: overlay;isolation: isolate"/>
          <path id="Path_44859" data-name="Path 44859" d="M203.564,129.394l3.334,6.875h-3.334Z" transform="translate(-191.899 -126.739)" fill="#fff" opacity="0.38" style="mix-blend-mode: overlay;isolation: isolate"/>
          <path id="Path_44860" data-name="Path 44860" d="M166.627,128.068l-2.039-.145-2,7.02,4.041,9.186,3.527-9.307-1.842-6.873Z" transform="translate(-154.969 -125.413)" fill="#fff" opacity="0.3" style="mix-blend-mode: overlay;isolation: isolate"/>
          <path id="Path_44861" data-name="Path 44861" d="M187.092,129.394l-1.8,6.739,1.8,9.322,1.576-9.322Z" transform="translate(-175.433 -126.739)" fill="#fff" opacity="0.34"/>
          <path id="Path_44862" data-name="Path 44862" d="M114.933,120.974l2.073-7.153,6.668,17.6Z" transform="translate(-112.046 -112.702)" fill="#fff" opacity="0.2" style="mix-blend-mode: overlay;isolation: isolate"/>
          <path id="Path_44863" data-name="Path 44863" d="M85.664,120.447l8.1,1.663h3.527v-6.753l-3.7-.263-2.968-1.273Z" transform="translate(-85.664 -112.702)" fill="#fff" opacity="0.54" style="mix-blend-mode: overlay;isolation: isolate"/>
          <path id="Path_44864" data-name="Path 44864" d="M85.664,120.447l11.628,10.97-3.407-8.991,3.407-.317H93.765l-.173-6.939-.352,6.738-4.689-.936,2.073-7.153L88.2,120.8Z" transform="translate(-85.664 -112.702)" fill="#fff" opacity="0.5" style="mix-blend-mode: overlay;isolation: isolate"/>
          <path id="Path_44865" data-name="Path 44865" d="M212.3,120.974l-2.073-7.153-6.668,17.6Z" transform="translate(-191.873 -112.702)" fill="#fff" opacity="0.2" style="mix-blend-mode: overlay;isolation: isolate"/>
          <path id="Path_44866" data-name="Path 44866" d="M215.192,120.447l-3.022.995-5.2.985-3.407-.317h3.527l.173-7.016.352,6.816,4.689-.936-2.073-7.153,2.426,6.977Z" transform="translate(-191.873 -112.702)" fill="#fff" opacity="0.5" style="mix-blend-mode: overlay;isolation: isolate"/>
          <g id="Group_9602" data-name="Group 9602" transform="translate(3.433 1.679)">
            <path id="Path_44867" data-name="Path 44867" d="M121.282,126.65l2.028-7.146-2.834,6.844,8.081,9.893Z" transform="translate(-120.477 -119.504)" fill="#fff"/>
            <path id="Path_44868" data-name="Path 44868" d="M144.02,127.514,141.61,134l6,9.458-3.367-8.887Z" transform="translate(-139.525 -126.724)" fill="#fff" opacity="0.34"/>
          </g>
          <path id="Path_44869" data-name="Path 44869" d="M135.957,113.821l2.982,1.536,3.717.2,3.723-.34,2.976-1.391L146.3,114.95l-3.646.351-3.717-.208Z" transform="translate(-130.997 -112.702)" fill="#fff"/>
          <path id="Path_44870" data-name="Path 44870" d="M173.45,102.475l-.908,2.461-2.792.138-2.461-.089-1.239-2.51Z" transform="translate(-158.091 -102.475)" fill="#fff" opacity="0.34"/>
          <path id="Path_44871" data-name="Path 44871" d="M138.925,104.945l7.4-2.469h-7.4l-2.968,1.119Z" transform="translate(-130.973 -102.475)" fill="#fff" opacity="0.34"/>
          <path id="Path_44872" data-name="Path 44872" d="M149.355,103.594h-13.4l2.982-1.119h7.434Z" transform="translate(-130.997 -102.475)" fill="#fff" opacity="0.34"/>
          <path id="Path_44873" data-name="Path 44873" d="M96.1,114.555l-4.328,6.637,1.625.3Z" transform="translate(-91.171 -113.363)" fill="#fff" style="mix-blend-mode: overlay;isolation: isolate"/>
          <path id="Path_44874" data-name="Path 44874" d="M100.254,146.762,98.709,150.4l-.465-.088Z" transform="translate(-97.003 -142.394)" fill="#fff"/>
          <path id="Path_44875" data-name="Path 44875" d="M169.75,131.372l-.113,15.567-3.587-8.692Z" transform="translate(-158.097 -128.522)" fill="#fff" opacity="0.49"/>
          <path id="Path_44876" data-name="Path 44876" d="M96.411,182.154l-3.037.335-7.71-1.481,7.928,2.172h7.034L105,182.094l-4.43.577Z" transform="translate(-85.664 -173.262)" fill="#fff"/>
        </g>
      </g>
      <g id="Group_9608" data-name="Group 9608" transform="translate(2.179 13.388)">
        <g id="Group_9605" data-name="Group 9605" transform="translate(12.317 10.752)">
          <path id="Path_44877" data-name="Path 44877" d="M187.38,279.3V273.3l-1.756,3.72Z" transform="translate(-185.623 -273.304)" fill="#fde400"/>
          <path id="Path_44878" data-name="Path 44878" d="M203.431,279.3V273.3l1.756,3.72Z" transform="translate(-201.675 -273.304)" fill="url(#linear-gradient-5)"/>
          <path id="Path_44879" data-name="Path 44879" d="M187.477,273.885l-.2,3.512-1.545.164h1.746Z" transform="translate(-185.721 -273.828)" fill="#fff"/>
        </g>
        <g id="Group_9606" data-name="Group 9606" transform="translate(0)">
          <path id="Path_44880" data-name="Path 44880" d="M59.717,166.039h5.992l-3.719-1.757Z" transform="translate(-59.717 -164.282)" fill="#fde400"/>
          <path id="Path_44881" data-name="Path 44881" d="M59.717,182.093h5.992l-3.719,1.756Z" transform="translate(-59.717 -180.336)" fill="url(#linear-gradient-6)"/>
          <path id="Path_44882" data-name="Path 44882" d="M59.717,166.139l2.259,1.746v-3.491Z" transform="translate(-59.717 -164.382)" fill="#fde400"/>
          <path id="Path_44883" data-name="Path 44883" d="M62.082,166.042l-.064-1.622-.147,1.622-2.155.121h5.992Z" transform="translate(-59.717 -164.407)" fill="#fff"/>
        </g>
        <g id="Group_9607" data-name="Group 9607" transform="translate(22.471)">
          <path id="Path_44884" data-name="Path 44884" d="M295.614,166.039h-5.992l3.719-1.757Z" transform="translate(-289.622 -164.282)" fill="#fde400"/>
          <path id="Path_44885" data-name="Path 44885" d="M295.614,182.093h-5.992l3.719,1.756Z" transform="translate(-289.622 -180.336)" fill="url(#linear-gradient-7)"/>
          <path id="Path_44886" data-name="Path 44886" d="M293.249,166.042l.064-1.622.147,1.622,2.154.121h-5.992Z" transform="translate(-289.622 -164.407)" fill="#fff"/>
        </g>
      </g>
    </g>
  </g>
</svg>
